<?xml version="1.0" encoding="UTF-8" standalone="no"?>
<svg width="44px" height="44px" viewBox="0 0 44 44" version="1.1" xmlns="http://www.w3.org/2000/svg" xmlns:xlink="http://www.w3.org/1999/xlink">
    <!-- Generator: Sketch 40.3 (33839) - http://www.bohemiancoding.com/sketch -->
    <title>25-web-seo-internet-user-rating</title>
    <desc>Created with Sketch.</desc>
    <defs></defs>
    <g id="Page-1" stroke="none" stroke-width="1" fill="none" fill-rule="evenodd" stroke-linecap="round" stroke-linejoin="round">
        <g id="Product" transform="translate(-489.000000, -1776.000000)" stroke="#F66290" stroke-width="1.47">
            <g id="25-web-seo-internet-user-rating" transform="translate(490.000000, 1777.000000)">
                <polygon id="Layer-1" fill="#FFFFFF" points="5.2691405 31.92 6.86554776 35.2822566 10.538281 35.7702027 7.85204737 38.336096 8.52568193 42 5.2691405 40.2235244 2.01259907 42 2.68623363 38.336096 0 35.7702027 3.67273324 35.2822566"></polygon>
                <polygon id="Layer-2" fill="#FFFFFF" points="20.8091405 31.92 22.4055478 35.2822566 26.078281 35.7702027 23.3920474 38.336096 24.0656819 42 20.8091405 40.2235244 17.5525991 42 18.2262336 38.336096 15.54 35.7702027 19.2127332 35.2822566"></polygon>
                <polygon id="Layer-3" fill="#FFFFFF" points="36.3491405 31.92 37.9455478 35.2822566 41.618281 35.7702027 38.9320474 38.336096 39.6056819 42 36.3491405 40.2235244 33.0925991 42 33.7662336 38.336096 31.08 35.7702027 34.7527332 35.2822566"></polygon>
                <path d="M30.2333227,26.7578574 C33.5732219,23.9844118 35.7,19.8005737 35.7,15.12 C35.7,6.76945458 28.9305454,0 20.58,0 C12.2294546,0 5.46,6.76945458 5.46,15.12 C5.46,19.8002013 7.58643966,23.983746 10.9258801,26.7571953 C13.5237845,24.5733416 17.2209531,23.803588 17.4998708,23.1228333 C17.9238541,22.0880171 17.9238541,21.6061158 17.9238541,20.3657125 C17.9238541,19.1253093 16.3417366,16.9924014 16.3417366,16.9924014 C16.3417366,16.9924014 15.3304409,16.5416005 15.0461274,15.3865525 C14.8549524,14.6098877 15.2775228,13.724687 15.5018337,13.5836571 C14.9022474,11.7156685 13.7047445,5.27582325 20.556167,5.04234902 C20.5861227,5.04144631 20.6162323,5.04066301 20.6464981,5.04505107 C27.4552555,5.27715539 26.2577526,11.7170006 25.6581663,13.5849892 C25.8824772,13.7260191 26.3050476,14.6112199 26.1138726,15.3878847 C25.8295591,16.5429327 24.8182634,16.9937335 24.8182634,16.9937335 C24.8182634,16.9937335 23.2361459,19.1266414 23.2361459,20.3670447 C23.2361459,21.607448 23.2361459,22.0893492 23.6601292,23.1241655 C23.9390184,23.8048505 27.6354592,24.5745162 30.2333227,26.7578574 L30.2333227,26.7578574 Z" id="Layer-4" fill="#FEEEF3"></path>
            </g>
        </g>
    </g>
</svg>