<?xml version="1.0" encoding="utf-8"?>
<!-- Generator: Adobe Illustrator 18.0.0, SVG Export Plug-In . SVG Version: 6.00 Build 0)  -->
<!DOCTYPE svg PUBLIC "-//W3C//DTD SVG 1.1//EN" "http://www.w3.org/Graphics/SVG/1.1/DTD/svg11.dtd">
<svg version="1.1" id="Layer_1" xmlns="http://www.w3.org/2000/svg" xmlns:xlink="http://www.w3.org/1999/xlink" x="0px" y="0px"
	 viewBox="-234 -234 512 512" enable-background="new -234 -234 512 512" xml:space="preserve">
<title>25-web-seo-internet-user-rating</title>
<desc>Created with Sketch.</desc>
<g id="Page-1">
	<g id="Product" transform="translate(-489.000000, -1776.000000)">
		<g id="_x32_5-web-seo-internet-user-rating" transform="translate(490.000000, 1777.000000)">
			
				<polygon id="Layer-1" fill="#FFFFFF" stroke="#F66290" stroke-width="1.47" stroke-linecap="round" stroke-linejoin="round" points="
				-170,152.3 -150.5,193.3 -105.5,199.2 -138.4,230.5 -130.1,275.1 -170,253.5 -209.8,275.1 -201.6,230.5 -234.5,199.2 
				-189.5,193.3 			"/>
			
				<polygon id="Layer-2" fill="#FFFFFF" stroke="#F66290" stroke-width="1.47" stroke-linecap="round" stroke-linejoin="round" points="
				20.2,152.3 39.7,193.3 84.6,199.2 51.8,230.5 60,275.1 20.2,253.5 -19.7,275.1 -11.4,230.5 -44.3,199.2 0.6,193.3 			"/>
			
				<polygon id="Layer-3" fill="#FFFFFF" stroke="#F66290" stroke-width="1.47" stroke-linecap="round" stroke-linejoin="round" points="
				210.3,152.3 229.8,193.3 274.8,199.2 241.9,230.5 250.1,275.1 210.3,253.5 170.5,275.1 178.7,230.5 145.8,199.2 190.8,193.3 			
				"/>
			<path id="Layer-4" fill="#FEEEF3" stroke="#F66290" stroke-width="1.47" stroke-linecap="round" stroke-linejoin="round" d="
				M135.5,89.4c40.9-33.8,66.9-84.8,66.9-141.8c0-101.7-82.8-184.2-185-184.2s-185,82.5-185,184.2c0,57,26,108,66.9,141.8
				c31.8-26.6,77-36,80.4-44.3c5.2-12.6,5.2-18.5,5.2-33.6c0-15.1-19.4-41.1-19.4-41.1s-12.4-5.5-15.9-19.6
				c-2.3-9.5,2.8-20.2,5.6-22c-7.3-22.8-22-101.2,61.8-104.1c0.4,0,0.7,0,1.1,0c83.3,2.8,68.7,81.3,61.3,104.1
				c2.7,1.7,7.9,12.5,5.6,22c-3.5,14.1-15.9,19.6-15.9,19.6s-19.4,26-19.4,41.1c0,15.1,0,21,5.2,33.6
				C58.5,53.4,103.7,62.8,135.5,89.4L135.5,89.4z"/>
		</g>
	</g>
</g>
</svg>
