<?xml version="1.0" encoding="UTF-8" standalone="no"?>
<svg width="44px" height="44px" viewBox="0 0 44 44" version="1.1" xmlns="http://www.w3.org/2000/svg" xmlns:xlink="http://www.w3.org/1999/xlink">
    <!-- Generator: Sketch 40.3 (33839) - http://www.bohemiancoding.com/sketch -->
    <title>Group 10</title>
    <desc>Created with Sketch.</desc>
    <defs></defs>
    <g id="Page-1" stroke="none" stroke-width="1" fill="none" fill-rule="evenodd" stroke-linecap="round" stroke-linejoin="round">
        <g id="Product" transform="translate(-896.000000, -2214.000000)" stroke="#F76290" stroke-width="1.47">
            <g id="Group-10" transform="translate(897.000000, 2215.000000)">
                <rect id="Layer-1" fill="#FEEEF3" x="0" y="0" width="42" height="42" rx="1.26"></rect>
                <rect id="Layer-2" fill="#FFFFFF" x="4.2" y="12.6" width="8.4" height="8.4"></rect>
                <rect id="Layer-3" fill="#FFFFFF" x="12.6" y="12.6" width="8.4" height="8.4"></rect>
                <rect id="Layer-4" fill="#FFFFFF" x="21" y="12.6" width="8.4" height="8.4"></rect>
                <rect id="Layer-5" fill="#FFFFFF" x="29.4" y="12.6" width="8.4" height="8.4"></rect>
                <rect id="Layer-6" fill="#FFFFFF" x="29.4" y="21" width="8.4" height="8.4"></rect>
                <rect id="Layer-7" fill="#FFFFFF" x="21" y="21" width="8.4" height="8.4"></rect>
                <rect id="Layer-8" fill="#FFFFFF" x="12.6" y="21" width="8.4" height="8.4"></rect>
                <rect id="Layer-9" fill="#FFFFFF" x="4.2" y="21" width="8.4" height="8.4"></rect>
                <rect id="Layer-10" fill="#FFFFFF" x="4.2" y="29.4" width="8.4" height="8.4"></rect>
                <rect id="Layer-11" fill="#FFFFFF" x="12.6" y="29.4" width="8.4" height="8.4"></rect>
                <rect id="Layer-12" fill="#FFFFFF" x="21" y="29.4" width="8.4" height="8.4"></rect>
                <rect id="Layer-13" fill="#FFFFFF" x="29.4" y="29.4" width="8.4" height="8.4"></rect>
                <rect id="Layer-14" fill="#FEEEF3" x="8.4" y="0" width="4.2" height="4.2"></rect>
                <rect id="Layer-15" fill="#FEEEF3" x="29.4" y="0" width="4.2" height="4.2"></rect>
            </g>
        </g>
    </g>
</svg>