<?xml version="1.0" encoding="UTF-8" standalone="no"?>
<svg width="44px" height="40px" viewBox="0 0 44 40" version="1.1" xmlns="http://www.w3.org/2000/svg" xmlns:xlink="http://www.w3.org/1999/xlink">
    <!-- Generator: Sketch 40.3 (33839) - http://www.bohemiancoding.com/sketch -->
    <title>31-files-folder</title>
    <desc>Created with Sketch.</desc>
    <defs></defs>
    <g id="Page-1" stroke="none" stroke-width="1" fill="none" fill-rule="evenodd" stroke-linecap="round" stroke-linejoin="round">
        <g id="Product" transform="translate(-129.000000, -2215.000000)" stroke="#F66290" stroke-width="1.47" fill="#FEEEF3">
            <g id="31-files-folder" transform="translate(130.000000, 2216.000000)">
                <path d="M12.6,4.22222222 L40.7430234,4.22222222 C41.4372324,4.22222222 42,4.7873011 42,5.48470358 L42,36.7375186 C42,37.4347678 41.4380347,38 40.7430234,38 L1.25697657,38 C0.562767582,38 0,37.4349211 0,36.7375186 L0,4.22222222 L0,1.26680589 C0,0.567168315 0.561261941,0 1.25922312,0 L9.18007376,0 C9.87552348,0 10.6956428,0.50092472 11.0154873,1.12593162 L12.6,4.22222222 L12.6,4.22222222 Z" id="Layer-1"></path>
                <path d="M42,10.5555556 L42,5.48470358 C42,4.7873011 41.4372324,4.22222222 40.7430234,4.22222222 L12.6,4.22222222 L11.0154873,1.12593162 C10.6956428,0.50092472 9.87552348,0 9.18007376,0 L1.25922312,0 C0.561261941,0 0,0.567168315 0,1.26680589 L0,4.22222222 L0,10.5555556 L42,10.5555556 L42,10.5555556 Z" id="Layer-2"></path>
            </g>
        </g>
    </g>
</svg>