<?xml version="1.0" encoding="UTF-8" standalone="no"?>
<svg width="44px" height="44px" viewBox="0 0 44 44" version="1.1" xmlns="http://www.w3.org/2000/svg" xmlns:xlink="http://www.w3.org/1999/xlink">
    <!-- Generator: Sketch 40.3 (33839) - http://www.bohemiancoding.com/sketch -->
    <title>Group 9</title>
    <desc>Created with Sketch.</desc>
    <defs></defs>
    <g id="Page-1" stroke="none" stroke-width="1" fill="none" fill-rule="evenodd" stroke-linecap="round" stroke-linejoin="round">
        <g id="Product" transform="translate(-489.000000, -2009.000000)" stroke="#F66290" stroke-width="1.47">
            <g id="Group-9" transform="translate(490.000000, 2010.000000)">
                <path d="M20.7920792,42 C32.2752275,42 41.5841584,32.5979797 41.5841584,21 C41.5841584,9.40202025 32.2752275,0 20.7920792,0 C9.30893094,0 0,9.40202025 0,21 C0,32.5979797 9.30893094,42 20.7920792,42 Z" id="Layer-5" fill="#FEEEF3"></path>
                <path d="M14.8122186,12.8288073 C12.4315222,12.5716754 9.55883286,10.7041561 9.55883286,10.7041561 L3.52046811,20.8541779 C7.63562401,23.2095419 8.42322321,26.2805875 10.2468011,27.9107963 C12.0703789,29.541005 16.6201326,31.6906406 20.100613,33.8907715 C21.327165,34.6351281 25.2737723,36.645212 25.7598011,32.7188665 C25.7942054,32.7499532 30.2040472,34.4979213 29.23258,30.3892852 C32.2194759,31.3899204 32.4816106,28.649113 32.1033073,27.610823 C34.0100727,28.2448764 36.0507833,25.5923041 34.6462245,24.2758386 C31.1902557,21.1925185 30.6470599,20.1008731 23.3823082,16.0447392 C22.4127042,15.5033796 21.2185524,14.9233403 19.9753024,14.3984871 C19.6022715,14.6674197 17.961015,15.8302111 13.7969051,18.5351754 C10.9439303,18.2972038 12.8567427,14.9763314 14.8122186,12.8288073 L14.8122186,12.8288073 Z" id="Layer-1" fill="#FFFFFF"></path>
                <path d="M33.0809222,10.7187253 C33.0809222,10.7187253 31.0749576,11.2920915 28.6173513,10.486896 C24.4226306,8.92983769 18.6268597,10.3546426 16.9631065,10.9737843 C15.2993534,11.5929261 9.78830011,18.1072337 13.8268244,18.4440942 C18.6558602,15.3072005 19.9537674,14.2873327 19.9537674,14.2873327 C31.4915188,19.5900163 35.0687439,24.7633604 35.0842437,24.77386 L38.7611244,21.3361 L33.0809222,10.7187253 L33.0809222,10.7187253 Z" id="Layer-2" fill="#FFFFFF"></path>
                <path d="M36.1365969,6.72 C35.6833351,6.99649429 35.2748141,7.26856952 35.0749404,7.37517229 L33.0795604,8.43940939 C32.5295142,8.73277683 32.3225242,9.42097063 32.6170514,9.9766314 L38.8430864,21.7227925 C39.1378829,22.2789613 39.8222088,22.4911196 40.3721726,22.1977961 L41.6928403,21.4934172 C41.696348,21.3346523 41.6981111,21.1754528 41.6981111,21.0158373 C41.6981111,15.4933566 39.5875228,10.4687597 36.1365969,6.72 L36.1365969,6.72 Z" id="Layer-4" fill="#FEEEF3"></path>
                <path d="M32.3412676,27.5514674 L25.5460146,23.4276375" id="Layer-6" fill="#E2F3FB"></path>
                <path d="M29.9993431,30.2921826 L23.6894653,26.462912" id="Layer-7" fill="#E2F3FB"></path>
                <path d="M25.9786343,32.4739455 L21.6102574,29.822912" id="Layer-8" fill="#E2F3FB"></path>
            </g>
        </g>
    </g>
</svg>