<?xml version="1.0" encoding="UTF-8" standalone="no"?>
<svg width="88px" height="48px" viewBox="0 0 88 48" version="1.1" xmlns="http://www.w3.org/2000/svg" xmlns:xlink="http://www.w3.org/1999/xlink">
    <!-- Generator: Sketch 40.3 (33839) - http://www.bohemiancoding.com/sketch -->
    <title>Group 2</title>
    <desc>Created with Sketch.</desc>
    <defs>
        <linearGradient x1="96.7469162%" y1="79.8183177%" x2="0%" y2="25.312187%" id="linearGradient-1">
            <stop stop-color="#E15FEE" offset="0%"></stop>
            <stop stop-color="#C13ED3" offset="44.3916354%"></stop>
            <stop stop-color="#9914B0" offset="100%"></stop>
        </linearGradient>
        <linearGradient x1="96.7469162%" y1="79.8183177%" x2="0%" y2="25.312187%" id="linearGradient-2">
            <stop stop-color="#E15FEE" offset="0%"></stop>
            <stop stop-color="#DB59E9" offset="7.98707411%"></stop>
            <stop stop-color="#9914B0" offset="100%"></stop>
        </linearGradient>
        <linearGradient x1="96.7469162%" y1="79.8183177%" x2="0%" y2="25.312187%" id="linearGradient-3">
            <stop stop-color="#E15FEE" offset="0%"></stop>
            <stop stop-color="#9914B0" offset="100%"></stop>
        </linearGradient>
        <linearGradient x1="108.539003%" y1="40.9105705%" x2="-11.8593158%" y2="65.9031723%" id="linearGradient-4">
            <stop stop-color="#D948E7" offset="0%"></stop>
            <stop stop-color="#B023C9" offset="100%"></stop>
        </linearGradient>
        <linearGradient x1="50%" y1="0%" x2="50%" y2="100%" id="linearGradient-5">
            <stop stop-color="#D948E7" offset="0%"></stop>
            <stop stop-color="#B023C9" offset="100%"></stop>
        </linearGradient>
    </defs>
    <g id="Page-1" stroke="none" stroke-width="1" fill="none" fill-rule="evenodd">
        <g id="Product" transform="translate(-131.000000, -25.000000)">
            <g id="Group-2" transform="translate(131.761905, 25.000000)">
                <path d="M10.3390997,42.4591386 C10.3390997,43.8556299 9.83547751,44.9558793 8.82821801,45.7599198 C7.82095851,46.5639603 6.41965183,46.9659745 4.62425595,46.9659745 C2.97022983,46.9659745 1.50707481,46.6556477 0.234747024,46.0349849 L0.234747024,42.9881099 C1.28088321,43.453607 2.16619801,43.781566 2.89071801,43.9719966 C3.615238,44.1624273 4.27789878,44.2576412 4.87872024,44.2576412 C5.59970599,44.2576412 6.15280685,44.12011 6.53803943,43.8450435 C6.92327202,43.569977 7.11588542,43.1609099 7.11588542,42.61783 C7.11588542,42.3145515 7.03106484,42.0447789 6.86142113,41.8085038 C6.69177743,41.5722288 6.44261697,41.3447733 6.11393229,41.1261308 C5.78524761,40.9074882 5.11551845,40.5583706 4.1047247,40.0787675 C3.15754735,39.6344293 2.44717499,39.20773 1.97358631,38.7986568 C1.49999763,38.3895836 1.12183921,37.9135141 0.839099702,37.3704341 C0.556360193,36.8273542 0.41499256,36.1925949 0.41499256,35.4661373 C0.41499256,34.0978579 0.879738656,33.0222935 1.80924479,32.239412 C2.73875093,31.4565305 4.0234293,31.0650956 5.66331845,31.0650956 C6.46912605,31.0650956 7.23781256,31.1603095 7.96940104,31.3507401 C8.70098952,31.5411708 9.46614184,31.8091802 10.264881,32.1547766 L9.2046131,34.7044185 C8.37760003,34.3658752 7.6937341,34.1296036 7.15299479,33.9955969 C6.61225548,33.8615902 6.08035976,33.7945878 5.55729167,33.7945878 C4.93526475,33.7945878 4.45814898,33.9391718 4.12593006,34.2283443 C3.79371114,34.5175168 3.62760417,34.8948459 3.62760417,35.360343 C3.62760417,35.6495154 3.69475379,35.9016559 3.82905506,36.116772 C3.96335633,36.3318881 4.17717487,36.5399481 4.47051711,36.7409582 C4.76385935,36.9419684 5.45832786,37.3034285 6.55394345,37.8253495 C8.00298344,38.5165422 8.99609106,39.2094877 9.53329613,39.9042069 C10.0705012,40.5989261 10.3390997,41.4505615 10.3390997,42.4591386 L10.3390997,42.4591386 Z" id="S" fill="#B023C9"></path>
                <path d="M43.1311384,46.754386 L38.953683,46.754386 L32.2103795,35.0535396 L32.1149554,35.0535396 C32.2492566,37.1200647 32.3164062,38.5941168 32.3164062,39.4757401 L32.3164062,46.754386 L29.3794643,46.754386 L29.3794643,31.2872636 L33.5251116,31.2872636 L40.2578125,42.8717362 L40.3320312,42.8717362 C40.2260039,40.861635 40.1729911,39.4404795 40.1729911,38.6082271 L40.1729911,31.2872636 L43.1311384,31.2872636 L43.1311384,46.754386 Z" id="N" fill="#B023C9"></path>
                <rect id="Rectangle" fill="#B023C9" x="13.3333333" y="32.3099415" width="12.1904762" height="3.04093567"></rect>
                <rect id="Rectangle-Copy" fill="#B023C9" x="13.3333333" y="37.6315789" width="12.1904762" height="3.04093567"></rect>
                <rect id="Rectangle-Copy-2" fill="#B023C9" x="13.3333333" y="42.9532164" width="12.1904762" height="3.04093567"></rect>
                <path d="M59.8095238,13.3040936 C61.4281926,13.3040936 66.1445419,12.9277461 69.7142857,10.2631579 C73.7057687,7.28376809 75.386075,3.0833389 76.1904762,2.28070175 C77.7142857,0.760233918 82.6666667,12.5438596 80.7619048,12.5438596 C78.8571429,12.5438596 76.1904762,11.7836257 71.6190476,14.4444444 C67.047619,17.1052632 67.047619,19.7660819 65.5238095,22.4269006 C64,25.0877193 60.952381,20.5263158 60.952381,20.5263158 C60.952381,20.5263158 56.3809524,13.3040936 59.8095238,13.3040936 Z" id="Path-3" fill="url(#linearGradient-1)"></path>
                <path d="M42.2857143,18.6418666 C42.2857143,18.6418666 48.3809524,17.1213987 51.047619,19.0219835 C53.7142857,20.9225683 54.8571429,23.2032701 55.2380952,23.583387 C55.6190476,23.963504 61.3333333,13.7003461 61.3333333,13.7003461 C61.3333333,13.7003461 58.6666667,13.3202291 57.9047619,13.7003461 C57.1428571,14.0804631 53.3333333,14.0804631 51.8095238,13.3202291 C50.2857143,12.5599952 48.3809524,11.7997613 48,10.2792935 C47.6190476,8.75882564 45.7142857,7.2383578 44.952381,6.85824084 C44.1904762,6.47812388 39.6190476,12.9401122 39.6190476,12.9401122 L42.2857143,18.6418666 Z" id="Path-2" fill="url(#linearGradient-2)"></path>
                <path d="M52.6996867,33.4201329 C52.6996867,33.4201329 58.366967,31.6912712 61.3410909,33.8273485 C64.3152149,35.9634259 65.1506147,38.0086351 65.5315671,38.388752 C65.9125195,38.768869 74.7896056,29.2109576 74.7896056,29.2109576 C74.7896056,29.2109576 71.9198714,28.1189481 70.8894568,28.4332866 C69.8590422,28.7476251 64.3716604,29.3292192 62.1029957,28.1255941 C59.834331,26.9219691 58.1596479,25.6029679 57.5285371,24.3583024 C56.8974262,23.1136369 55.0378271,21.7453454 55.0378271,21.7453454 L49.9125195,27.7454772 L52.6996867,33.4201329 Z" id="Path-2-Copy" fill="url(#linearGradient-2)" transform="translate(62.351063, 30.072571) rotate(62.000000) translate(-62.351063, -30.072571) "></path>
                <ellipse id="Oval" fill="url(#linearGradient-3)" transform="translate(42.095238, 12.353801) rotate(-9.000000) translate(-42.095238, -12.353801) " cx="42.0952381" cy="12.3538012" rx="6.28571429" ry="6.27192982"></ellipse>
                <ellipse id="Oval-Copy" fill="url(#linearGradient-4)" cx="60" cy="19.5760234" rx="6.28571429" ry="6.27192982"></ellipse>
                <ellipse id="Oval-Copy-3" fill="url(#linearGradient-5)" cx="62.0952381" cy="40.6725146" rx="6.85714286" ry="6.84210526"></ellipse>
                <ellipse id="Oval-Copy-2" fill="#B023C9" cx="80.952381" cy="6.27192982" rx="6.28571429" ry="6.27192982"></ellipse>
            </g>
        </g>
    </g>
</svg>