<?xml version="1.0" encoding="UTF-8" standalone="no"?>
<svg width="62px" height="63px" viewBox="0 0 62 63" version="1.1" xmlns="http://www.w3.org/2000/svg" xmlns:xlink="http://www.w3.org/1999/xlink">
    <!-- Generator: Sketch 40.3 (33839) - http://www.bohemiancoding.com/sketch -->
    <title>2-business-finance-money-box</title>
    <desc>Created with Sketch.</desc>
    <defs></defs>
    <g id="Page-1" stroke="none" stroke-width="1" fill="none" fill-rule="evenodd" stroke-linecap="round" stroke-linejoin="round">
        <g id="Pricing" transform="translate(-1025.000000, -532.000000)" stroke="#1565C0" stroke-width="1.94444444">
            <g id="2-business-finance-money-box" transform="translate(1026.000000, 533.000000)">
                <path d="M29.2435012,11.1082805 C29.7286336,10.0954241 30.0002741,8.96119507 30.0002741,7.76363636 C30.0002741,3.4758984 26.5180444,0 22.2224963,0 C17.9269483,0 14.4447185,3.4758984 14.4447185,7.76363636 C14.4447185,9.89451962 15.3047617,11.8248943 16.6972598,13.2277676 C19.8636554,11.8660001 23.6501152,11.0909091 28.1004189,11.0909091 C28.4864313,11.0909091 28.8674492,11.0967405 29.2435012,11.1082805 L29.2435012,11.1082805 Z" id="Layer-1" fill="#FFFFFF"></path>
                <path d="M11.4569158,52.9751373 L13.4293025,59.4118538 C13.6982177,60.2894356 14.6617993,60.9994347 15.5820596,60.9994347 L19.1329003,60.9994347 C20.0494313,60.9994347 21.0483153,60.2975108 21.3556406,59.4316439 L22.415405,56.4458337 C24.152149,56.6404509 26.0429321,56.7416878 28.1004189,56.7416878 C30.4888761,56.7416878 32.6526833,56.6052611 34.6116532,56.3446982 L36.0410302,59.4839332 C36.4205515,60.3174477 37.4764037,60.9994347 38.3958091,60.9994347 L41.7315982,60.9994347 C42.6446964,60.9994347 43.5590933,60.2707982 43.7598732,59.3719794 L44.8179942,54.6351564 C45.2697063,54.5983593 45.6876171,54.4978424 46.0635001,54.3279779 C49.3200743,52.8563072 53.9281486,49.7890571 56.5516475,45.4711775 C58.3444775,45.4170024 59.7836511,43.949047 59.7836511,42.146093 L59.7836509,32.697091 C59.7836509,30.8564577 58.2906605,29.3704573 56.4489636,29.3704573 L56.0203599,29.3704573 C54.3453248,26.4908265 52.1167636,24.4862239 50.0246109,22.6460318 L52.7372765,15.2151186 C53.0510381,14.3556188 52.5712719,13.550188 51.6629256,13.4237078 C51.6629256,13.4237078 48.5321628,12.7511876 44.4487221,13.6527205 C43.5738463,13.8458736 42.7394266,14.1372153 41.9682868,14.4758056 C38.3629068,12.3491005 33.7704658,11.0909091 28.1004189,11.0909091 C11.4876523,11.0909091 4.12550049,21.891744 3.73660912,33.692392 C3.53462209,33.6503203 3.32529421,33.6282043 3.11079022,33.6282043 C1.42769378,33.6282043 0.063274531,34.9898173 0.063274531,36.6694521 C0.063274531,38.3490869 1.42769378,39.7106999 3.11079022,39.7106999 C3.4146486,39.7106999 3.70812032,39.6663209 3.98505206,39.5837035 C4.64469791,45.1330392 6.66610784,49.8879201 11.4569158,52.9751373 Z" id="Layer-2" fill="#E2F3FB"></path>
            </g>
        </g>
    </g>
</svg>