<?xml version="1.0" encoding="UTF-8" standalone="no"?>
<svg width="44px" height="44px" viewBox="0 0 44 44" version="1.1" xmlns="http://www.w3.org/2000/svg" xmlns:xlink="http://www.w3.org/1999/xlink">
    <!-- Generator: Sketch 40.3 (33839) - http://www.bohemiancoding.com/sketch -->
    <title>26-web-seo-internet-profle copy 5</title>
    <desc>Created with Sketch.</desc>
    <defs></defs>
    <g id="Page-1" stroke="none" stroke-width="1" fill="none" fill-rule="evenodd" stroke-linecap="round" stroke-linejoin="round">
        <g id="Product" transform="translate(-129.000000, -1776.000000)" stroke="#F76290" stroke-width="1.47">
            <g id="26-web-seo-internet-profle-copy-5" transform="translate(130.000000, 1777.000000)">
                <rect id="Layer-1" fill="#FEEEF3" x="0" y="0" width="42" height="29.4"></rect>
                <path d="M24.78,9.66 L38.22,9.66" id="Layer-2" fill="#E2F3FB"></path>
                <path d="M24.78,14.7 L38.22,14.7" id="Layer-3" fill="#E2F3FB"></path>
                <path d="M24.78,19.74 L33.18,19.74" id="Layer-4" fill="#E2F3FB"></path>
                <path d="M8.67781638,11.4258487 C8.52311917,11.5243458 8.23169133,12.1425812 8.36353615,12.6850138 C8.55961441,13.491714 9.2570597,13.806559 9.2570597,13.806559 C9.2570597,13.806559 10.3481753,15.296209 10.3481753,16.1625224 C10.3481753,17.0288358 10.3481753,17.3654018 10.055773,18.0881306 C9.76337069,18.8108594 4.02367046,19.6772171 3.78,23.9379197 L12.1341392,23.9379197 L20.58,23.9388501 C20.3363295,19.6781474 14.5966293,18.8117898 14.304227,18.0890609 C14.0118247,17.3663321 14.0118247,17.0297662 14.0118247,16.1634528 C14.0118247,15.2971394 15.1029403,13.8074894 15.1029403,13.8074894 C15.1029403,13.8074894 15.8003856,13.4926444 15.9964638,12.6859442 C16.1283087,12.1435116 15.8368808,11.5252762 15.6821836,11.4267791 C16.0956915,10.1221521 16.9215555,5.62448247 12.2258608,5.46237786 C12.2049878,5.45931318 12.1842226,5.45986025 12.1635634,5.46049071 C7.43844448,5.62355208 8.26430853,10.1212218 8.67781638,11.4258487 Z" id="Layer-5" fill="#FFFFFF"></path>
                <rect id="Layer-6" fill="#FEEEF3" x="11.76" y="36.12" width="18.48" height="5.88" rx="2.94"></rect>
            </g>
        </g>
    </g>
</svg>