<?xml version="1.0" encoding="UTF-8" standalone="no"?>
<svg width="44px" height="44px" viewBox="0 0 44 44" version="1.1" xmlns="http://www.w3.org/2000/svg" xmlns:xlink="http://www.w3.org/1999/xlink">
    <!-- Generator: Sketch 40.3 (33839) - http://www.bohemiancoding.com/sketch -->
    <title>18-communications-speech-bubble-smile</title>
    <desc>Created with Sketch.</desc>
    <defs></defs>
    <g id="Page-1" stroke="none" stroke-width="1" fill="none" fill-rule="evenodd" stroke-linecap="round" stroke-linejoin="round">
        <g id="Product" transform="translate(-896.000000, -2009.000000)" stroke="#F66290" stroke-width="1.47">
            <g id="18-communications-speech-bubble-smile" transform="translate(897.000000, 2010.000000)">
                <path d="M36.5340847,34.3673587 L39.4829128,34.3673587 C40.8766015,34.3673587 42,33.2359312 42,31.8402447 L42,2.52711394 C42,1.12392441 40.8730617,0 39.4829128,0 L2.51708723,0 C1.12339854,0 0,1.13142745 0,2.52711394 L0,31.8402447 C0,33.2434343 1.12693834,34.3673587 2.51708723,34.3673587 L29.5114984,34.3673587 C30.9369471,42 37.4238281,42.0000002 37.4238281,42 C37.4238281,41.9999998 35.950502,38.6321349 36.5340847,34.3673587 Z" id="Layer-1" fill="#FEEEF3" transform="translate(21.000000, 21.000000) scale(-1, 1) translate(-21.000000, -21.000000) "></path>
                <path d="M15.96,13.02 C15.96,11.3962828 14.6437172,10.08 13.02,10.08 C11.3962828,10.08 10.08,11.3962828 10.08,13.02" id="Layer-2"></path>
                <path d="M32.76,13.02 C32.76,11.3962828 31.4437172,10.08 29.82,10.08 C28.1962828,10.08 26.88,11.3962828 26.88,13.02" id="Layer-3"></path>
                <path d="M27.0452426,21.0373741 C26.3105163,23.4469985 24.0699759,25.2 21.42,25.2 C18.7615029,25.2 16.5150785,23.4357064 15.7877164,21.0141085" id="Layer-4"></path>
            </g>
        </g>
    </g>
</svg>