<?xml version="1.0" encoding="UTF-8" standalone="no"?>
<svg width="44px" height="44px" viewBox="0 0 44 44" version="1.1" xmlns="http://www.w3.org/2000/svg" xmlns:xlink="http://www.w3.org/1999/xlink">
    <!-- Generator: Sketch 40.3 (33839) - http://www.bohemiancoding.com/sketch -->
    <title>26-sports-targer-aim</title>
    <desc>Created with Sketch.</desc>
    <defs></defs>
    <g id="Page-1" stroke="none" stroke-width="1" fill="none" fill-rule="evenodd" stroke-linecap="round" stroke-linejoin="round">
        <g id="Product" transform="translate(-489.000000, -1543.000000)" stroke="#F66290" stroke-width="1.45544554" fill="#FEEEF3">
            <g id="26-sports-targer-aim" transform="translate(490.000000, 1544.000000)">
                <path d="M20.9686921,41.9373843 C32.549381,41.9373843 41.9373843,32.549381 41.9373843,20.9686921 C41.9373843,9.38800325 32.549381,0 20.9686921,0 C9.38800325,0 0,9.38800325 0,20.9686921 C0,32.549381 9.38800325,41.9373843 20.9686921,41.9373843 L20.9686921,41.9373843 Z" id="Layer-1"></path>
                <path d="M20.9686921,34.3124053 C28.3382214,34.3124053 34.3124053,28.3382214 34.3124053,20.9686921 C34.3124053,13.5991628 28.3382214,7.62497896 20.9686921,7.62497896 C13.5991628,7.62497896 7.62497896,13.5991628 7.62497896,20.9686921 C7.62497896,28.3382214 13.5991628,34.3124053 20.9686921,34.3124053 L20.9686921,34.3124053 Z" id="Layer-2"></path>
                <path d="M20.9686921,26.6874264 C24.1270618,26.6874264 26.6874264,24.1270618 26.6874264,20.9686921 C26.6874264,17.8103224 24.1270618,15.2499579 20.9686921,15.2499579 C17.8103224,15.2499579 15.2499579,17.8103224 15.2499579,20.9686921 C15.2499579,24.1270618 17.8103224,26.6874264 20.9686921,26.6874264 L20.9686921,26.6874264 Z" id="Layer-3"></path>
            </g>
        </g>
    </g>
</svg>