<?xml version="1.0" encoding="utf-8"?>
<!-- Generator: Adobe Illustrator 21.0.0, SVG Export Plug-In . SVG Version: 6.00 Build 0)  -->
<svg version="1.1" id="Layer_1" xmlns:figma="http://www.figma.com/figma/ns"
	 xmlns="http://www.w3.org/2000/svg" xmlns:xlink="http://www.w3.org/1999/xlink" x="0px" y="0px" width="512px" height="512px"
	 viewBox="0 0 512 512" enable-background="new 0 0 512 512" xml:space="preserve">
<path fill="#F66290" d="M131.5,422.8L95.9,418l-15.4-32.5h0.1c-1.3-2.8-4.1-4.5-7.2-4.5c-3.2,0-5.8,1.8-7.2,4.5l7.2,3.4l0.3-0.1
	l-0.4,0.2l-7.2-3.4l-15.4,32.6l-35.5,4.7c-3,0.5-5.4,2.5-6.3,5.4c-0.9,2.9-0.2,6,1.9,8.1l25.9,24.7l-6.5,35.5h0.2
	c-0.6,3.1,0.6,6.1,3.2,7.8c2.5,1.8,5.7,2,8.4,0.6l31.4-17l31.4,17.1c2.7,1.5,6,1.3,8.4-0.6c2.5-1.8,3.7-4.9,3.2-7.9h0.1l-6.5-35.4
	l25.9-24.7l-5.4-5.7v-0.1l5.4,5.7c2.2-2.1,3.1-5.3,2-8.2C137,425.3,134.5,423.3,131.5,422.8z M95.7,453c-1.8,1.8-2.7,4.3-2.3,6.9
	h-0.1l4.3,23.3L77.1,472l0.1-0.2c-2.4-1.3-5.3-1.3-7.6,0l3.8,7l1.3-2.5l-1.3,2.6l-3.8-7l-20.7,11.3l4.3-23.2
	c0.5-2.6-0.4-5.4-2.3-7.2l-5.4,5.6h-0.1l5.4-5.7l-17.1-16.3l23.2-3.1v0.1c2.7-0.4,5-2,6.1-4.4l-7-3.4v-0.1l7.2,3.5l10-21.2l10,21.2
	l0.2-0.1c1.1,2.4,3.4,4,6.1,4.3l1.1-7.7l0,0l-1.1,8l23.4,3.1L95.7,453z"/>
<path fill="#F66290" d="M320.4,428.2c-0.9-2.8-3.3-4.9-6.2-5.3v-0.1l-35.7-4.8l-15.4-32.5h0c-1.3-2.8-4.1-4.5-7.2-4.5
	c-3.1,0-5.8,1.8-7.2,4.5l7.2,3.4l7.2-3.4l-7.3,3.5l-7.3-3.5L233.3,418l-35.4,4.7l1,7.9l-0.1,0.1l-1-7.9c-3.1,0.4-5.6,2.5-6.5,5.4
	c-0.9,2.9-0.2,6.1,2,8.2l1.6-1.6l-1.5,1.6l25.9,24.7l-6.5,35.5h0.1c-0.6,3.1,0.6,6,3.2,7.8c2.5,1.8,5.7,2,8.4,0.6l31.4-17.1
	l31.4,17.1l3.9-7l3.7-0.7l-3.6,0.7l-3.8,7c2.7,1.5,6,1.3,8.4-0.6c2.5-1.8,3.7-4.9,3.2-7.9h0.1l-6.5-35.3l26-24.8l-0.3,0
	C320.6,434.3,321.5,431.1,320.4,428.2z M278.4,452.8l5.3,5.6h-0.1l-5.4-5.6c-1.8,1.8-2.7,4.4-2.3,7v0.1c0,0.1,0,0.1,0,0.1l4.3,23.1
	L259.6,472l0.1-0.2c-2.4-1.3-5.3-1.3-7.6,0l3.8,7l1-1.8l-1,1.9l-3.8-7l-20.6,11.2l4.2-23.1v-0.1v-0.1c0.4-2.5-0.5-5.3-2.3-7
	l-5.4,5.6h-0.1l5.4-5.7l-17.1-16.4l23.4-3.1v0.1c2.7-0.4,5-2,6.1-4.4l10.1-21.3l10,21.3l0.2-0.1c1.1,2.4,3.4,4.1,6.1,4.4l1.1-7.8
	l-1.1,7.9l23.5,3.1L278.4,452.8z"/>
<path fill="#F66290" d="M445.8,385.5c-1.3-2.8-4.1-4.5-7.2-4.5c-3.2,0-5.8,1.8-7.2,4.5l7.2,3.4L445.8,385.5z"/>
<path fill="#F66290" d="M501.2,436.3c2.1-2.1,3-5.2,1.9-8.1c-0.9-2.9-3.4-4.9-6.4-5.4l-35.4-4.7l-15.4-32.6l-7.3,3.5l-7.3-3.5
	L416,418l-35.4,4.7v0.1c-3.1,0.4-5.5,2.5-6.4,5.4c-0.9,2.9-0.2,6.1,2,8.2l25.8,24.7l-6.5,35.5h0.2c-0.6,3.1,0.6,6.1,3.2,7.9
	c2.5,1.8,5.7,2,8.4,0.6l31.5-17.2l31.4,17.1c2.7,1.5,6,1.3,8.4-0.6c2.5-1.8,3.7-4.9,3.2-7.9h0.1l-6.5-35.4l25.9-24.7L501.2,436.3z
	 M403.4,498.1l-5.6-1.1L403.4,498.1L403.4,498.1z M461,452.8c-1.8,1.8-2.7,4.3-2.3,6.9h-0.1l4.3,23.3l-20.4-11.2l-3.8,7.2l-3.9-7.1
	l-20.6,11.3l4.3-23.4c0.4-2.5-0.5-5.2-2.3-6.9l-5.3,5.5l5.4-5.7L399,436.3l23.3-3.1v0.1c2.7-0.4,5-2,6.1-4.4l-7.1-3.5l7.1,3.4
	l10.1-21.4l10.1,21.4l7.1-3.4v0.1l-7.1,3.4c1.1,2.4,3.4,4.1,6.1,4.4v0.1l23.4,3.1L461,452.8z M495.9,430.6l1.7,1.9l-1.7-1.8V430.6z"
	/>
<path fill="#F66290" d="M434.8,471.8l3.8,7l3.8-7C440,470.5,437.1,470.5,434.8,471.8z"/>
<g>
	<path fill="#F66290" d="M134.6,309.6c3,2.5,7.2,2.4,10.2,0l-5.1-6.1L134.6,309.6z"/>
	<path fill="#F66290" d="M415.8,177.6C415.8,82.8,339,6,244.2,6V5.9c-94.8,0-171.7,76.8-171.7,171.7c0,53.1,24.2,100.6,62,132.1
		l5.2-6.2l5.1,6.1c13.3-11.2,29.2-18.6,43-24.6c6.9-3,13.2-5.5,18-7.8c2.5-1.2,4.9-2.5,6.8-3.7c1.7-1.1,4.4-3.2,5.7-6.4l-0.1,0
		c5.1-12.6,5.2-19.1,5.2-32.7h0c0,0,0,0,0,0c0,0,0-0.1,0-0.1h0c0-9.1-5.4-19.8-9.6-27.1c-2.2-3.9-4.5-7.4-6.2-9.9
		c-0.8-1.2-1.6-2.3-2-3c-0.3-0.4-0.5-0.6-0.6-0.8c-0.1-0.1-0.1-0.2-0.2-0.2c0,0,0-0.1-0.1-0.1c-0.8-1.1-1.9-1.9-3.2-2.5
		c0,0-0.1,0-0.1-0.1c-0.2-0.1-0.5-0.2-0.8-0.5c-0.9-0.6-1.8-1.1-3-2.2c-2.7-2.3-4.8-4.7-5.7-9.3l0.1,0c-0.6-2.3-0.3-5.2,0.6-8
		c0.5-1.4,0.8-2.2,1.4-3.1c0-0.1,0.1-0.1,0.1-0.1c2.7-2,3.7-5.5,2.7-8.8l-7.6,2.4l4.2,6.7c0,0,0,0,0,0l-4.2-6.7l0,0l7.6-2.4
		c-3.1-9.5-7.4-30.3-2.8-48.5c2.3-9.3,6.1-16.6,14.1-22.7c7.5-5.9,18.8-10.4,36.1-10.9l0-0.1c0.2,0,0.3,0.1,0.4,0.1l0-0.1
		c17.1,0.6,28.4,5,35.8,10.9c7.9,6,11.7,13.4,14,22.6c4.6,18.2,0.3,38.9-2.8,48.5l7.7,2.5l-4.3,6.8c0,0-0.1,0-0.1-0.1l4.2-6.6
		l-7.6-2.4c-1.1,3.2,0.2,6.9,2.9,8.9c0.6,0.8,0.9,1.7,1.4,3.1c0.9,2.8,1.2,5.7,0.6,8l15.5,3.8c1.3-5.7,0.5-12.4-0.9-16.7
		c-0.7-2.2-1.9-4.6-2.8-6.2c-0.1-0.2-0.2-0.3-0.3-0.5c3.3-12,6.9-33.2,1.9-53.1c-2.9-11-9.3-22.8-19.5-31.1
		c-10.7-8.5-25.5-13.7-45.1-14.4l0,0.1c-0.6,0-1.2,0-1.4,0l0.3,13.5l0,0.2l-0.5-13.6c-19.8,0.6-34.7,5.8-45.4,14.4
		c-10.3,8.2-16.7,20-19.6,31c-5.1,19.9-1.4,41.2,1.9,53.2c-0.1,0.1-0.1,0.2-0.2,0.3c-0.9,1.6-2,4-2.8,6.2
		c-1.4,4.4-2.2,10.9-0.9,16.6l-0.2,0c2.1,7.9,7,14.2,10.6,17.4c1.9,1.8,4,3.2,5.3,3.9c0.2,0.2,0.4,0.3,0.7,0.4
		c0.4,0.5,0.8,1.2,1.4,2c1.6,2.3,3.5,5.4,5.6,8.9c4.4,7.6,7.5,15,7.5,19.4c0,12.8,0,16.9-3.7,26c0,0-0.1,0.1-0.1,0.1
		c-1.1,0.7-2.4,1.5-4.6,2.5c-4.4,2.1-10.4,4.5-17.4,7.5c-12.4,5.3-28,12.7-41.8,22.9c-31.5-28.6-51.4-69.9-51.4-115.7
		c0-86,69.7-155.7,155.7-155.7v0c86,0,155.7,69.7,155.7,155.7h0.1c0,46-19.9,87.3-51.6,115.8c-13.7-10.1-29.2-17.3-41.5-22.7
		c-7-3.1-13.1-5.5-17.4-7.5c-2.1-1-3.5-1.8-4.6-2.5c-0.1-0.1-0.2-0.2-0.3-0.2c-3.7-9.1-3.7-13.2-3.7-26l-15.9-0.1
		c0,13.6,0,20.2,5.2,32.9l14.7-6c-0.1-0.1-0.1-0.2-0.2-0.4c0.1,0.1,0.2,0.3,0.3,0.5l-14.8,5.9c1.3,3.2,4,5.3,5.7,6.4
		c1.8,1.2,4.3,2.5,6.8,3.7c4.8,2.3,11.1,4.8,18,7.8c13.8,5.9,29.7,13.3,43,24.6l5.2-6.1l4.9,6c37.9-31.5,62.1-79,62.1-132.1H415.8z
		 M199.9,196.7l1.8-1.3C201.2,195.8,200.6,196.2,199.9,196.7z M202.2,195.1l1.2-0.9C203.1,194.4,202.7,194.7,202.2,195.1z"/>
	<path fill="#F66290" d="M288.4,215c2-3.5,4-6.6,5.6-8.9c0.5-0.8,1-1.5,1.5-2.1c0.1-0.1,0.3-0.1,0.4-0.2c1.3-0.7,3.3-2.2,5.3-3.9
		c3.6-3.2,8.4-9.5,10.6-17.4l-15.4-3.9c-0.9,4.6-3.1,7-5.7,9.4c-1.2,1-2,1.7-3,2.2c-0.4,0.2-0.6,0.4-0.8,0.5
		c-1.2,0.6-2.3,1.4-3.2,2.5c0,0,0,0-0.1,0.1c0,0.1-0.1,0.1-0.2,0.2c-0.1,0.2-0.4,0.5-0.6,0.8c-0.5,0.6-1.2,1.8-2,3
		c-1.7,2.4-4,6-6.2,9.9c-4.2,7.3-9.6,18.2-9.6,27.2h15.9C280.9,230,284.1,222.6,288.4,215z M288.5,196.7c-0.7-0.5-1.3-0.9-1.8-1.3
		L288.5,196.7z M286.2,195.1c-0.5-0.4-0.9-0.7-1.2-0.9L286.2,195.1z"/>
</g>
</svg>
