<?xml version="1.0" encoding="utf-8"?>
<!-- Generator: Adobe Illustrator 21.0.0, SVG Export Plug-In . SVG Version: 6.00 Build 0)  -->
<svg version="1.1" id="Layer_1" xmlns:figma="http://www.figma.com/figma/ns"
	 xmlns="http://www.w3.org/2000/svg" xmlns:xlink="http://www.w3.org/1999/xlink" x="0px" y="0px" width="512px" height="512px"
	 viewBox="0 0 512 512" enable-background="new 0 0 512 512" xml:space="preserve">
<g id="Layer_1_1_" figma:type="vector">
	<g transform="translate(2535 7049.92)">
		<path id="path0_fill" fill="#FFFFFF" d="M-2461.6-6661l17.2,36.4l39.8,5.3l-29.1,27.8l7.3,39.7l-35.2-19.2l-35.2,19.2l7.3-39.7
			l-29.1-27.8l39.8-5.3L-2461.6-6661z"/>
	</g>
	<g transform="translate(2535 7049.92)">
		<path id="path1_stroke" fill="#F66290" d="M-2461.6-6661l7.2-3.4c-1.3-2.8-4.1-4.5-7.2-4.5s-5.8,1.8-7.2,4.5L-2461.6-6661z
			 M-2444.4-6624.5l-7.2,3.4c1.1,2.4,3.4,4.1,6.1,4.4L-2444.4-6624.5z M-2404.6-6619.2l5.5,5.7c2.2-2.1,3.1-5.3,2-8.2
			c-0.9-2.9-3.5-5-6.5-5.4L-2404.6-6619.2z M-2433.6-6591.4l-5.5-5.7c-1.9,1.9-2.8,4.5-2.3,7.2L-2433.6-6591.4z M-2426.4-6551.8
			l-3.8,7c2.7,1.5,6,1.3,8.4-0.6c2.5-1.8,3.7-4.9,3.2-7.9L-2426.4-6551.8z M-2461.6-6571.1l3.8-7c-2.4-1.3-5.3-1.3-7.6,0
			L-2461.6-6571.1z M-2496.8-6551.8l-7.8-1.5c-0.6,3.1,0.6,6.1,3.2,7.9s5.7,2,8.4,0.6L-2496.8-6551.8z M-2489.6-6591.4l7.8,1.5
			c0.5-2.6-0.4-5.4-2.3-7.2L-2489.6-6591.4z M-2518.6-6619.2l-1-7.9c-3.1,0.4-5.6,2.5-6.5,5.4c-0.9,2.9-0.2,6.1,2,8.2
			L-2518.6-6619.2z M-2479-6624.5l1,7.9c2.7-0.4,5-2,6.1-4.4L-2479-6624.5z M-2468.9-6657.5l17.2,36.4l14.4-6.9l-17.2-36.4
			L-2468.9-6657.5z M-2445.4-6616.7l39.8,5.3l2.1-15.8l-39.8-5.3L-2445.4-6616.7z M-2410.1-6625l-29.1,27.8l11,11.5l29.1-27.8
			L-2410.1-6625z M-2441.5-6590.1l7.3,39.7l15.7-2.9l-7.3-39.7L-2441.5-6590.1z M-2422.6-6558.8l-35.2-19.2l-7.6,14l35.2,19.2
			L-2422.6-6558.8z M-2465.4-6578l-35.2,19.2l7.6,14l35.2-19.2L-2465.4-6578z M-2489.1-6550.4l7.3-39.7l-15.7-2.9l-7.3,39.7
			L-2489.1-6550.4z M-2484.1-6597.2l-29.1-27.8l-11,11.5l29.1,27.8L-2484.1-6597.2z M-2517.6-6611.4l39.8-5.3l-2.1-15.8l-39.8,5.3
			L-2517.6-6611.4z M-2471.7-6621.1l17.2-36.4l-14.4-6.9l-17.2,36.4L-2471.7-6621.1z"/>
	</g>
</g>
<g id="Layer_2" figma:type="vector">
	<g transform="translate(2550.54 7049.92)">
		<path id="path0_fill_1_" fill="#FFFFFF" d="M-2294.6-6661l17.2,36.4l39.8,5.3l-29.1,27.8l7.3,39.7l-35.2-19.2l-35.2,19.2l7.3-39.7
			l-29.1-27.8l39.8-5.3L-2294.6-6661z"/>
	</g>
	<g transform="translate(2550.54 7049.92)">
		<path id="path1_stroke_1_" fill="#F66290" d="M-2294.6-6661l7.2-3.4c-1.3-2.8-4.1-4.5-7.2-4.5c-3.2,0-5.8,1.8-7.2,4.5
			L-2294.6-6661z M-2277.3-6624.5l-7.2,3.4c1.1,2.4,3.4,4.1,6.1,4.4L-2277.3-6624.5z M-2237.6-6619.2l5.5,5.7c2.2-2.1,3.1-5.3,2-8.2
			c-0.9-2.9-3.5-5-6.5-5.4L-2237.6-6619.2z M-2266.6-6591.4l-5.5-5.7c-1.9,1.9-2.8,4.5-2.3,7.2L-2266.6-6591.4z M-2259.3-6551.8
			l-3.8,7c2.7,1.5,6,1.3,8.4-0.6c2.5-1.8,3.7-4.9,3.2-7.9L-2259.3-6551.8z M-2294.6-6571.1l3.8-7c-2.4-1.3-5.3-1.3-7.6,0
			L-2294.6-6571.1z M-2329.8-6551.8l-7.8-1.5c-0.6,3.1,0.6,6.1,3.2,7.9s5.7,2,8.4,0.6L-2329.8-6551.8z M-2322.5-6591.4l7.8,1.5
			c0.5-2.6-0.4-5.4-2.3-7.2L-2322.5-6591.4z M-2351.6-6619.2l-1-7.9c-3.1,0.4-5.6,2.5-6.5,5.4c-0.9,2.9-0.2,6.1,2,8.2
			L-2351.6-6619.2z M-2311.8-6624.5l1,7.9c2.7-0.4,5-2,6.1-4.4L-2311.8-6624.5z M-2301.8-6657.5l17.2,36.4l14.4-6.9l-17.2-36.4
			L-2301.8-6657.5z M-2278.3-6616.7l39.8,5.3l2.1-15.8l-39.8-5.3L-2278.3-6616.7z M-2243-6625l-29.1,27.8l11,11.5l29.1-27.8
			L-2243-6625z M-2274.4-6590.1l7.3,39.7l15.7-2.9l-7.3-39.7L-2274.4-6590.1z M-2255.5-6558.8l-35.2-19.2l-7.6,14l35.2,19.2
			L-2255.5-6558.8z M-2298.4-6578l-35.2,19.2l7.6,14l35.2-19.2L-2298.4-6578z M-2322-6550.4l7.3-39.7l-15.7-2.9l-7.3,39.7
			L-2322-6550.4z M-2317-6597.2l-29.1-27.8l-11,11.5l29.1,27.8L-2317-6597.2z M-2350.5-6611.4l39.8-5.3l-2.1-15.8l-39.8,5.3
			L-2350.5-6611.4z M-2304.7-6621.1l17.2-36.4l-14.4-6.9l-17.2,36.4L-2304.7-6621.1z"/>
	</g>
</g>
<g id="Layer_3" figma:type="vector">
	<g transform="translate(2566.08 7049.92)">
		<path id="path0_fill_2_" fill="#FFFFFF" d="M-2127.5-6661l17.2,36.4l39.8,5.3l-29.1,27.8l7.3,39.7l-35.2-19.2l-35.2,19.2l7.3-39.7
			l-29.1-27.8l39.8-5.3L-2127.5-6661z"/>
	</g>
	<g transform="translate(2566.08 7049.92)">
		<path id="path1_stroke_2_" fill="#F66290" d="M-2127.5-6661l7.2-3.4c-1.3-2.8-4.1-4.5-7.2-4.5s-5.8,1.8-7.2,4.5L-2127.5-6661z
			 M-2110.2-6624.5l-7.2,3.4c1.1,2.4,3.4,4.1,6.1,4.4L-2110.2-6624.5z M-2070.5-6619.2l5.5,5.7c2.2-2.1,3.1-5.3,2-8.2
			c-0.9-2.9-3.5-5-6.5-5.4L-2070.5-6619.2z M-2099.5-6591.4l-5.5-5.7c-1.9,1.9-2.8,4.5-2.3,7.2L-2099.5-6591.4z M-2092.3-6551.8
			l-3.8,7c2.7,1.5,6,1.3,8.4-0.6c2.5-1.8,3.7-4.9,3.2-7.9L-2092.3-6551.8z M-2127.5-6571.1l3.8-7c-2.4-1.3-5.3-1.3-7.6,0
			L-2127.5-6571.1z M-2162.7-6551.8l-7.8-1.5c-0.6,3.1,0.6,6.1,3.2,7.9s5.7,2,8.4,0.6L-2162.7-6551.8z M-2155.5-6591.4l7.8,1.5
			c0.5-2.6-0.4-5.4-2.3-7.2L-2155.5-6591.4z M-2184.5-6619.2l-1-7.9c-3.1,0.4-5.6,2.5-6.5,5.4s-0.2,6.1,2,8.2L-2184.5-6619.2z
			 M-2144.7-6624.5l1,7.9c2.7-0.4,5-2,6.1-4.4L-2144.7-6624.5z M-2134.6-6657.5l17.2,36.4l14.4-6.9l-17.2-36.4L-2134.6-6657.5z
			 M-2111.3-6616.7l39.8,5.3l2.1-15.8l-39.8-5.3L-2111.3-6616.7z M-2076-6625l-29.1,27.8l11,11.5l29.1-27.8L-2076-6625z
			 M-2107.4-6590.1l7.3,39.7l15.7-2.9l-7.3-39.7L-2107.4-6590.1z M-2088.4-6558.8l-35.2-19.2l-7.6,14l35.2,19.2L-2088.4-6558.8z
			 M-2131.3-6578l-35.2,19.2l7.6,14l35.2-19.2L-2131.3-6578z M-2154.9-6550.4l7.3-39.7l-15.7-2.9l-7.3,39.7L-2154.9-6550.4z
			 M-2149.9-6597.2l-29.1-27.8l-11,11.5l29.1,27.8L-2149.9-6597.2z M-2183.5-6611.4l39.8-5.3l-2.1-15.8l-39.8,5.3L-2183.5-6611.4z
			 M-2137.6-6621.1l17.2-36.4l-14.4-6.9l-17.2,36.4L-2137.6-6621.1z"/>
	</g>
</g>
<g id="Layer_4" figma:type="vector">
	<g transform="translate(2540.46 7018)">
		<path id="path3_stroke" fill="#F66290" d="M-2400.8-6714.5l-5.1,6.1c3,2.5,7.2,2.4,10.2,0L-2400.8-6714.5z M-2329.7-6753.8
			l7.3,3.1L-2329.7-6753.8z M-2342.2-6820.1l6.4-4.7c-0.8-1.1-1.9-1.9-3.2-2.5L-2342.2-6820.1z M-2356.2-6837.6l7.7-1.9
			L-2356.2-6837.6z M-2351.3-6857l4.3,6.8c3.1-1.9,4.4-5.7,3.3-9.2L-2351.3-6857z M-2296.6-6949.5l-0.3-8l0,0L-2296.6-6949.5z
			 M-2295.6-6949.5l-1.1,7.9c0.3,0,0.6,0.1,0.8,0.1L-2295.6-6949.5z M-2241.4-6857l-7.6-2.4c-1.1,3.4,0.3,7.2,3.3,9.2L-2241.4-6857z
			 M-2236.4-6837.5l-7.7-1.9L-2236.4-6837.5z M-2250.4-6820.1l-3.2-7.2c-1.2,0.6-2.3,1.4-3.2,2.5L-2250.4-6820.1z M-2263-6753.8
			l-7.3,3.1L-2263-6753.8z M-2186.7-6708.3c37.9-31.5,62.1-79,62.1-132.1h-15.9c0,48.2-21.9,91.3-56.3,119.8L-2186.7-6708.3z
			 M-2124.7-6840.4c0-94.8-76.8-171.6-171.6-171.6v15.9c86,0,155.7,69.7,155.7,155.7H-2124.7z M-2296.3-7012.1
			c-94.8,0-171.6,76.8-171.6,171.6h15.9c0-86,69.7-155.7,155.7-155.7V-7012.1z M-2468-6840.4c0,53.1,24.2,100.6,62,132.1l10.2-12.2
			c-34.4-28.5-56.3-71.6-56.3-119.8H-2468z M-2395.7-6708.4c13.3-11.2,29.2-18.6,43-24.6c6.9-3,13.2-5.5,18-7.8
			c2.5-1.2,4.9-2.5,6.8-3.7c1.7-1.1,4.4-3.2,5.7-6.4l-14.7-6c0.6-1.4,1.3-1.6,0.1-0.7c-1.1,0.7-2.4,1.5-4.6,2.5
			c-4.4,2.1-10.4,4.5-17.4,7.5c-14,6-32.1,14.6-47,27L-2395.7-6708.4z M-2322.3-6750.8c5.2-12.7,5.2-19.2,5.2-32.9h-15.9
			c0,13.2,0,17.1-4,26.8L-2322.3-6750.8z M-2317.1-6783.6c0-9.1-5.4-19.9-9.6-27.2c-2.2-3.9-4.5-7.4-6.2-9.9c-0.8-1.2-1.6-2.3-2-3
			c-0.3-0.4-0.5-0.6-0.6-0.8c-0.1-0.1-0.1-0.2-0.2-0.2c0,0,0-0.1-0.1-0.1l0,0l0,0l0,0c0,0,0,0-6.4,4.7s-6.4,4.7-6.4,4.7l0,0l0,0l0,0
			l0,0c0,0,0.1,0.1,0.1,0.2c0.1,0.2,0.3,0.4,0.5,0.6c0.5,0.6,1,1.5,1.9,2.6c1.6,2.3,3.5,5.4,5.6,8.9c4.4,7.6,7.5,15,7.5,19.4
			L-2317.1-6783.6L-2317.1-6783.6z M-2342.2-6820.1c3.2-7.2,3.2-7.2,3.2-7.2l0,0l0,0l0,0l0,0l0,0c0,0-0.1,0-0.1-0.1
			c-0.2-0.1-0.5-0.2-0.8-0.5c-0.9-0.6-1.8-1.1-3-2.2c-2.7-2.3-4.8-4.7-5.7-9.4l-15.5,3.8c2.1,7.9,7,14.2,10.6,17.4
			c1.9,1.8,4,3.2,5.3,3.9c0.7,0.5,1.4,0.8,1.8,1c0.2,0.1,0.5,0.2,0.6,0.3c0.1,0,0.2,0.1,0.2,0.1h0.1l0,0l0,0l0,0
			C-2345.4-6812.9-2345.4-6812.9-2342.2-6820.1z M-2348.5-6839.4c-0.6-2.3-0.3-5.2,0.6-8c0.5-1.4,0.8-2.2,1.4-3.1
			c0.6-1,0.6-0.5-0.6,0.2l-8.4-13.4c-2.3,1.4-3.8,3.7-4.7,5.2c-0.9,1.6-2,4-2.8,6.2c-1.4,4.4-2.2,11-0.9,16.7L-2348.5-6839.4z
			 M-2343.7-6859.4c-3.1-9.5-7.4-30.3-2.8-48.5c2.3-9.3,6.1-16.6,14.1-22.7c7.5-5.9,18.8-10.4,36.1-10.9l-0.6-15.9
			c-19.8,0.6-34.7,5.8-45.4,14.4c-10.3,8.3-16.7,20.1-19.6,31.1c-5.7,22.4-0.4,46.6,3.1,57.3L-2343.7-6859.4z M-2296.3-6941.6
			c0.1,0,0.1,0,0.2,0l0,0c-0.1,0-0.3,0-0.6,0l2.3-15.8c-1-0.1-2-0.1-2.3-0.1L-2296.3-6941.6z M-2295.9-6941.6
			c17.1,0.6,28.4,5,35.8,10.9c7.9,6,11.7,13.4,14,22.6c4.6,18.2,0.3,38.9-2.8,48.5l15.1,4.8c3.4-10.7,8.8-34.8,3.1-57.3
			c-2.9-11-9.3-22.8-19.5-31.1c-10.7-8.5-25.5-13.7-45.1-14.4L-2295.9-6941.6z M-2245.5-6850.3c-1.1-0.6-1.1-1.2-0.6-0.2
			c0.6,0.8,0.9,1.7,1.4,3.1c0.9,2.8,1.2,5.7,0.6,8l15.5,3.8c1.3-5.7,0.5-12.4-0.9-16.7c-0.7-2.2-1.9-4.6-2.8-6.2
			c-0.8-1.5-2.4-3.8-4.7-5.2L-2245.5-6850.3z M-2244.1-6839.4c-0.9,4.6-3.1,7-5.7,9.4c-1.2,1-2,1.7-3,2.2c-0.4,0.2-0.6,0.4-0.8,0.5
			c-0.1,0-0.1,0.1-0.1,0.1l0,0l0,0l0,0l0,0l0,0c0,0,0,0,3.2,7.2s3.2,7.2,3.2,7.2l0,0l0,0l0,0h0.1c0,0,0.1-0.1,0.2-0.1
			c0.1-0.1,0.4-0.2,0.6-0.3c0.4-0.2,1-0.6,1.8-1c1.3-0.7,3.3-2.2,5.3-3.9c3.6-3.2,8.4-9.5,10.6-17.4L-2244.1-6839.4z
			 M-2250.4-6820.1c-6.4-4.7-6.4-4.7-6.4-4.7l0,0l0,0l0,0c0,0,0,0-0.1,0.1c0,0.1-0.1,0.1-0.2,0.2c-0.1,0.2-0.4,0.5-0.6,0.8
			c-0.5,0.6-1.2,1.8-2,3c-1.7,2.4-4,6-6.2,9.9c-4.2,7.3-9.6,18.2-9.6,27.2h15.9c0-4.4,3.2-11.8,7.5-19.4c2-3.5,4-6.6,5.6-8.9
			c0.7-1.1,1.4-2,1.9-2.6c0.2-0.3,0.4-0.6,0.5-0.6s0.1-0.1,0.1-0.2l0,0l0,0l0,0l0,0C-2244.1-6815.4-2244.1-6815.4-2250.4-6820.1z
			 M-2275.5-6783.6c0,13.6,0,20.2,5.2,32.9l14.7-6c-4-9.7-4-13.6-4-26.8L-2275.5-6783.6L-2275.5-6783.6z M-2270.3-6750.7
			c1.3,3.2,4,5.3,5.7,6.4c1.8,1.2,4.3,2.5,6.8,3.7c4.8,2.3,11.1,4.8,18,7.8c13.8,5.9,29.7,13.3,43,24.6l10.2-12.1
			c-14.9-12.4-33-20.9-47-27c-7-3.1-13.1-5.5-17.4-7.5c-2.1-1-3.5-1.8-4.6-2.5c-1.2-0.8-0.5-0.6,0.1,0.7L-2270.3-6750.7z"/>
	</g>
</g>
</svg>
