<?xml version="1.0" encoding="utf-8"?>
<!-- Generator: Adobe Illustrator 21.0.0, SVG Export Plug-In . SVG Version: 6.00 Build 0)  -->
<svg version="1.1" id="Layer_1" xmlns:figma="http://www.figma.com/figma/ns"
	 xmlns="http://www.w3.org/2000/svg" xmlns:xlink="http://www.w3.org/1999/xlink" x="0px" y="0px" viewBox="0 0 512 512"
	 style="enable-background:new 0 0 512 512;" xml:space="preserve">
<style type="text/css">
	.st0{fill:#FFFFFF;}
	.st1{fill:#F66290;}
	.st2{fill:#FEEEF3;}
</style>
<title>25-web-seo-internet-user-rating</title>
<desc>Created using Figma</desc>
<g id="Canvas" transform="translate(-2534 -7017)" figma:type="canvas">
	<g id="_x32_5-web-seo-internet-user-rating" figma:type="frame">
		<g id="Layer_1_1_" figma:type="vector">
			<g transform="translate(2535 7049.92)">
				<path id="path0_fill" class="st0" d="M72.4,356l17.2,36.4l39.8,5.3l-29.1,27.8l7.3,39.7L72.4,446l-35.2,19.2l7.3-39.7
					l-29.1-27.8l39.8-5.3L72.4,356z"/>
			</g>
			<g transform="translate(2535 7049.92)">
				<path id="path1_stroke" class="st1" d="M72.4,356l7.2-3.4c-1.3-2.8-4.1-4.5-7.2-4.5c-3.2,0-5.8,1.8-7.2,4.5L72.4,356z
					 M89.6,392.5l-7.2,3.4c1.1,2.4,3.4,4.1,6.1,4.4L89.6,392.5z M129.4,397.8l5.5,5.7c2.2-2.1,3.1-5.3,2-8.2c-0.9-2.9-3.5-5-6.5-5.4
					L129.4,397.8z M100.4,425.6l-5.5-5.7c-1.9,1.9-2.8,4.5-2.3,7.2L100.4,425.6z M107.6,465.2l-3.8,7c2.7,1.5,6,1.3,8.4-0.6
					c2.5-1.8,3.7-4.9,3.2-7.9L107.6,465.2z M72.4,445.9l3.8-7c-2.4-1.3-5.3-1.3-7.6,0L72.4,445.9z M37.2,465.2l-7.8-1.5
					c-0.6,3.1,0.6,6.1,3.2,7.9c2.5,1.8,5.7,2,8.4,0.6L37.2,465.2z M44.4,425.6l7.8,1.5c0.5-2.6-0.4-5.4-2.3-7.2L44.4,425.6z
					 M15.4,397.8l-1-7.9c-3.1,0.4-5.6,2.5-6.5,5.4c-0.9,2.9-0.2,6.1,2,8.2L15.4,397.8z M55,392.5l1,7.9c2.7-0.4,5-2,6.1-4.4
					L55,392.5z M65.1,359.5l17.2,36.4l14.4-6.9l-17.2-36.4L65.1,359.5z M88.6,400.3l39.8,5.3l2.1-15.8l-39.8-5.3L88.6,400.3z
					 M123.9,392l-29.1,27.8l11,11.5l29.1-27.8L123.9,392z M92.5,426.9l7.3,39.7l15.7-2.9l-7.3-39.7L92.5,426.9z M111.4,458.2
					L76.2,439l-7.6,14l35.2,19.2L111.4,458.2z M68.6,439l-35.2,19.2l7.6,14L76.2,453L68.6,439z M44.9,466.6l7.3-39.7l-15.7-2.9
					l-7.3,39.7L44.9,466.6z M49.9,419.8L20.8,392l-11,11.5l29.1,27.8L49.9,419.8z M16.4,405.6l39.8-5.3L54,384.6l-39.8,5.3
					L16.4,405.6z M62.3,395.9l17.2-36.4l-14.4-6.9L47.9,389L62.3,395.9z"/>
			</g>
		</g>
		<g id="Layer_2" figma:type="vector">
			<g transform="translate(2550.54 7049.92)">
				<path id="path0_fill_1_" class="st0" d="M239.4,356l17.2,36.4l39.8,5.3l-29.1,27.8l7.3,39.7L239.4,446l-35.2,19.2l7.3-39.7
					l-29.1-27.8l39.8-5.3L239.4,356z"/>
			</g>
			<g transform="translate(2550.54 7049.92)">
				<path id="path1_stroke_1_" class="st1" d="M239.4,356l7.2-3.4c-1.3-2.8-4.1-4.5-7.2-4.5s-5.8,1.8-7.2,4.5L239.4,356z
					 M256.7,392.5l-7.2,3.4c1.1,2.4,3.4,4.1,6.1,4.4L256.7,392.5z M296.4,397.8l5.5,5.7c2.2-2.1,3.1-5.3,2-8.2
					c-0.9-2.9-3.5-5-6.5-5.4L296.4,397.8z M267.4,425.6l-5.5-5.7c-1.9,1.9-2.8,4.5-2.3,7.2L267.4,425.6z M274.7,465.2l-3.8,7
					c2.7,1.5,6,1.3,8.4-0.6c2.5-1.8,3.7-4.9,3.2-7.9L274.7,465.2z M239.4,445.9l3.8-7c-2.4-1.3-5.3-1.3-7.6,0L239.4,445.9z
					 M204.2,465.2l-7.8-1.5c-0.6,3.1,0.6,6.1,3.2,7.9c2.5,1.8,5.7,2,8.4,0.6L204.2,465.2z M211.5,425.6l7.8,1.5
					c0.5-2.6-0.4-5.4-2.3-7.2L211.5,425.6z M182.4,397.8l-1-7.9c-3.1,0.4-5.6,2.5-6.5,5.4c-0.9,2.9-0.2,6.1,2,8.2L182.4,397.8z
					 M222.2,392.5l1,7.9c2.7-0.4,5-2,6.1-4.4L222.2,392.5z M232.2,359.5l17.2,36.4l14.4-6.9l-17.2-36.4L232.2,359.5z M255.7,400.3
					l39.8,5.3l2.1-15.8l-39.8-5.3L255.7,400.3z M291,392l-29.1,27.8l11,11.5l29.1-27.8L291,392z M259.6,426.9l7.3,39.7l15.7-2.9
					l-7.3-39.7L259.6,426.9z M278.5,458.2L243.2,439l-7.6,14l35.2,19.2L278.5,458.2z M235.6,439l-35.2,19.2l7.6,14l35.2-19.2
					L235.6,439z M212,466.6l7.3-39.7l-15.7-2.9l-7.3,39.7L212,466.6z M217,419.8L187.9,392l-11,11.5l29.1,27.8L217,419.8z
					 M183.5,405.6l39.8-5.3l-2.1-15.8l-39.8,5.3L183.5,405.6z M229.3,395.9l17.2-36.4l-14.4-6.9L215,389L229.3,395.9z"/>
			</g>
		</g>
		<g id="Layer_3" figma:type="vector">
			<g transform="translate(2566.08 7049.92)">
				<path id="path0_fill_2_" class="st0" d="M406.5,356l17.2,36.4l39.8,5.3l-29.1,27.8l7.3,39.7L406.5,446l-35.2,19.2l7.3-39.7
					l-29.1-27.8l39.8-5.3L406.5,356z"/>
			</g>
			<g transform="translate(2566.08 7049.92)">
				<path id="path1_stroke_2_" class="st1" d="M406.5,356l7.2-3.4c-1.3-2.8-4.1-4.5-7.2-4.5c-3.2,0-5.8,1.8-7.2,4.5L406.5,356z
					 M423.8,392.5l-7.2,3.4c1.1,2.4,3.4,4.1,6.1,4.4L423.8,392.5z M463.5,397.8l5.5,5.7c2.2-2.1,3.1-5.3,2-8.2
					c-0.9-2.9-3.5-5-6.5-5.4L463.5,397.8z M434.5,425.6l-5.5-5.7c-1.9,1.9-2.8,4.5-2.3,7.2L434.5,425.6z M441.7,465.2l-3.8,7
					c2.7,1.5,6,1.3,8.4-0.6c2.5-1.8,3.7-4.9,3.2-7.9L441.7,465.2z M406.5,445.9l3.8-7c-2.4-1.3-5.3-1.3-7.6,0L406.5,445.9z
					 M371.3,465.2l-7.8-1.5c-0.6,3.1,0.6,6.1,3.2,7.9c2.5,1.8,5.7,2,8.4,0.6L371.3,465.2z M378.5,425.6l7.8,1.5
					c0.5-2.6-0.4-5.4-2.3-7.2L378.5,425.6z M349.5,397.8l-1-7.9c-3.1,0.4-5.6,2.5-6.5,5.4c-0.9,2.9-0.2,6.1,2,8.2L349.5,397.8z
					 M389.3,392.5l1,7.9c2.7-0.4,5-2,6.1-4.4L389.3,392.5z M399.4,359.5l17.2,36.4L431,389l-17.2-36.4L399.4,359.5z M422.7,400.3
					l39.8,5.3l2.1-15.8l-39.8-5.3L422.7,400.3z M458,392l-29.1,27.8l11,11.5l29.1-27.8L458,392z M426.6,426.9l7.3,39.7l15.7-2.9
					l-7.3-39.7L426.6,426.9z M445.6,458.2L410.4,439l-7.6,14l35.2,19.2L445.6,458.2z M402.7,439l-35.2,19.2l7.6,14l35.2-19.2
					L402.7,439z M379.1,466.6l7.3-39.7l-15.7-2.9l-7.3,39.7L379.1,466.6z M384.1,419.8L355,392l-11,11.5l29.1,27.8L384.1,419.8z
					 M350.5,405.6l39.8-5.3l-2.1-15.8l-39.8,5.3L350.5,405.6z M396.4,395.9l17.2-36.4l-14.4-6.9L382,389L396.4,395.9z"/>
			</g>
		</g>
		<g id="Layer_4" figma:type="vector">
			<g transform="translate(2540.46 7018)">
				<path id="path2_fill" class="st2" d="M342.2,302.6c36.1-30,59.2-75.3,59.2-125.9C401.4,86.3,328.1,13,237.8,13
					S74.1,86.3,74.1,176.6c0,50.7,23,95.9,59.1,125.9c28.1-23.6,68.1-32,71.2-39.3c4.6-11.2,4.6-16.4,4.6-29.8s-17.1-36.5-17.1-36.5
					s-10.9-4.9-14-17.4c-2-8.4,2.5-18,4.9-19.6c-6.5-20.2-19.5-89.9,54.7-92.5c0.3,0,0.6,0,1,0c73.7,2.5,60.7,72.2,54.2,92.4
					c2.4,1.5,7,11.1,4.9,19.6c-3.1,12.5-14,17.4-14,17.4s-17.1,23.1-17.1,36.5s0,18.6,4.6,29.8C274.1,270.6,314,279,342.2,302.6z"/>
			</g>
			<g transform="translate(2540.46 7018)">
				<path id="path3_stroke" class="st1" d="M133.2,302.5l-5.1,6.1c3,2.5,7.2,2.4,10.2,0L133.2,302.5z M204.3,263.2l7.3,3.1
					L204.3,263.2z M191.8,196.9l6.4-4.7c-0.8-1.1-1.9-1.9-3.2-2.5L191.8,196.9z M177.8,179.4l7.7-1.9L177.8,179.4z M182.7,160
					l4.3,6.8c3.1-1.9,4.4-5.7,3.3-9.2L182.7,160z M237.4,67.5l-0.3-8l0,0L237.4,67.5z M238.4,67.5l-1.1,7.9c0.3,0,0.6,0.1,0.8,0.1
					L238.4,67.5z M292.6,160l-7.6-2.4c-1.1,3.4,0.3,7.2,3.3,9.2L292.6,160z M297.6,179.5l-7.7-1.9L297.6,179.5z M283.6,196.9
					l-3.2-7.2c-1.2,0.6-2.3,1.4-3.2,2.5L283.6,196.9z M271,263.2l-7.3,3.1L271,263.2z M347.3,308.7c37.9-31.5,62.1-79,62.1-132.1
					h-15.9c0,48.2-21.9,91.3-56.3,119.8L347.3,308.7z M409.3,176.6c0-94.8-76.8-171.6-171.6-171.6v15.9c86,0,155.7,69.7,155.7,155.7
					H409.3z M237.7,4.9C142.9,4.9,66,81.7,66,176.6H82c0-86,69.7-155.7,155.7-155.7V4.9z M66,176.6c0,53.1,24.2,100.6,62,132.1
					l10.2-12.2C103.9,267.8,82,224.7,82,176.6H66z M138.3,308.6c13.3-11.2,29.2-18.6,43-24.6c6.9-3,13.2-5.5,18-7.8
					c2.5-1.2,4.9-2.5,6.8-3.7c1.7-1.1,4.4-3.2,5.7-6.4l-14.7-6c0.6-1.4,1.3-1.6,0.1-0.7c-1.1,0.7-2.4,1.5-4.6,2.5
					c-4.4,2.1-10.4,4.5-17.4,7.5c-14,6-32.1,14.6-47,27L138.3,308.6z M211.7,266.2c5.2-12.7,5.2-19.2,5.2-32.9H201
					c0,13.2,0,17.1-4,26.8L211.7,266.2z M216.9,233.4c0-9.1-5.4-19.9-9.6-27.2c-2.2-3.9-4.5-7.4-6.2-9.9c-0.8-1.2-1.6-2.3-2-3
					c-0.3-0.4-0.5-0.6-0.6-0.8c-0.1-0.1-0.1-0.2-0.2-0.2c0,0,0-0.1-0.1-0.1l0,0l0,0l0,0c0,0,0,0-6.4,4.7c-6.4,4.7-6.4,4.7-6.4,4.7
					l0,0l0,0l0,0l0,0c0,0,0.1,0.1,0.1,0.2c0.1,0.2,0.3,0.4,0.5,0.6c0.5,0.6,1,1.5,1.9,2.6c1.6,2.3,3.5,5.4,5.6,8.9
					c4.4,7.6,7.5,15,7.5,19.4L216.9,233.4L216.9,233.4z M191.8,196.9c3.2-7.2,3.2-7.2,3.2-7.2l0,0l0,0l0,0l0,0l0,0
					c0,0-0.1,0-0.1-0.1c-0.2-0.1-0.5-0.2-0.8-0.5c-0.9-0.6-1.8-1.1-3-2.2c-2.7-2.3-4.8-4.7-5.7-9.4l-15.5,3.8
					c2.1,7.9,7,14.2,10.6,17.4c1.9,1.8,4,3.2,5.3,3.9c0.7,0.5,1.4,0.8,1.8,1c0.2,0.1,0.5,0.2,0.6,0.3c0.1,0,0.2,0.1,0.2,0.1h0.1l0,0
					l0,0l0,0C188.6,204.1,188.6,204.1,191.8,196.9z M185.5,177.6c-0.6-2.3-0.3-5.2,0.6-8c0.5-1.4,0.8-2.2,1.4-3.1
					c0.6-1,0.6-0.5-0.6,0.2l-8.4-13.4c-2.3,1.4-3.8,3.7-4.7,5.2c-0.9,1.6-2,4-2.8,6.2c-1.4,4.4-2.2,11-0.9,16.7L185.5,177.6z
					 M190.3,157.6c-3.1-9.5-7.4-30.3-2.8-48.5c2.3-9.3,6.1-16.6,14.1-22.7c7.5-5.9,18.8-10.4,36.1-10.9l-0.6-15.9
					c-19.8,0.6-34.7,5.8-45.4,14.4C181.4,82.2,175,94,172.1,105c-5.7,22.4-0.4,46.6,3.1,57.3L190.3,157.6z M237.7,75.4
					c0.1,0,0.1,0,0.2,0l0,0c-0.1,0-0.3,0-0.6,0l2.3-15.8c-1-0.1-2-0.1-2.3-0.1L237.7,75.4z M238.1,75.4c17.1,0.6,28.4,5,35.8,10.9
					c7.9,6,11.7,13.4,14,22.6c4.6,18.2,0.3,38.9-2.8,48.5l15.1,4.8c3.4-10.7,8.8-34.8,3.1-57.3c-2.9-11-9.3-22.8-19.5-31.1
					c-10.7-8.5-25.5-13.7-45.1-14.4L238.1,75.4z M288.5,166.7c-1.1-0.6-1.1-1.2-0.6-0.2c0.6,0.8,0.9,1.7,1.4,3.1
					c0.9,2.8,1.2,5.7,0.6,8l15.5,3.8c1.3-5.7,0.5-12.4-0.9-16.7c-0.7-2.2-1.9-4.6-2.8-6.2c-0.8-1.5-2.4-3.8-4.7-5.2L288.5,166.7z
					 M289.9,177.6c-0.9,4.6-3.1,7-5.7,9.4c-1.2,1-2,1.7-3,2.2c-0.4,0.2-0.6,0.4-0.8,0.5c-0.1,0-0.1,0.1-0.1,0.1l0,0l0,0l0,0l0,0l0,0
					c0,0,0,0,3.2,7.2c3.2,7.2,3.2,7.2,3.2,7.2l0,0l0,0l0,0h0.1c0,0,0.1-0.1,0.2-0.1c0.1-0.1,0.4-0.2,0.6-0.3c0.4-0.2,1-0.6,1.8-1
					c1.3-0.7,3.3-2.2,5.3-3.9c3.6-3.2,8.4-9.5,10.6-17.4L289.9,177.6z M283.6,196.9c-6.4-4.7-6.4-4.7-6.4-4.7l0,0l0,0l0,0
					c0,0,0,0-0.1,0.1c0,0.1-0.1,0.1-0.2,0.2c-0.1,0.2-0.4,0.5-0.6,0.8c-0.5,0.6-1.2,1.8-2,3c-1.7,2.4-4,6-6.2,9.9
					c-4.2,7.3-9.6,18.2-9.6,27.2h15.9c0-4.4,3.2-11.8,7.5-19.4c2-3.5,4-6.6,5.6-8.9c0.7-1.1,1.4-2,1.9-2.6c0.2-0.3,0.4-0.6,0.5-0.6
					c0.1-0.1,0.1-0.1,0.1-0.2l0,0l0,0l0,0l0,0C289.9,201.6,289.9,201.6,283.6,196.9z M258.5,233.4c0,13.6,0,20.2,5.2,32.9l14.7-6
					c-4-9.7-4-13.6-4-26.8L258.5,233.4L258.5,233.4z M263.7,266.3c1.3,3.2,4,5.3,5.7,6.4c1.8,1.2,4.3,2.5,6.8,3.7
					c4.8,2.3,11.1,4.8,18,7.8c13.8,5.9,29.7,13.3,43,24.6l10.2-12.1c-14.9-12.4-33-20.9-47-27c-7-3.1-13.1-5.5-17.4-7.5
					c-2.1-1-3.5-1.8-4.6-2.5c-1.2-0.8-0.5-0.6,0.1,0.7L263.7,266.3z"/>
			</g>
		</g>
	</g>
</g>
</svg>
