<?xml version="1.0" encoding="utf-8"?>
<!-- Generator: Adobe Illustrator 21.0.0, SVG Export Plug-In . SVG Version: 6.00 Build 0)  -->
<svg version="1.1" id="Layer_1" xmlns:figma="http://www.figma.com/figma/ns"
	 xmlns="http://www.w3.org/2000/svg" xmlns:xlink="http://www.w3.org/1999/xlink" x="0px" y="0px" width="512px" height="512px"
	 viewBox="0 0 512 512" enable-background="new 0 0 512 512" xml:space="preserve">
<title>Group 10</title>
<desc>Created using Figma</desc>
<path fill="#F66290" d="M469.3,160.2v-8.6h-97.2v0c-1.5,0-2.9,0.4-4.1,1.1c-1.2-0.7-2.6-1.1-4.1-1.1v0h-97.2v0
	c-1.5,0-2.9,0.4-4.1,1.1c-1.2-0.7-2.6-1.1-4.1-1.1v0h-97.2v0c-1.5,0-2.9,0.4-4.1,1.1c-1.2-0.7-2.6-1.1-4.1-1.1v6.4
	c0,0.1-0.1,0.3-0.1,0.4v-6.7H55.6v0c-4.7,0-8.6,3.8-8.6,8.6h0.1v97.2H47c0,1.5,0.4,2.9,1.1,4.1c-0.7,1.2-1.1,2.6-1.1,4.1h0.1v97.2
	H47c0,1.5,0.4,2.9,1.1,4.1c-0.7,1.2-1.1,2.6-1.1,4.1h6.4c0.1,0,0.3,0.1,0.4,0.1h-6.6v97.2H47c0,4.7,3.8,8.6,8.6,8.6v-8.6h0.1v8.5
	h97.2v0.1c1.5,0,2.9-0.4,4.1-1.1c1.2,0.7,2.6,1.1,4.1,1.1v-0.1h97.2v0.1c1.5,0,2.9-0.4,4.1-1.1c1.2,0.7,2.6,1.1,4.1,1.1v-0.1h97.2
	v0.1c1.5,0,2.9-0.4,4.1-1.1c1.2,0.7,2.6,1.1,4.1,1.1v-6.4c0-0.1,0.1-0.3,0.1-0.4v6.6h97.2v0.1c4.7,0,8.6-3.8,8.6-8.6h-8.6v-0.1h8.5
	v-97.2h0.1c0-1.5-0.4-2.9-1.1-4.1c0.7-1.2,1.1-2.6,1.1-4.1h-0.1v-97.2h0.1c0-1.5-0.4-2.9-1.1-4.1c0.7-1.2,1.1-2.6,1.1-4.1h-0.1
	v-97.2h0.1c0-4.7-3.8-8.6-8.6-8.6 M380.7,168.6h80.2v80.2h-80.2V168.6z M380.7,274.2h80.2v80.2h-80.2V274.2z M275.2,168.6h80.2v80.2
	h-80.2V168.6z M275.2,274.2h80.2v80.2h-80.2V274.2z M64.1,354.4v-80.2h80.2v80.2H64.1z M169.6,168.6h80.2v80.2h-80.2V168.6z
	 M169.6,274.2h80.2v80.2h-80.2V274.2z M64.1,168.6h80.2v80.2H64.1V168.6z M144.4,459.9H64.1v-80.2h80.2V459.9z M249.8,459.9h-80.2
	v-80.2h80.2V459.9z M355.4,459.9h-80.2v-80.2h80.2V459.9z M460.9,459.9h-80.2v-80.2h80.2V459.9z"/>
<path fill="#F66290" d="M484.5,4.4h-53.8h-48.7H167h-48.7H27.5C14.7,4.4,4.4,14.7,4.4,27.5v457.1c0,12.8,10.3,23.1,23.1,23.1h457.1
	c12.8,0,23.1-10.3,23.1-23.1V27.5C507.6,14.7,497.3,4.4,484.5,4.4z M422.2,21.4v15.8c0,8.7-7.1,15.8-15.8,15.8
	c-8.7,0-15.8-7.1-15.8-15.8h0V21.4H422.2z M158.5,21.4v15.8c0,8.7-7.1,15.8-15.8,15.8c-8.7,0-15.8-7.1-15.8-15.8h0.1V21.4H158.5z
	 M490.6,484.5c0,3.3-2.8,6.1-6.1,6.1H27.5c-3.3,0-6.1-2.8-6.1-6.1V27.5c0-3.3,2.8-6.1,6.1-6.1h82.5v15.8h-0.1
	c0,18.1,14.6,32.8,32.8,32.8c18.1,0,32.8-14.6,32.8-32.8h0V21.4h198.2v15.8h0c0,18.1,14.6,32.8,32.7,32.8v0c0,0,0,0,0,0c0,0,0,0,0,0
	v0c18-0.1,32.7-14.7,32.7-32.8h0V21.4h45.3c3.3,0,6.1,2.8,6.1,6.1V484.5z"/>
</svg>
