<?xml version="1.0" encoding="utf-8"?>
<!-- Generator: Adobe Illustrator 21.0.0, SVG Export Plug-In . SVG Version: 6.00 Build 0)  -->
<svg version="1.1" id="Layer_1" xmlns:figma="http://www.figma.com/figma/ns"
	 xmlns="http://www.w3.org/2000/svg" xmlns:xlink="http://www.w3.org/1999/xlink" x="0px" y="0px" viewBox="0 0 512 512"
	 style="enable-background:new 0 0 512 512;" xml:space="preserve">
<style type="text/css">
	.st0{fill:#FEEEF3;}
	.st1{fill:#F66290;}
	.st2{fill:#FFFFFF;}
</style>
<title>Group 10</title>
<desc>Created using Figma</desc>
<g id="Canvas" transform="translate(-2941 -7455)" figma:type="canvas">
	<g id="Group_10" figma:type="frame">
		<g id="Layer_1_1_" figma:type="vector">
			<g transform="translate(2942 7456)">
				<path id="path0_fill" class="st0" d="M2949.7,7478.5c0-8.2,6.6-14.8,14.8-14.8h465c8.2,0,14.8,6.6,14.8,14.8v465
					c0,8.2-6.6,14.8-14.8,14.8h-465c-8.2,0-14.8-6.6-14.8-14.8V7478.5z"/>
			</g>
			<g transform="translate(2942 7456)">
				<path id="path1_stroke" class="st1" d="M2964.5,7472.3h465V7455h-465V7472.3z M3435.7,7478.5v465h17.3v-465H3435.7z
					 M3429.5,7949.7h-465v17.3h465V7949.7z M2958.3,7943.5v-465H2941v465H2958.3z M2964.5,7455c-13,0-23.5,10.5-23.5,23.5h17.3
					c0-3.4,2.8-6.2,6.2-6.2V7455z M3429.5,7472.3c3.4,0,6.2,2.8,6.2,6.2h17.3c0-13-10.5-23.5-23.5-23.5V7472.3z M3435.7,7943.5
					c0,3.4-2.8,6.2-6.2,6.2v17.3c13,0,23.5-10.5,23.5-23.5H3435.7z M2964.5,7949.7c-3.4,0-6.2-2.8-6.2-6.2H2941
					c0,13,10.5,23.5,23.5,23.5V7949.7z"/>
			</g>
		</g>
		<g id="Layer_2" figma:type="vector">
			<g transform="translate(2946.2 7468.6)">
				<path id="path2_fill" class="st2" d="M2999.1,7612.1h98.9v98.9h-98.9V7612.1z"/>
			</g>
			<g transform="translate(2946.2 7468.6)">
				<path id="path3_stroke" class="st1" d="M2999.1,7612.1v-8.7c-4.8,0-8.7,3.9-8.7,8.7H2999.1z M3098.1,7612.1h8.7
					c0-4.8-3.9-8.7-8.7-8.7V7612.1z M3098.1,7711v8.7c4.8,0,8.7-3.9,8.7-8.7H3098.1z M2999.1,7711h-8.7c0,4.8,3.9,8.7,8.7,8.7V7711z
					 M2999.1,7620.7h98.9v-17.3h-98.9V7620.7z M3089.4,7612.1v98.9h17.3v-98.9H3089.4z M3098.1,7702.3h-98.9v17.3h98.9V7702.3z
					 M3007.8,7711v-98.9h-17.3v98.9H3007.8z"/>
			</g>
		</g>
		<g id="Layer_3" figma:type="vector">
			<g transform="translate(2954.6 7468.6)">
				<path id="path2_fill_1_" class="st2" d="M3098.1,7612.1h98.9v98.9h-98.9V7612.1z"/>
			</g>
			<g transform="translate(2954.6 7468.6)">
				<path id="path3_stroke_1_" class="st1" d="M3098.1,7612.1v-8.7c-4.8,0-8.7,3.9-8.7,8.7H3098.1z M3197,7612.1h8.7
					c0-4.8-3.9-8.7-8.7-8.7V7612.1z M3197,7711v8.7c4.8,0,8.7-3.9,8.7-8.7H3197z M3098.1,7711h-8.7c0,4.8,3.9,8.7,8.7,8.7V7711z
					 M3098.1,7620.7h98.9v-17.3h-98.9V7620.7z M3188.3,7612.1v98.9h17.3v-98.9H3188.3z M3197,7702.3h-98.9v17.3h98.9V7702.3z
					 M3106.7,7711v-98.9h-17.3v98.9H3106.7z"/>
			</g>
		</g>
		<g id="Layer_4" figma:type="vector">
			<g transform="translate(2963 7468.6)">
				<path id="path2_fill_2_" class="st2" d="M3197,7612.1h98.9v98.9H3197V7612.1z"/>
			</g>
			<g transform="translate(2963 7468.6)">
				<path id="path3_stroke_2_" class="st1" d="M3197,7612.1v-8.7c-4.8,0-8.7,3.9-8.7,8.7H3197z M3295.9,7612.1h8.7
					c0-4.8-3.9-8.7-8.7-8.7V7612.1z M3295.9,7711v8.7c4.8,0,8.7-3.9,8.7-8.7H3295.9z M3197,7711h-8.7c0,4.8,3.9,8.7,8.7,8.7V7711z
					 M3197,7620.7h98.9v-17.3H3197V7620.7z M3287.3,7612.1v98.9h17.3v-98.9H3287.3z M3295.9,7702.3H3197v17.3h98.9V7702.3z
					 M3205.7,7711v-98.9h-17.3v98.9H3205.7z"/>
			</g>
		</g>
		<g id="Layer_5" figma:type="vector">
			<g transform="translate(2971.4 7468.6)">
				<path id="path2_fill_3_" class="st2" d="M3295.9,7612.1h98.9v98.9h-98.9V7612.1z"/>
			</g>
			<g transform="translate(2971.4 7468.6)">
				<path id="path3_stroke_3_" class="st1" d="M3295.9,7612.1v-8.7c-4.8,0-8.7,3.9-8.7,8.7H3295.9z M3394.9,7612.1h8.7
					c0-4.8-3.9-8.7-8.7-8.7V7612.1z M3394.9,7711v8.7c4.8,0,8.7-3.9,8.7-8.7H3394.9z M3295.9,7711h-8.7c0,4.8,3.9,8.7,8.7,8.7V7711z
					 M3295.9,7620.7h98.9v-17.3h-98.9V7620.7z M3386.2,7612.1v98.9h17.3v-98.9H3386.2z M3394.9,7702.3h-98.9v17.3h98.9V7702.3z
					 M3304.6,7711v-98.9h-17.3v98.9H3304.6z"/>
			</g>
		</g>
		<g id="Layer_6" figma:type="vector">
			<g transform="translate(2971.4 7477)">
				<path id="path2_fill_4_" class="st2" d="M3295.9,7711h98.9v98.9h-98.9V7711z"/>
			</g>
			<g transform="translate(2971.4 7477)">
				<path id="path3_stroke_4_" class="st1" d="M3295.9,7711v-8.7c-4.8,0-8.7,3.9-8.7,8.7H3295.9z M3394.9,7711h8.7
					c0-4.8-3.9-8.7-8.7-8.7V7711z M3394.9,7809.9v8.7c4.8,0,8.7-3.9,8.7-8.7H3394.9z M3295.9,7809.9h-8.7c0,4.8,3.9,8.7,8.7,8.7
					V7809.9z M3295.9,7719.7h98.9v-17.3h-98.9V7719.7z M3386.2,7711v98.9h17.3V7711H3386.2z M3394.9,7801.3h-98.9v17.3h98.9V7801.3z
					 M3304.6,7809.9V7711h-17.3v98.9H3304.6z"/>
			</g>
		</g>
		<g id="Layer_7" figma:type="vector">
			<g transform="translate(2963 7477)">
				<path id="path2_fill_5_" class="st2" d="M3197,7711h98.9v98.9H3197V7711z"/>
			</g>
			<g transform="translate(2963 7477)">
				<path id="path3_stroke_5_" class="st1" d="M3197,7711v-8.7c-4.8,0-8.7,3.9-8.7,8.7H3197z M3295.9,7711h8.7
					c0-4.8-3.9-8.7-8.7-8.7V7711z M3295.9,7809.9v8.7c4.8,0,8.7-3.9,8.7-8.7H3295.9z M3197,7809.9h-8.7c0,4.8,3.9,8.7,8.7,8.7
					V7809.9z M3197,7719.7h98.9v-17.3H3197V7719.7z M3287.3,7711v98.9h17.3V7711H3287.3z M3295.9,7801.3H3197v17.3h98.9V7801.3z
					 M3205.7,7809.9V7711h-17.3v98.9H3205.7z"/>
			</g>
		</g>
		<g id="Layer_8" figma:type="vector">
			<g transform="translate(2954.6 7477)">
				<path id="path2_fill_6_" class="st2" d="M3098.1,7711h98.9v98.9h-98.9V7711z"/>
			</g>
			<g transform="translate(2954.6 7477)">
				<path id="path3_stroke_6_" class="st1" d="M3098.1,7711v-8.7c-4.8,0-8.7,3.9-8.7,8.7H3098.1z M3197,7711h8.7
					c0-4.8-3.9-8.7-8.7-8.7V7711z M3197,7809.9v8.7c4.8,0,8.7-3.9,8.7-8.7H3197z M3098.1,7809.9h-8.7c0,4.8,3.9,8.7,8.7,8.7V7809.9z
					 M3098.1,7719.7h98.9v-17.3h-98.9V7719.7z M3188.3,7711v98.9h17.3V7711H3188.3z M3197,7801.3h-98.9v17.3h98.9V7801.3z
					 M3106.7,7809.9V7711h-17.3v98.9H3106.7z"/>
			</g>
		</g>
		<g id="Layer_9" figma:type="vector">
			<g transform="translate(2946.2 7477)">
				<path id="path2_fill_7_" class="st2" d="M2999.1,7711h98.9v98.9h-98.9V7711z"/>
			</g>
			<g transform="translate(2946.2 7477)">
				<path id="path3_stroke_7_" class="st1" d="M2999.1,7711v-8.7c-4.8,0-8.7,3.9-8.7,8.7H2999.1z M3098.1,7711h8.7
					c0-4.8-3.9-8.7-8.7-8.7V7711z M3098.1,7809.9v8.7c4.8,0,8.7-3.9,8.7-8.7H3098.1z M2999.1,7809.9h-8.7c0,4.8,3.9,8.7,8.7,8.7
					V7809.9z M2999.1,7719.7h98.9v-17.3h-98.9V7719.7z M3089.4,7711v98.9h17.3V7711H3089.4z M3098.1,7801.3h-98.9v17.3h98.9V7801.3z
					 M3007.8,7809.9V7711h-17.3v98.9H3007.8z"/>
			</g>
		</g>
		<g id="Layer_10" figma:type="vector">
			<g transform="translate(2946.2 7485.4)">
				<path id="path2_fill_8_" class="st2" d="M2999.1,7809.9h98.9v98.9h-98.9V7809.9z"/>
			</g>
			<g transform="translate(2946.2 7485.4)">
				<path id="path3_stroke_8_" class="st1" d="M2999.1,7809.9v-8.7c-4.8,0-8.7,3.9-8.7,8.7H2999.1z M3098.1,7809.9h8.7
					c0-4.8-3.9-8.7-8.7-8.7V7809.9z M3098.1,7908.9v8.7c4.8,0,8.7-3.9,8.7-8.7H3098.1z M2999.1,7908.9h-8.7c0,4.8,3.9,8.7,8.7,8.7
					V7908.9z M2999.1,7818.6h98.9v-17.3h-98.9V7818.6z M3089.4,7809.9v98.9h17.3v-98.9H3089.4z M3098.1,7900.2h-98.9v17.3h98.9
					V7900.2z M3007.8,7908.9v-98.9h-17.3v98.9H3007.8z"/>
			</g>
		</g>
		<g id="Layer_11" figma:type="vector">
			<g transform="translate(2954.6 7485.4)">
				<path id="path2_fill_9_" class="st2" d="M3098.1,7809.9h98.9v98.9h-98.9V7809.9z"/>
			</g>
			<g transform="translate(2954.6 7485.4)">
				<path id="path3_stroke_9_" class="st1" d="M3098.1,7809.9v-8.7c-4.8,0-8.7,3.9-8.7,8.7H3098.1z M3197,7809.9h8.7
					c0-4.8-3.9-8.7-8.7-8.7V7809.9z M3197,7908.9v8.7c4.8,0,8.7-3.9,8.7-8.7H3197z M3098.1,7908.9h-8.7c0,4.8,3.9,8.7,8.7,8.7
					V7908.9z M3098.1,7818.6h98.9v-17.3h-98.9V7818.6z M3188.3,7809.9v98.9h17.3v-98.9H3188.3z M3197,7900.2h-98.9v17.3h98.9V7900.2
					z M3106.7,7908.9v-98.9h-17.3v98.9H3106.7z"/>
			</g>
		</g>
		<g id="Layer_12" figma:type="vector">
			<g transform="translate(2963 7485.4)">
				<path id="path2_fill_10_" class="st2" d="M3197,7809.9h98.9v98.9H3197V7809.9z"/>
			</g>
			<g transform="translate(2963 7485.4)">
				<path id="path3_stroke_10_" class="st1" d="M3197,7809.9v-8.7c-4.8,0-8.7,3.9-8.7,8.7H3197z M3295.9,7809.9h8.7
					c0-4.8-3.9-8.7-8.7-8.7V7809.9z M3295.9,7908.9v8.7c4.8,0,8.7-3.9,8.7-8.7H3295.9z M3197,7908.9h-8.7c0,4.8,3.9,8.7,8.7,8.7
					V7908.9z M3197,7818.6h98.9v-17.3H3197V7818.6z M3287.3,7809.9v98.9h17.3v-98.9H3287.3z M3295.9,7900.2H3197v17.3h98.9V7900.2z
					 M3205.7,7908.9v-98.9h-17.3v98.9H3205.7z"/>
			</g>
		</g>
		<g id="Layer_13" figma:type="vector">
			<g transform="translate(2971.4 7485.4)">
				<path id="path2_fill_11_" class="st2" d="M3295.9,7809.9h98.9v98.9h-98.9V7809.9z"/>
			</g>
			<g transform="translate(2971.4 7485.4)">
				<path id="path3_stroke_11_" class="st1" d="M3295.9,7809.9v-8.7c-4.8,0-8.7,3.9-8.7,8.7H3295.9z M3394.9,7809.9h8.7
					c0-4.8-3.9-8.7-8.7-8.7V7809.9z M3394.9,7908.9v8.7c4.8,0,8.7-3.9,8.7-8.7H3394.9z M3295.9,7908.9h-8.7c0,4.8,3.9,8.7,8.7,8.7
					V7908.9z M3295.9,7818.6h98.9v-17.3h-98.9V7818.6z M3386.2,7809.9v98.9h17.3v-98.9H3386.2z M3394.9,7900.2h-98.9v17.3h98.9
					V7900.2z M3304.6,7908.9v-98.9h-17.3v98.9H3304.6z"/>
			</g>
		</g>
		<g id="Layer_14" figma:type="vector">
			<g transform="translate(2950.4 7456)">
				<path id="path4_fill" class="st0" d="M3048.6,7463.7h49.5v24.7c0,13.7-11.1,24.7-24.7,24.7s-24.7-11.1-24.7-24.7V7463.7z"/>
			</g>
			<g transform="translate(2950.4 7456)">
				<path id="path5_stroke" class="st1" d="M3048.6,7463.7v-8.7c-4.8,0-8.7,3.9-8.7,8.7H3048.6z M3098.1,7463.7h8.7
					c0-4.8-3.9-8.7-8.7-8.7V7463.7z M3048.6,7472.3h49.5V7455h-49.5V7472.3z M3089.4,7463.7v24.7h17.3v-24.7H3089.4z M3057.3,7488.4
					v-24.7h-17.3v24.7H3057.3z M3089.4,7488.4c0,8.9-7.2,16.1-16.1,16.1v17.3c18.4,0,33.4-14.9,33.4-33.4H3089.4z M3073.3,7504.5
					c-8.9,0-16.1-7.2-16.1-16.1h-17.3c0,18.4,14.9,33.4,33.4,33.4V7504.5z"/>
			</g>
		</g>
		<g id="Layer_15" figma:type="vector">
			<g transform="translate(2971.4 7456)">
				<path id="path4_fill_1_" class="st0" d="M3295.9,7463.7h49.5v24.7c0,13.7-11.1,24.7-24.7,24.7s-24.7-11.1-24.7-24.7V7463.7z"/>
			</g>
			<g transform="translate(2971.4 7456)">
				<path id="path5_stroke_1_" class="st1" d="M3295.9,7463.7v-8.7c-4.8,0-8.7,3.9-8.7,8.7H3295.9z M3345.4,7463.7h8.7
					c0-4.8-3.9-8.7-8.7-8.7V7463.7z M3295.9,7472.3h49.5V7455h-49.5V7472.3z M3336.7,7463.7v24.7h17.3v-24.7H3336.7z M3304.6,7488.4
					v-24.7h-17.3v24.7H3304.6z M3336.7,7488.4c0,8.9-7.2,16.1-16.1,16.1v17.3c18.4,0,33.4-14.9,33.4-33.4H3336.7z M3320.7,7504.5
					c-8.9,0-16.1-7.2-16.1-16.1h-17.3c0,18.4,14.9,33.4,33.4,33.4V7504.5z"/>
			</g>
		</g>
	</g>
</g>
</svg>
