<?xml version="1.0" encoding="utf-8"?>
<!-- Generator: Adobe Illustrator 16.0.0, SVG Export Plug-In . SVG Version: 6.00 Build 0)  -->
<!DOCTYPE svg PUBLIC "-//W3C//DTD SVG 1.1//EN" "http://www.w3.org/Graphics/SVG/1.1/DTD/svg11.dtd">
<svg version="1.1" id="Layer_1" xmlns="http://www.w3.org/2000/svg" xmlns:xlink="http://www.w3.org/1999/xlink" x="0px" y="0px"
	 width="512px" height="512px" viewBox="-216 -227.5 512 512" enable-background="new -216 -227.5 512 512" xml:space="preserve">
<g>
	<path fill="#FEFEFE" d="M19.461-51.986l213.899,259.91l60.903-259.91H19.461z"/>
	<path fill="none" stroke="#333333" d="M233.36,207.924l60.903-259.91H19.456"/>
	<path fill="#FEFEFE" d="M7.547-72.568l225.813,280.55l41.676-280.55H7.547z"/>
	<path fill="none" stroke="#333333" d="M233.36,207.981l41.676-280.545H7.552"/>
	<path fill="#FEFEFE" d="M-12.596-89.135l245.952,297.167l21.598-297.174L-12.596-89.135z"/>
	<path fill="none" stroke="#333333" d="M233.355,208.032l21.598-297.167H-12.596"/>
	<path fill="#FEFEFE" d="M-213.95-151v357.503h447.183v-309.644H-65.569L-84.078-151H-213.95z"/>
	<path fill="none" stroke="#333333" d="M-213.95-151h129.866l18.52,47.859H233.24v309.632h-447.19V-151z M-163.741-64.011h105.626
		H-163.741z M-163.741-26.122h105.626H-163.741z"/>
</g>
</svg>
