<?xml version="1.0" encoding="utf-8"?>
<!-- Generator: Adobe Illustrator 21.0.0, SVG Export Plug-In . SVG Version: 6.00 Build 0)  -->
<svg version="1.1" id="Layer_1" xmlns:figma="http://www.figma.com/figma/ns"
	 xmlns="http://www.w3.org/2000/svg" xmlns:xlink="http://www.w3.org/1999/xlink" x="0px" y="0px" width="512px" height="512px"
	 viewBox="0 0 512 512" enable-background="new 0 0 512 512" xml:space="preserve">
<title>34-web-seo-internet-charts-graphs-stats</title>
<desc>Created using Figma</desc>
<g>
	<path fill="#F66290" d="M86.8,378L86.8,378l-73.3,0v0c-4.4,0-8,3.5-8,8h8v0.1h-8V495c0,4.4,3.5,8,8,8h73.3c4.4,0,8-3.5,8-8h-8v-0.1
		h8.1V386.1h-0.1C94.8,381.7,91.2,378,86.8,378z M78.8,394.1V487H21.5v-92.9H78.8z"/>
	<path fill="#F66290" d="M231.1,337c0-4.4-3.5-8-8-8v8H223v-8h-73.3c-4.4,0-8,3.5-8,8h0v158.8h0c0,4.4,3.5,8,8,8H223v-8h0.1v8
		c4.4,0,8-3.5,8-8h0L231.1,337L231.1,337z M157.7,345H215v142.7h-57.3V345z"/>
	<path fill="#F66290" d="M372.3,262.1c0-4.4-3.5-8-8-8v8h-0.1v-8h-73.3c-4.4,0-8,3.5-8,8h0v231.3h0c0,4.4,3.5,8,8,8v-8h0.1v8h73.3v0
		c4.4,0,8-3.5,8-8h0L372.3,262.1L372.3,262.1z M356.3,485.4H299V270.2h57.3V485.4z"/>
	<path fill="#F66290" d="M499.5,178.4h-73.3c-4.4,0-8,3.5-8,8h-0.1v308.4h0.1c0,4.4,3.5,8,8,8v0h73.3v0c4.4,0,8-3.5,8-8V186.4
		C507.5,182,504,178.4,499.5,178.4z M491.5,486.8h-57.3V194.5h57.3V486.8z"/>
	<path fill="#F66290" d="M47.9,340.3L47.9,340.3L47.9,340.3c19.6,0,35.5-15.6,35.6-35.1h0v-0.1c0,0,0,0,0,0s0,0,0,0l0,0
		c0-5.4-1.2-10.6-3.4-15.1c0,0,0,0,0,0l0-0.1c0-0.1-0.1-0.2-0.2-0.3l0.2,0.3l79.1-57.9l0,0c1.8-1.3,2.9-3.2,3.2-5.2
		c6.4,6.2,15.1,10,24.7,10.1v0h0.1c0,0,0,0,0,0v0c19.2,0,35-15.2,35.4-34.3c0.6,0,1.2-0.1,1.8-0.2l-3.6-15.6
		c-0.5,0.1-0.9,0.3-1.3,0.4c-5.6-12.2-17.9-20.7-32.2-20.7v-0.1h-0.1c-19.5,0-35.5,15.7-35.5,35.2v0.1c0,5.7,1.4,11.2,3.9,15.9
		c-2-0.3-4.1,0.2-5.8,1.4l0,0l-79.1,57.9l2.3,3.2c-0.1-0.1-0.1-0.1-0.2-0.2l-2.1-2.9c-0.2,0.2-0.4,0.3-0.6,0.5
		c-6-4.7-13.6-7.6-21.9-7.6v-0.1H48c-19.5,0-35.5,15.7-35.5,35.2h-0.1v0.1C12.4,324.6,28.4,340.3,47.9,340.3z M167.8,201.6
		c0-10.5,8.6-19.2,19.4-19.2v0.2c10.8,0,19.4,8.6,19.5,19.1h-0.1c0,10.5-8.6,19.2-19.4,19.2v-0.1
		C176.3,220.8,167.7,212.1,167.8,201.6L167.8,201.6z M28.5,305c0-10.5,8.6-19.2,19.4-19.2v0.2c10.8,0,19.4,8.6,19.5,19.1h-0.1
		c0,10.5-8.7,19.2-19.5,19.2v-0.1c-10.8,0-19.5-8.7-19.5-19.2H28.5z"/>
	<polygon fill="#F66290" points="224.5,202.4 293.5,186 289.8,170.4 220.8,186.8 	"/>
	<path fill="#F66290" d="M326.3,202.4L326.3,202.4L326.3,202.4C326.4,202.4,326.4,202.4,326.3,202.4L326.3,202.4
		c19.6,0,35.5-15.6,35.6-35.1h0v-0.1c0,0,0,0,0,0s0,0,0,0l0,0c0-6.2-1.6-12-4.4-17c0.5-0.3,0.9-0.6,1.3-1l86.6-76
		c1.2-1,2-2.3,2.4-3.7c5.2,3,11.3,4.8,17.8,4.8v0.1c19.5,0,35.5-15.7,35.5-35.2h0.1v-0.1c0-19.5-16-35.2-35.5-35.2h-0.1
		c-19.5,0-35.4,15.6-35.5,35.1h0v0.1c0,7.8,2.5,14.9,6.8,20.8c-0.8,0.3-1.5,0.8-2.1,1.3l-86.6,76c-0.5,0.4-0.9,0.9-1.2,1.4
		c-5.8-4.1-12.9-6.5-20.5-6.6V132h-0.1c-19.5,0-35.5,15.7-35.5,35.2v0.1c0,1,0.1,2,0.1,3c-0.4,0-0.8,0.1-1.2,0.2l3.6,15.6
		c0.8-0.2,1.6-0.5,2.3-1C302,195.4,313.4,202.4,326.3,202.4z M446.2,39.2c0-10.5,8.7-19.2,19.5-19.2V20c10.8,0,19.5,8.7,19.5,19.2
		h-0.1c0,10.5-8.7,19.2-19.5,19.2v-0.2C454.8,58.3,446.2,49.7,446.2,39.2L446.2,39.2z M307,167.1c0-10.5,8.6-19.2,19.4-19.2v0.2
		c10.8,0,19.4,8.6,19.5,19.1h-0.1c0,10.5-8.6,19.2-19.4,19.2v-0.1C315.6,186.4,306.9,177.7,307,167.1L307,167.1z"/>
</g>
</svg>
