<?xml version="1.0" encoding="utf-8"?>
<!-- Generator: Adobe Illustrator 21.0.0, SVG Export Plug-In . SVG Version: 6.00 Build 0)  -->
<svg version="1.1" id="Layer_1" xmlns:figma="http://www.figma.com/figma/ns"
	 xmlns="http://www.w3.org/2000/svg" xmlns:xlink="http://www.w3.org/1999/xlink" x="0px" y="0px" viewBox="0 0 512 512"
	 style="enable-background:new 0 0 512 512;" xml:space="preserve">
<style type="text/css">
	.st0{fill:#FEEEF3;}
	.st1{fill:#F66290;}
	.st2{fill:#FFFFFF;}
	.st3{fill:#E1F2FA;}
</style>
<title>34-web-seo-internet-charts-graphs-stats</title>
<desc>Created using Figma</desc>
<g id="Canvas" transform="translate(-2174 -7661)" figma:type="canvas">
	<g id="_x33_4-web-seo-internet-charts-graphs-stats" figma:type="frame">
		<g id="Layer_1_1_" figma:type="vector">
			<g transform="translate(2175 7694.02)">
				<path id="path0_fill" class="st0" d="M2184.6,8045.7h78.5v116.6h-78.5V8045.7z"/>
			</g>
			<g transform="translate(2175 7694.02)">
				<path id="path1_stroke" class="st1" d="M2184.6,8045.7v-8.6c-4.7,0-8.6,3.8-8.6,8.6H2184.6z M2263.1,8045.7h8.6
					c0-4.7-3.8-8.6-8.6-8.6V8045.7z M2263.1,8162.4v8.6c4.7,0,8.6-3.8,8.6-8.6H2263.1z M2184.6,8162.4h-8.6c0,4.7,3.8,8.6,8.6,8.6
					V8162.4z M2184.6,8054.3h78.5v-17.2h-78.5V8054.3z M2254.6,8045.7v116.6h17.2v-116.6H2254.6z M2263.1,8153.8h-78.5v17.2h78.5
					V8153.8z M2193.2,8162.4v-116.6H2176v116.6H2193.2z"/>
			</g>
		</g>
		<g id="Layer_2" figma:type="vector">
			<g transform="translate(2186.76 7689.45)">
				<path id="path2_fill" class="st0" d="M2322,7992.3h78.5v170.1H2322V7992.3z"/>
			</g>
			<g transform="translate(2186.76 7689.45)">
				<path id="path3_stroke" class="st1" d="M2322,7992.3v-8.6c-4.7,0-8.6,3.8-8.6,8.6H2322z M2400.6,7992.3h8.6
					c0-4.7-3.8-8.6-8.6-8.6V7992.3z M2400.6,8162.4v8.6c4.7,0,8.6-3.8,8.6-8.6H2400.6z M2322,8162.4h-8.6c0,4.7,3.8,8.6,8.6,8.6
					V8162.4z M2322,8000.9h78.5v-17.2H2322V8000.9z M2392,7992.3v170.1h17.2v-170.1H2392z M2400.6,8153.8H2322v17.2h78.5V8153.8z
					 M2330.6,8162.4v-170.1h-17.2v170.1H2330.6z"/>
			</g>
		</g>
		<g id="Layer_3" figma:type="vector">
			<g transform="translate(2198.52 7682.79)">
				<path id="path4_fill" class="st0" d="M2459.4,7914.5h78.5v247.8h-78.5V7914.5z"/>
			</g>
			<g transform="translate(2198.52 7682.79)">
				<path id="path5_stroke" class="st1" d="M2459.4,7914.5v-8.6c-4.7,0-8.6,3.8-8.6,8.6H2459.4z M2538,7914.5h8.6
					c0-4.7-3.8-8.6-8.6-8.6V7914.5z M2538,8162.3v8.6c4.7,0,8.6-3.8,8.6-8.6H2538z M2459.4,8162.3h-8.6c0,4.7,3.8,8.6,8.6,8.6
					V8162.3z M2459.4,7923.1h78.5v-17.2h-78.5V7923.1z M2529.4,7914.5v247.8h17.2v-247.8H2529.4z M2538,8153.7h-78.5v17.2h78.5
					V8153.7z M2468,8162.3v-247.8h-17.2v247.8H2468z"/>
			</g>
		</g>
		<g id="Layer_4" figma:type="vector">
			<g transform="translate(2210.28 7675.72)">
				<path id="path6_fill" class="st0" d="M2596.9,7831.9h78.5v330.4h-78.5V7831.9z"/>
			</g>
			<g transform="translate(2210.28 7675.72)">
				<path id="path7_stroke" class="st1" d="M2596.9,7831.9v-8.6c-4.7,0-8.6,3.8-8.6,8.6H2596.9z M2675.4,7831.9h8.6
					c0-4.7-3.8-8.6-8.6-8.6V7831.9z M2675.4,8162.3v8.6c4.7,0,8.6-3.8,8.6-8.6H2675.4z M2596.9,8162.3h-8.6c0,4.7,3.8,8.6,8.6,8.6
					V8162.3z M2596.9,7840.5h78.5v-17.2h-78.5V7840.5z M2666.8,7831.9v330.4h17.2v-330.4H2666.8z M2675.4,8153.7h-78.5v17.2h78.5
					V8153.7z M2605.4,8162.3v-330.4h-17.2v330.4H2605.4z"/>
			</g>
		</g>
		<g id="Layer_5" figma:type="vector">
			<g transform="translate(2175.84 7684.46)">
				<path id="path8_fill" class="st2" d="M2223.9,7992.3c16.3,0,29.4-13.1,29.4-29.2c0-16.1-13.2-29.2-29.4-29.2
					s-29.4,13.1-29.4,29.2C2194.4,7979.3,2207.6,7992.3,2223.9,7992.3z"/>
			</g>
			<g transform="translate(2175.84 7684.46)">
				<path id="path9_stroke" class="st1" d="M2223.9,8000.9c20.9,0,38-16.8,38-37.7h-17.2c0,11.3-9.3,20.6-20.9,20.6V8000.9z
					 M2261.9,7963.2c0-20.9-17.1-37.7-38-37.7v17.2c11.6,0,20.9,9.3,20.9,20.6H2261.9z M2223.9,7925.4c-20.9,0-38,16.8-38,37.7h17.2
					c0-11.3,9.3-20.6,20.9-20.6V7925.4z M2185.8,7963.2c0,20.9,17.1,37.7,38,37.7v-17.2c-11.6,0-20.9-9.3-20.9-20.6H2185.8z"/>
			</g>
		</g>
		<g id="Layer_6" figma:type="vector">
			<g transform="translate(2192.92 7676.04)">
				<path id="path10_fill" class="st3" d="M2394,7853.2l73.9-17.5L2394,7853.2z"/>
			</g>
			<g transform="translate(2192.92 7676.04)">
				<path id="path11_stroke" class="st1" d="M2392,7844.8c-4.6,1.1-7.5,5.7-6.4,10.3c1.1,4.6,5.7,7.5,10.3,6.4L2392,7844.8z
					 M2469.9,7844c4.6-1.1,7.5-5.7,6.4-10.3c-1.1-4.6-5.7-7.5-10.3-6.4L2469.9,7844z M2396,7861.5l73.9-17.5l-4-16.7l-73.9,17.5
					L2396,7861.5z"/>
			</g>
		</g>
		<g id="Layer_7" figma:type="vector">
			<g transform="translate(2180.47 7680.04)">
				<path id="path12_fill" class="st3" d="M2248.5,7944.4l84.8-62L2248.5,7944.4z"/>
			</g>
			<g transform="translate(2180.47 7680.04)">
				<path id="path13_stroke" class="st1" d="M2243.5,7937.5c-3.8,2.8-4.7,8.2-1.9,12s8.2,4.7,12,1.9L2243.5,7937.5z M2338.4,7889.3
					c3.8-2.8,4.7-8.2,1.9-12c-2.8-3.8-8.2-4.7-12-1.9L2338.4,7889.3z M2253.6,7951.3l84.8-62l-10.1-13.9l-84.8,62L2253.6,7951.3z"/>
			</g>
		</g>
		<g id="Layer_8" figma:type="vector">
			<g transform="translate(2203.97 7666.67)">
				<path id="path14_fill" class="st3" d="M2523.1,7807.5l92.8-81.4L2523.1,7807.5z"/>
			</g>
			<g transform="translate(2203.97 7666.67)">
				<path id="path15_stroke" class="st1" d="M2517.5,7801.1c-3.6,3.1-3.9,8.6-0.8,12.1s8.6,3.9,12.1,0.8L2517.5,7801.1z
					 M2621.6,7732.6c3.6-3.1,3.9-8.6,0.8-12.1c-3.1-3.6-8.6-3.9-12.1-0.8L2621.6,7732.6z M2528.8,7814l92.8-81.4l-11.3-12.9
					l-92.8,81.4L2528.8,7814z"/>
			</g>
		</g>
		<g id="Layer_9" figma:type="vector">
			<g transform="translate(2187.6 7675.72)">
				<path id="path8_fill_1_" class="st2" d="M2361.3,7890.2c16.3,0,29.4-13.1,29.4-29.2s-13.2-29.2-29.4-29.2s-29.4,13.1-29.4,29.2
					S2345,7890.2,2361.3,7890.2z"/>
			</g>
			<g transform="translate(2187.6 7675.72)">
				<path id="path9_stroke_1_" class="st1" d="M2361.3,7898.8c20.9,0,38-16.8,38-37.7h-17.2c0,11.3-9.3,20.6-20.9,20.6V7898.8z
					 M2399.3,7861.1c0-20.9-17.1-37.7-38-37.7v17.2c11.6,0,20.9,9.3,20.9,20.6H2399.3z M2361.3,7823.3c-20.9,0-38,16.8-38,37.7h17.2
					c0-11.3,9.3-20.6,20.9-20.6V7823.3z M2323.3,7861.1c0,20.9,17.1,37.7,38,37.7v-17.2c-11.6,0-20.9-9.3-20.9-20.6H2323.3z"/>
			</g>
		</g>
		<g id="Layer_10" figma:type="vector">
			<g transform="translate(2199.36 7672.81)">
				<path id="path8_fill_2_" class="st2" d="M2498.7,7856.2c16.3,0,29.4-13.1,29.4-29.2s-13.2-29.2-29.4-29.2
					c-16.3,0-29.4,13.1-29.4,29.2S2482.4,7856.2,2498.7,7856.2z"/>
			</g>
			<g transform="translate(2199.36 7672.81)">
				<path id="path9_stroke_2_" class="st1" d="M2498.7,7864.8c20.9,0,38-16.8,38-37.7h-17.2c0,11.3-9.3,20.6-20.9,20.6V7864.8z
					 M2536.7,7827.1c0-20.9-17.1-37.7-38-37.7v17.2c11.6,0,20.9,9.3,20.9,20.6H2536.7z M2498.7,7789.3c-20.9,0-38,16.8-38,37.7h17.2
					c0-11.3,9.3-20.6,20.9-20.6V7789.3z M2460.7,7827.1c0,20.9,17.1,37.7,38,37.7v-17.2c-11.6,0-20.9-9.3-20.9-20.6H2460.7z"/>
			</g>
		</g>
		<g id="Layer_11" figma:type="vector">
			<g transform="translate(2211.12 7662)">
				<path id="path8_fill_3_" class="st2" d="M2636.1,7729.9c16.3,0,29.4-13.1,29.4-29.2s-13.2-29.2-29.4-29.2s-29.4,13.1-29.4,29.2
					S2619.9,7729.9,2636.1,7729.9z"/>
			</g>
			<g transform="translate(2211.12 7662)">
				<path id="path9_stroke_3_" class="st1" d="M2636.1,7738.5c20.9,0,38-16.8,38-37.7H2657c0,11.3-9.3,20.6-20.9,20.6V7738.5z
					 M2674.2,7700.7c0-20.9-17.1-37.7-38-37.7v17.2c11.6,0,20.9,9.3,20.9,20.6H2674.2z M2636.1,7663c-20.9,0-38,16.8-38,37.7h17.2
					c0-11.3,9.3-20.6,20.9-20.6V7663z M2598.1,7700.7c0,20.9,17.1,37.7,38,37.7v-17.2c-11.6,0-20.9-9.3-20.9-20.6H2598.1z"/>
			</g>
		</g>
	</g>
</g>
</svg>
