<?xml version="1.0" encoding="utf-8"?>
<!-- Generator: Adobe Illustrator 21.0.0, SVG Export Plug-In . SVG Version: 6.00 Build 0)  -->
<svg version="1.1" id="Layer_1" xmlns:figma="http://www.figma.com/figma/ns"
	 xmlns="http://www.w3.org/2000/svg" xmlns:xlink="http://www.w3.org/1999/xlink" x="0px" y="0px" viewBox="0 0 512 512"
	 style="enable-background:new 0 0 512 512;" xml:space="preserve">
<style type="text/css">
	.st0{fill:#FEEEF3;}
	.st1{fill:#F66290;}
</style>
<title>40-office-work-clock</title>
<desc>Created using Figma</desc>
<g id="Canvas" transform="translate(-9051 -5975)" figma:type="canvas">
	<g id="_x34_0-office-work-clock" figma:type="frame">
		<g id="Layer_1_1_" figma:type="vector">
			<g transform="translate(9052 5976)">
				<path id="path0_fill" class="st0" d="M9515.8,6098.4c-43.9-69-121-114.7-208.8-114.7c-136.6,0-247.3,110.7-247.3,247.3
					s110.7,247.3,247.3,247.3s247.3-110.7,247.3-247.3c0-28.6-4.9-56.1-13.8-81.7c-2.2-6.3-4.7-12.5-7.3-18.5"/>
			</g>
			<g transform="translate(9052 5976)">
				<path id="path1_stroke" class="st1" d="M9508.5,6103c2.6,4,7.9,5.2,12,2.7c4-2.6,5.2-7.9,2.7-12L9508.5,6103z M9540.5,6149.3
					l8.2-2.9L9540.5,6149.3z M9541.1,6127.3c-1.9-4.4-7.1-6.3-11.4-4.4c-4.4,1.9-6.3,7.1-4.4,11.4L9541.1,6127.3z M9523.1,6093.7
					c-45.4-71.3-125.2-118.7-216.1-118.7v17.3c84.7,0,159.1,44.1,201.5,110.7L9523.1,6093.7z M9307,5975c-141.4,0-256,114.6-256,256
					h17.3c0-131.8,106.9-238.7,238.7-238.7V5975z M9051,6231c0,141.4,114.6,256,256,256v-17.3c-131.8,0-238.7-106.9-238.7-238.7
					H9051z M9307,6487c141.4,0,256-114.6,256-256h-17.3c0,131.8-106.9,238.7-238.7,238.7V6487z M9563,6231
					c0-29.4-5.1-58.3-14.3-84.6l-16.3,5.7c8.7,24.9,13.4,51,13.3,78.8H9563z M9548.7,6146.4c-2.3-6.5-4.8-13-7.6-19.2l-15.8,7
					c2.6,5.9,4.9,11.7,7.1,17.9L9548.7,6146.4z"/>
			</g>
		</g>
		<g id="Layer_2" figma:type="vector">
			<g transform="translate(9069.81 5993.85)">
				<path id="path2_fill" class="st0" d="M9306.5,6268.1c20.5,0,37.1-16.6,37.1-37.1c0-20.5-16.6-37.1-37.1-37.1
					c-20.5,0-37.1,16.6-37.1,37.1C9269.4,6251.5,9286,6268.1,9306.5,6268.1z"/>
			</g>
			<g transform="translate(9069.81 5993.85)">
				<path id="path3_stroke" class="st1" d="M9306.5,6276.8c25.3,0,45.8-20.5,45.8-45.8H9335c0,15.7-12.7,28.4-28.4,28.4V6276.8z
					 M9352.3,6231c0-25.3-20.5-45.8-45.8-45.8v17.3c15.7,0,28.4,12.7,28.4,28.4H9352.3z M9306.5,6185.2c-25.3,0-45.8,20.5-45.8,45.8
					h17.3c0-15.7,12.7-28.4,28.4-28.4V6185.2z M9260.8,6231c0,25.3,20.5,45.8,45.8,45.8v-17.3c-15.7,0-28.4-12.7-28.4-28.4H9260.8z"
					/>
			</g>
		</g>
		<g id="Layer_3" figma:type="vector-operation">
			<g transform="translate(9071.74 5980.2)">
				<path id="path4_fill" class="st0" d="M9307,6033.1c-8.2,0-14.8,6.6-14.8,14.8v148.8c4.4-1.9,9.3-2.9,14.3-2.9
					c5.5,0,10.7,1.2,15.3,3.3V6048C9321.8,6039.8,9315.2,6033.1,9307,6033.1z"/>
			</g>
			<g transform="translate(9071.74 5980.2)">
				<path id="path5_stroke" class="st1" d="M9292.2,6196.8h-8.7c0,2.9,1.5,5.6,3.9,7.2c2.4,1.6,5.5,1.9,8.1,0.8L9292.2,6196.8z
					 M9321.8,6197.2l-3.6,7.9c2.7,1.2,5.8,1,8.3-0.6c2.5-1.6,4-4.3,4-7.3H9321.8z M9300.8,6048c0-3.4,2.8-6.2,6.2-6.2v-17.3
					c-13,0-23.5,10.5-23.5,23.5H9300.8z M9300.8,6196.8V6048h-17.3v148.8H9300.8z M9306.5,6185.2c-6,0-12.5,1.4-17.7,3.5l6.7,16
					c3.6-1.6,6.8-2.2,11-2.2V6185.2z M9325.4,6189.3c-5.5-2.4-12.5-4-18.9-4.1v17.3c4.5-0.1,7.9,0.7,11.8,2.5L9325.4,6189.3z
					 M9313.2,6048v149.2h17.3V6048H9313.2z M9307,6041.8c3.4,0,6.2,2.8,6.2,6.2h17.3c0-13-10.5-23.5-23.5-23.5V6041.8z"/>
			</g>
		</g>
		<g id="Layer_4" figma:type="vector">
			<g transform="translate(9076.14 5996.58)">
				<path id="path6_fill" class="st0" d="M9344,6231h137.7H9344z"/>
			</g>
			<g transform="translate(9076.14 5996.58)">
				<path id="path7_stroke" class="st1" d="M9344,6222.3c-4.8,0-8.7,3.9-8.7,8.7s3.9,8.7,8.7,8.7V6222.3z M9481.7,6239.7
					c4.8,0,8.7-3.9,8.7-8.7s-3.9-8.7-8.7-8.7V6239.7z M9344,6239.7h137.7v-17.3H9344V6239.7z"/>
			</g>
		</g>
		<g id="Layer_5" figma:type="vector">
			<g transform="translate(9087.12 5982.12)">
				<path id="path8_fill" class="st0" d="M9473.3,6096.3l47.2,6.6l6.6-47.2"/>
			</g>
			<g transform="translate(9087.12 5982.12)">
				<path id="path9_stroke" class="st1" d="M9474.5,6087.8c-4.7-0.7-9.1,2.6-9.8,7.4c-0.7,4.7,2.6,9.1,7.4,9.8L9474.5,6087.8z
					 M9520.6,6103l-1.2,8.6c2.3,0.3,4.6-0.3,6.4-1.7c1.8-1.4,3-3.4,3.4-5.7L9520.6,6103z M9535.8,6056.9c0.7-4.7-2.6-9.1-7.4-9.8
					s-9.1,2.6-9.8,7.4L9535.8,6056.9z M9472.1,6104.9l47.2,6.6l2.4-17.1l-47.2-6.6L9472.1,6104.9z M9529.1,6104.2l6.6-47.2
					l-17.1-2.4l-6.6,47.2L9529.1,6104.2z"/>
			</g>
		</g>
	</g>
</g>
</svg>
