<?xml version="1.0" encoding="utf-8"?>
<!-- Generator: Adobe Illustrator 21.0.0, SVG Export Plug-In . SVG Version: 6.00 Build 0)  -->
<svg version="1.1" id="Layer_1" xmlns:figma="http://www.figma.com/figma/ns"
	 xmlns="http://www.w3.org/2000/svg" xmlns:xlink="http://www.w3.org/1999/xlink" x="0px" y="0px" width="512px" height="512px"
	 viewBox="0 0 512 512" enable-background="new 0 0 512 512" xml:space="preserve">
<title>40-office-work-clock</title>
<desc>Created using Figma</desc>
<g>
	<path fill="#F66290" d="M492.2,176.8c-2.2-6.3-4.7-12.5-7.3-18.5c-1.9-4.2-6.8-6.1-11-4.3c-4.2,1.9-6.1,6.8-4.3,11
		c2.5,5.7,4.8,11.4,6.8,17.3c8.5,24.1,12.9,49.3,12.9,76.2c0,127.4-103.3,230.8-230.8,230.8c-127.4,0-230.8-103.3-230.8-230.8
		c0-127.4,103.3-230.8,230.8-230.8c77.1,0,145.3,37.8,187.2,95.8l-25.3-3.6c-4.6-0.6-8.8,2.5-9.5,7.1c-0.6,4.6,2.5,8.8,7.1,9.5
		l45.7,6.4c2.2,0.3,4.4-0.3,6.2-1.6c1.8-1.3,2.9-3.3,3.3-5.5l-6-0.8l0,0l6,0.8l6.4-45.7c0.6-4.6-2.5-8.8-7.1-9.5
		c-4.6-0.6-8.8,2.5-9.5,7.1l-3.7,26.1C414.5,51.6,341.2,11,258.5,11C121.8,11,11,121.8,11,258.5C11,395.2,121.8,506,258.5,506
		S506,395.2,506,258.5C506,230.1,501,202.1,492.2,176.8z"/>
	<path fill="#F66290" d="M258.5,58.8c-12.5,0-22.7,10.2-22.7,22.7v138.7c-13.1,7.7-22,21.9-22,38.2c0,24.4,19.8,44.2,44.2,44.2
		c21.6,0,39.5-15.4,43.4-35.9h125.9c4.6,0,8.4-3.7,8.4-8.4c0-4.6-3.7-8.4-8.4-8.4H301.5c-2.4-12.4-9.9-22.9-20.3-29.3V81.5
		C281.2,69,271.1,58.8,258.5,58.8z M258.5,75.6c3.3,0,6,2.7,6,6v133.2c-2.1-0.3-4.2-0.5-6.4-0.5c0,0,0,0,0,0c0,0,0,0,0,0
		c0,0,0,0,0,0c-1.8,0-3.7,0.1-5.4,0.4V81.5C252.5,78.2,255.2,75.6,258.5,75.6z M258,286c-15.2,0-27.5-12.3-27.5-27.5
		c0-15.2,12.3-27.5,27.5-27.5c0,0,0,0,0,0c3.7,0,7.3,0.8,10.6,2.1c0.2,0.1,0.3,0.2,0.5,0.2c9.6,4.3,16.4,13.9,16.4,25.2
		C285.5,273.7,273.2,286,258,286z"/>
</g>
</svg>
