<?xml version="1.0" encoding="UTF-8" standalone="no"?>
<svg width="512px" height="512px" viewBox="0 0 512 512" version="1.1" xmlns="http://www.w3.org/2000/svg" xmlns:xlink="http://www.w3.org/1999/xlink">
    <!-- Generator: Sketch 40.3 (33839) - http://www.bohemiancoding.com/sketch -->
    <title>Icon</title>
    <desc>Created with Sketch.</desc>
    <defs></defs>
    <g id="Page-1" stroke="none" stroke-width="1" fill="none" fill-rule="evenodd">
        <g id="ic_cancel-copy" transform="translate(-478.000000, 0.000000)" fill="#4990E2">
            <path d="M734,0 C592.432,0 478,114.432 478,256 C478,397.568 592.432,512 734,512 C875.568,512 990,397.568 990,256 C990,114.432 875.568,0 734,0 L734,0 Z M862,347.904 L825.904,384 L734,292.096 L642.096,384 L606,347.904 L697.904,256 L606,164.096 L642.096,128 L734,219.904 L825.904,128 L862,164.096 L770.096,256 L862,347.904 L862,347.904 Z" id="Icon"></path>
        </g>
    </g>
</svg>