<?xml version="1.0" encoding="utf-8"?>
<!-- Generator: Adobe Illustrator 21.0.0, SVG Export Plug-In . SVG Version: 6.00 Build 0)  -->
<svg version="1.1" id="Layer_1" xmlns:figma="http://www.figma.com/figma/ns"
	 xmlns="http://www.w3.org/2000/svg" xmlns:xlink="http://www.w3.org/1999/xlink" x="0px" y="0px" viewBox="0 0 512 512"
	 style="enable-background:new 0 0 512 512;" xml:space="preserve">
<style type="text/css">
	.st0{fill:#F66290;}
	.st1{fill:#FEEEF3;}
</style>
<title>40-sports-trophy-award-winner</title>
<desc>Created using Figma</desc>
<g id="Canvas" transform="translate(-2174 -7250)" figma:type="canvas">
	<g id="_x34_0-sports-trophy-award-winner" figma:type="frame">
		<g id="Layer_1_1_" figma:type="vector">
			<g transform="translate(2181.72 7255.6)">
				<path id="path0_stroke" class="st0" d="M2261.8,7312.8v-8.7c-2.3,0-4.5,0.9-6.1,2.5c-1.6,1.6-2.5,3.8-2.5,6.1H2261.8z
					 M2324.8,7312.8h8.7c0-4.8-3.9-8.7-8.7-8.7V7312.8z M2337.7,7415.2l-1.2,8.6c3.2,0.4,6.4-0.9,8.2-3.5s2.1-6.1,0.7-8.9
					L2337.7,7415.2z M2261.8,7344.7h-8.7c0,0.2,0,0.4,0,0.6L2261.8,7344.7z M2261.8,7321.5h63v-17.3h-63V7321.5z M2316.1,7312.8
					v47.6h17.3v-47.6H2316.1z M2316.1,7360.4c0.1,20.8,5.2,41.4,13.9,58.7l15.5-7.8c-7.9-15.5-12.1-32.2-12-50.9H2316.1z
					 M2338.9,7406.6c-15.5-2.1-31.6-8.6-45-19.8c-13.1-10.8-22.3-25.2-23.5-42.7l-17.3,1.2c1.6,23.3,13.9,41.8,29.7,54.9
					c15.6,12.7,36,21,53.6,23.6L2338.9,7406.6z M2270.4,7344.7v-31.9h-17.3v31.9H2270.4z"/>
			</g>
		</g>
		<g id="Layer_2" figma:type="vector">
			<g transform="translate(2202.94 7255.6)">
				<path id="path1_stroke" class="st0" d="M2587.6,7344.7h8.7H2587.6z M2511.7,7415.2l-7.7-3.9c-1.5,2.9-1.2,6.3,0.7,8.9
					s5.1,4,8.2,3.5L2511.7,7415.2z M2524.7,7312.8v-8.7c-4.8,0-8.7,3.9-8.7,8.7H2524.7z M2587.6,7312.8h8.7c0-4.8-3.9-8.7-8.7-8.7
					V7312.8z M2579,7344.7c0,17-8.9,31.2-22.3,42c-13.8,11.2-30.6,17.7-46.1,19.8l2.4,17.1c17.5-2.5,38.6-10.8,54.6-23.5
					c16.2-13.1,28.8-31.8,28.8-55.5H2579z M2519.5,7419.1c8.6-17.2,13.8-37.8,13.9-58.7H2516c0.1,18.7-4.1,35.4-12,50.9
					L2519.5,7419.1z M2533.3,7360.4v-47.6H2516v47.6H2533.3z M2524.7,7321.5h63v-17.3h-63V7321.5z M2579,7312.8v31.9h17.3v-31.9
					H2579z"/>
			</g>
		</g>
		<g id="Layer_3" figma:type="vector">
			<g transform="translate(2187.21 7253.49)">
				<path id="path2_fill" class="st1" d="M2425.6,7463.8c-54.7,0-99.1-42.7-99.1-95.2V7288h198.3v80.6
					C2524.7,7421.1,2480.2,7463.8,2425.6,7463.8z"/>
			</g>
			<g transform="translate(2187.21 7253.49)">
				<path id="path3_stroke" class="st0" d="M2326.5,7288v-8.7c-4.8,0-8.7,3.9-8.7,8.7H2326.5z M2524.7,7288h8.7
					c0-4.8-3.9-8.7-8.7-8.7V7288z M2425.6,7455.2c-4.8,0-8.7,3.9-8.7,8.7c0,4.8,3.9,8.7,8.7,8.7V7455.2z M2425.6,7455.2
					c-50.2,0-90.5-39.2-90.5-86.5h-17.3c0,57.6,48.7,103.9,107.8,103.9V7455.2z M2335.1,7368.6V7288h-17.3v80.6H2335.1z
					 M2326.5,7296.6h198.3v-17.3h-198.3V7296.6z M2516.1,7288v80.6h17.3V7288H2516.1z M2516.1,7368.6c0,47.4-40.3,86.5-90.5,86.5
					v17.3c59.1,0,107.8-46.3,107.8-103.9H2516.1z"/>
			</g>
		</g>
		<g id="Layer_4" figma:type="vector">
			<g transform="translate(2186.11 7251)">
				<path id="path4_fill" class="st1" d="M2313.5,7273.3c0-8.1,6.6-14.7,14.7-14.7H2523c8.1,0,14.7,6.6,14.7,14.7
					s-6.6,14.7-14.7,14.7h-194.8C2320.1,7288,2313.5,7281.4,2313.5,7273.3z"/>
			</g>
			<g transform="translate(2186.11 7251)">
				<path id="path5_stroke" class="st0" d="M2328.1,7267.3H2523V7250h-194.8V7267.3z M2523,7279.3h-194.8v17.3H2523V7279.3z
					 M2328.1,7250c-12.9,0-23.3,10.4-23.3,23.3h17.3c0-3.3,2.7-6,6-6V7250z M2523,7267.3c3.3,0,6,2.7,6,6h17.3
					c0-12.9-10.4-23.3-23.3-23.3V7267.3z M2529,7273.3c0,3.3-2.7,6-6,6v17.3c12.9,0,23.3-10.4,23.3-23.3H2529z M2328.1,7279.3
					c-3.3,0-6-2.7-6-6h-17.3c0,12.9,10.4,23.3,23.3,23.3V7279.3z"/>
			</g>
		</g>
		<g id="Layer_5" figma:type="vector">
			<g transform="translate(2175 7282.78)">
				<path id="path6_fill" class="st1" d="M2558.7,7703.8V7633h-257.3v70.9h-118.7v49.5h494.7v-49.5H2558.7z"/>
			</g>
			<g transform="translate(2175 7282.78)">
				<path id="path7_stroke" class="st0" d="M2558.7,7633h8.7c0-4.8-3.9-8.7-8.7-8.7V7633z M2301.3,7633v-8.7c-4.8,0-8.7,3.9-8.7,8.7
					H2301.3z M2301.3,7703.8v8.7c4.8,0,8.7-3.9,8.7-8.7H2301.3z M2182.6,7703.8v-8.7c-4.8,0-8.7,3.9-8.7,8.7H2182.6z M2182.6,7753.3
					h-8.7c0,4.8,3.9,8.7,8.7,8.7V7753.3z M2677.3,7753.3v8.7c4.8,0,8.7-3.9,8.7-8.7H2677.3z M2677.3,7703.8h8.7
					c0-4.8-3.9-8.7-8.7-8.7V7703.8z M2558.7,7695.2c-4.8,0-8.7,3.9-8.7,8.7s3.9,8.7,8.7,8.7V7695.2z M2567.3,7703.8V7633H2550v70.9
					H2567.3z M2558.7,7624.3h-257.3v17.3h257.3V7624.3z M2292.7,7633v70.9h17.3V7633H2292.7z M2301.3,7695.2h-118.7v17.3h118.7
					V7695.2z M2174,7703.8v49.5h17.3v-49.5H2174z M2182.6,7762h494.7v-17.3h-494.7V7762z M2686,7753.3v-49.5h-17.3v49.5H2686z
					 M2677.3,7695.2h-118.7v17.3h118.7V7695.2z"/>
			</g>
		</g>
		<g id="Layer_6" figma:type="vector">
			<g transform="translate(2189.18 7268.31)">
				<path id="path8_fill" class="st1" d="M2441.1,7539.5c0,9.3,0,29.8,10.6,29.8l30.9,0.3c10.8,0.1,19.6,8.9,19.6,19.8v14.6
					c0,0.3-0.2,0.5-0.5,0.5h-151.6c-0.3,0-0.5-0.2-0.5-0.5v-14.6c0-10.8,8.7-19.7,19.6-19.8l30.9-0.3c10.6,0,10.6-20.5,10.6-29.8
					v-76.9c4.8,0.7,9.8,1.1,14.8,1.1c5.3,0,10.5-0.4,15.6-1.2V7539.5z"/>
			</g>
			<g transform="translate(2189.18 7268.31)">
				<path id="path9_stroke" class="st0" d="M2451.7,7569.3l0.1-8.7h-0.1V7569.3z M2482.6,7569.6l-0.1,8.7L2482.6,7569.6z
					 M2400.1,7569.3v-8.7l-0.1,0L2400.1,7569.3z M2410.7,7462.7l1.2-8.6c-2.5-0.4-5,0.4-6.9,2s-3,4-3,6.5H2410.7z M2441.1,7462.5
					h8.7c0-2.5-1.1-4.9-3-6.6c-1.9-1.6-4.5-2.4-6.9-2L2441.1,7462.5z M2432.5,7539.5c0,4.6,0,13,1.5,20.1c0.8,3.6,2.1,7.8,4.6,11.3
					c2.8,3.8,7.2,6.9,13.2,6.9v-17.3c0.2-0.4,1.3,1.1,0.9,0.2c-0.5-0.6-1.1-2.1-1.7-4.8c-1.2-5.4-1.1-11.9-1.1-16.6H2432.5z
					 M2451.6,7578l30.9,0.3l0.2-17.3l-30.9-0.3L2451.6,7578z M2493.5,7589.4v14.6h17.3v-14.6H2493.5z M2493.5,7604
					c0-3.5,2.7-8.1,8.2-8.1v17.3c6,0,9.1-5.1,9.1-9.2H2493.5z M2501.7,7595.8h-151.6v17.3h151.6V7595.8z M2350.1,7595.8
					c5.5,0,8.2,4.6,8.2,8.1H2341c0,4.1,3.2,9.2,9.1,9.2V7595.8z M2358.3,7604v-14.6H2341v14.6H2358.3z M2369.3,7578.3l30.9-0.3
					l-0.2-17.3l-30.9,0.3L2369.3,7578.3z M2400.1,7578c6,0,10.4-3.1,13.2-6.9c2.5-3.5,3.8-7.7,4.6-11.3c1.5-7.2,1.5-15.5,1.5-20.1
					h-17.3c0,4.6,0,11.2-1.1,16.6c-0.6,2.7-1.2,4.1-1.7,4.8c-0.4,0.9,0.7-0.6,0.9-0.2V7578z M2419.4,7539.5v-76.9h-17.3v76.9H2419.4
					z M2409.5,7471.2c5.1,0.7,10.7,1.1,16.1,1.2v-17.3c-4.7,0-9.1-0.3-13.6-1L2409.5,7471.2z M2425.6,7472.4
					c5.6,0,11.5-0.5,16.9-1.3l-2.6-17.1c-4.8,0.7-9.3,1.1-14.3,1.1V7472.4z M2432.5,7462.5v77h17.3v-77H2432.5z M2482.5,7578.3
					c6.1,0.1,11,5,11,11.1h17.3c0-15.6-12.6-28.3-28.1-28.4L2482.5,7578.3z M2358.3,7589.4c0-6.1,4.9-11.1,11-11.1l-0.2-17.3
					c-15.6,0.2-28.1,12.9-28.1,28.4H2358.3z"/>
			</g>
		</g>
	</g>
</g>
</svg>
