<?xml version="1.0" encoding="utf-8"?>
<!-- Generator: Adobe Illustrator 21.0.0, SVG Export Plug-In . SVG Version: 6.00 Build 0)  -->
<svg version="1.1" id="Layer_1" xmlns:figma="http://www.figma.com/figma/ns"
	 xmlns="http://www.w3.org/2000/svg" xmlns:xlink="http://www.w3.org/1999/xlink" x="0px" y="0px" width="512px" height="512px"
	 viewBox="0 0 512 512" enable-background="new 0 0 512 512" xml:space="preserve">
<title>41-web-seo-internet-layout</title>
<desc>Created using Figma</desc>
<g>
	<path fill="#F66290" d="M496.6,7H15.4C10.8,7,7,10.8,7,15.4v105.9v0v375.3v0c0,4.7,3.8,8.4,8.4,8.4h154c0,0,0,0,0.1,0h327.1
		c4.7,0,8.4-3.8,8.4-8.4V121.3V15.4C505,10.8,501.2,7,496.6,7z M488.2,112.9H23.8v-89h464.3V112.9z M488.2,488.2H177.8V129.7h310.3
		V488.2z M23.8,488.2V129.7H161v358.5H23.8z"/>
	<path fill="#F66290" d="M251.2,206.7h168.4c4.7,0,8.4-3.8,8.4-8.4s-3.8-8.4-8.4-8.4H251.2c-4.7,0-8.4,3.8-8.4,8.4
		S246.5,206.7,251.2,206.7z"/>
	<path fill="#F66290" d="M251.2,251.1h168.4c4.7,0,8.4-3.8,8.4-8.4s-3.8-8.4-8.4-8.4H251.2c-4.7,0-8.4,3.8-8.4,8.4
		S246.5,251.1,251.2,251.1z"/>
	<path fill="#F66290" d="M323.4,278.7h-72.2c-4.7,0-8.4,3.8-8.4,8.4c0,4.7,3.8,8.4,8.4,8.4h72.2c4.7,0,8.4-3.8,8.4-8.4
		C331.8,282.5,328,278.7,323.4,278.7z"/>
</g>
</svg>
