<?xml version="1.0" encoding="utf-8"?>
<!-- Generator: Adobe Illustrator 21.0.0, SVG Export Plug-In . SVG Version: 6.00 Build 0)  -->
<svg version="1.1" id="Layer_1" xmlns:figma="http://www.figma.com/figma/ns"
	 xmlns="http://www.w3.org/2000/svg" xmlns:xlink="http://www.w3.org/1999/xlink" x="0px" y="0px" width="512px" height="512px"
	 viewBox="0 0 512 512" enable-background="new 0 0 512 512" xml:space="preserve">
<title>33-web-seo-internet-map-mind</title>
<desc>Created using Figma</desc>
<g>
	<path fill="#F66290" d="M135.2,81.3H377c4.7,0,8.5-3.8,8.5-8.5s-3.8-8.5-8.5-8.5H135.2c-4.7,0-8.5,3.8-8.5,8.5
		S130.6,81.3,135.2,81.3z"/>
	<path fill="#F66290" d="M377,107.6H135.2c-4.7,0-8.5,3.8-8.5,8.5c0,4.7,3.8,8.5,8.5,8.5H377c4.7,0,8.5-3.8,8.5-8.5
		C385.4,111.3,381.6,107.6,377,107.6z"/>
	<path fill="#F66290" d="M231.9,150.6h-96.7c-4.7,0-8.5,3.8-8.5,8.5c0,4.7,3.8,8.5,8.5,8.5h96.7c4.7,0,8.5-3.8,8.5-8.5
		C240.4,154.4,236.6,150.6,231.9,150.6z"/>
	<path fill="#F66290" d="M299.6,150.6h-29c-4.7,0-8.5,3.8-8.5,8.5c0,4.7,3.8,8.5,8.5,8.5h29c4.7,0,8.5-3.8,8.5-8.5
		C308.1,154.4,304.3,150.6,299.6,150.6z"/>
	<path fill="#F66290" d="M497.8,361.2h-54.4v-63.4c0-4.7-3.8-8.5-8.5-8.5H264.6V225h165.6c4.7,0,8.5-3.8,8.5-8.5v-201
		c0-4.7-3.8-8.5-8.5-8.5H82.1c-4.7,0-8.5,3.8-8.5,8.5v201c0,4.7,3.8,8.5,8.5,8.5h165.6v64.4H77.2c-4.7,0-8.5,3.8-8.5,8.5v65.8H14.4
		c-4.7,0-8.5,3.8-8.5,8.5v124.5c0,4.7,3.8,8.5,8.5,8.5h125.7c4.7,0,8.5-3.8,8.5-8.5V372.1c0-4.7-3.8-8.5-8.5-8.5H85.7v-57.3h162
		v54.9h-54.4c-4.7,0-8.5,3.8-8.5,8.5v124.5c0,4.7,3.8,8.5,8.5,8.5H319c4.7,0,8.5-3.8,8.5-8.5V369.7c0-4.7-3.8-8.5-8.5-8.5h-54.4
		v-54.9h162v54.9h-54.4c-4.7,0-8.5,3.8-8.5,8.5v124.5c0,4.7,3.8,8.5,8.5,8.5h125.7c4.7,0,8.5-3.8,8.5-8.5V369.7
		C506.3,365,502.5,361.2,497.8,361.2z M131.6,488.1H22.8V380.5h108.8V488.1z M90.5,23.9h331.2V208H90.5V23.9z M310.5,485.7H201.7
		V378.1h54.2c0.1,0,0.1,0,0.2,0s0.1,0,0.2,0h54.2V485.7z M489.4,485.7H380.6V378.1h108.8V485.7z"/>
</g>
</svg>
