<?xml version="1.0" encoding="utf-8"?>
<!-- Generator: Adobe Illustrator 21.0.0, SVG Export Plug-In . SVG Version: 6.00 Build 0)  -->
<svg version="1.1" id="Layer_1" xmlns:figma="http://www.figma.com/figma/ns"
	 xmlns="http://www.w3.org/2000/svg" xmlns:xlink="http://www.w3.org/1999/xlink" x="0px" y="0px" viewBox="0 0 512 512"
	 style="enable-background:new 0 0 512 512;" xml:space="preserve">
<style type="text/css">
	.st0{fill:#E1F2FA;}
	.st1{fill:#F66290;}
	.st2{fill:#FEEEF3;}
</style>
<title>33-web-seo-internet-map-mind</title>
<desc>Created using Figma</desc>
<g id="Canvas" transform="translate(-2941 -7017)" figma:type="canvas">
	<g id="_x33_3-web-seo-internet-map-mind" figma:type="frame">
		<g id="Layer_1_1_" figma:type="vector">
			<g transform="translate(2962.58 7035.88)">
				<path id="path0_fill" class="st0" d="M3197,7237.7v150.7V7237.7z"/>
			</g>
			<g transform="translate(2962.58 7035.88)">
				<path id="path1_stroke" class="st1" d="M3205.6,7237.7c0-4.7-3.8-8.6-8.6-8.6c-4.7,0-8.6,3.8-8.6,8.6H3205.6z M3188.4,7388.4
					c0,4.7,3.8,8.6,8.6,8.6c4.7,0,8.6-3.8,8.6-8.6H3188.4z M3188.4,7237.7v150.7h17.2v-150.7H3188.4z"/>
			</g>
		</g>
		<g id="Layer_2" figma:type="vector">
			<g transform="translate(2947.46 7042.53)">
				<path id="path2_stroke" class="st1" d="M3006.8,7388.4c0,4.7,3.8,8.6,8.6,8.6c4.7,0,8.6-3.8,8.6-8.6H3006.8z M3015.4,7315.5
					v-8.6c-4.7,0-8.6,3.8-8.6,8.6H3015.4z M3378.6,7315.5h8.6c0-4.7-3.8-8.6-8.6-8.6V7315.5z M3370,7388.4c0,4.7,3.8,8.6,8.6,8.6
					s8.6-3.8,8.6-8.6H3370z M3023.9,7388.4v-72.9h-17.2v72.9H3023.9z M3015.4,7324.1h363.3v-17.2h-363.3V7324.1z M3370,7315.5v72.9
					h17.2v-72.9H3370z"/>
			</g>
		</g>
		<g id="Layer_3" figma:type="vector">
			<g transform="translate(2947.88 7018)">
				<path id="path3_fill" class="st2" d="M3020.3,7028.8h353.5v204.1h-353.5V7028.8z"/>
			</g>
			<g transform="translate(2947.88 7018)">
				<path id="path4_stroke" class="st1" d="M3020.3,7028.8v-8.6c-4.7,0-8.6,3.8-8.6,8.6H3020.3z M3373.7,7028.8h8.6
					c0-4.7-3.8-8.6-8.6-8.6V7028.8z M3373.7,7232.9v8.6c4.7,0,8.6-3.8,8.6-8.6H3373.7z M3020.3,7232.9h-8.6c0,4.7,3.8,8.6,8.6,8.6
					V7232.9z M3020.3,7037.3h353.5v-17.2h-353.5V7037.3z M3365.1,7028.8v204.1h17.2v-204.1H3365.1z M3373.7,7224.3h-353.5v17.2
					h353.5V7224.3z M3028.9,7232.9v-204.1h-17.2v204.1H3028.9z"/>
			</g>
		</g>
		<g id="Layer_4" figma:type="vector">
			<g transform="translate(2952.5 7022.57)">
				<path id="path5_fill" class="st0" d="M3074.3,7087h245.5H3074.3z"/>
			</g>
			<g transform="translate(2952.5 7022.57)">
				<path id="path6_stroke" class="st1" d="M3074.3,7078.4c-4.7,0-8.6,3.8-8.6,8.6c0,4.7,3.8,8.6,8.6,8.6V7078.4z M3319.7,7095.6
					c4.7,0,8.6-3.8,8.6-8.6c0-4.7-3.8-8.6-8.6-8.6V7095.6z M3074.3,7095.6h245.5v-17.2h-245.5V7095.6z"/>
			</g>
		</g>
		<g id="Layer_5" figma:type="vector">
			<g transform="translate(2952.5 7026.32)">
				<path id="path5_fill_1_" class="st0" d="M3074.3,7130.9h245.5H3074.3z"/>
			</g>
			<g transform="translate(2952.5 7026.32)">
				<path id="path6_stroke_1_" class="st1" d="M3074.3,7122.3c-4.7,0-8.6,3.8-8.6,8.6s3.8,8.6,8.6,8.6V7122.3z M3319.7,7139.5
					c4.7,0,8.6-3.8,8.6-8.6s-3.8-8.6-8.6-8.6V7139.5z M3074.3,7139.5h245.5v-17.2h-245.5V7139.5z"/>
			</g>
		</g>
		<g id="Layer_6" figma:type="vector">
			<g transform="translate(2952.5 7030.06)">
				<path id="path7_fill" class="st0" d="M3074.3,7174.6h98.2H3074.3z"/>
			</g>
			<g transform="translate(2952.5 7030.06)">
				<path id="path8_stroke" class="st1" d="M3074.3,7166c-4.7,0-8.6,3.8-8.6,8.6c0,4.7,3.8,8.6,8.6,8.6V7166z M3172.5,7183.2
					c4.7,0,8.6-3.8,8.6-8.6c0-4.7-3.8-8.6-8.6-8.6V7183.2z M3074.3,7183.2h98.2V7166h-98.2V7183.2z"/>
			</g>
		</g>
		<g id="Layer_7" figma:type="vector">
			<g transform="translate(2964.26 7030.06)">
				<path id="path9_fill" class="st0" d="M3211.7,7174.6h29.5H3211.7z"/>
			</g>
			<g transform="translate(2964.26 7030.06)">
				<path id="path10_stroke" class="st1" d="M3211.7,7166c-4.7,0-8.6,3.8-8.6,8.6c0,4.7,3.8,8.6,8.6,8.6V7166z M3241.2,7183.2
					c4.7,0,8.6-3.8,8.6-8.6c0-4.7-3.8-8.6-8.6-8.6V7183.2z M3211.7,7183.2h29.5V7166h-29.5V7183.2z"/>
			</g>
		</g>
		<g id="Layer_8" figma:type="vector">
			<g transform="translate(2942 7048.98)">
				<path id="path11_fill" class="st2" d="M2951.5,7390.9h127.6v126.4h-127.6V7390.9z"/>
			</g>
			<g transform="translate(2942 7048.98)">
				<path id="path12_stroke" class="st1" d="M2951.5,7390.9v-8.6c-4.7,0-8.6,3.8-8.6,8.6H2951.5z M3079.2,7390.9h8.6
					c0-4.7-3.8-8.6-8.6-8.6V7390.9z M3079.2,7517.2v8.6c4.7,0,8.6-3.8,8.6-8.6H3079.2z M2951.5,7517.2h-8.6c0,4.7,3.8,8.6,8.6,8.6
					V7517.2z M2951.5,7399.5h127.6v-17.2h-127.6V7399.5z M3070.6,7390.9v126.4h17.2v-126.4H3070.6z M3079.2,7508.7h-127.6v17.2
					h127.6V7508.7z M2960.1,7517.2v-126.4h-17.2v126.4H2960.1z"/>
			</g>
		</g>
		<g id="Layer_9" figma:type="vector">
			<g transform="translate(2957.54 7048.77)">
				<path id="path11_fill_1_" class="st2" d="M3133.2,7388.4h127.6v126.4h-127.6V7388.4z"/>
			</g>
			<g transform="translate(2957.54 7048.77)">
				<path id="path12_stroke_1_" class="st1" d="M3133.2,7388.4v-8.6c-4.7,0-8.6,3.8-8.6,8.6H3133.2z M3260.8,7388.4h8.6
					c0-4.7-3.8-8.6-8.6-8.6V7388.4z M3260.8,7514.8v8.6c4.7,0,8.6-3.8,8.6-8.6H3260.8z M3133.2,7514.8h-8.6c0,4.7,3.8,8.6,8.6,8.6
					V7514.8z M3133.2,7397h127.6v-17.2h-127.6V7397z M3252.2,7388.4v126.4h17.2v-126.4H3252.2z M3260.8,7506.2h-127.6v17.2h127.6
					V7506.2z M3141.8,7514.8v-126.4h-17.2v126.4H3141.8z"/>
			</g>
		</g>
		<g id="Layer_10" figma:type="vector">
			<g transform="translate(2973.08 7048.77)">
				<path id="path11_fill_2_" class="st2" d="M3314.8,7388.4h127.6v126.4h-127.6V7388.4z"/>
			</g>
			<g transform="translate(2973.08 7048.77)">
				<path id="path12_stroke_2_" class="st1" d="M3314.8,7388.4v-8.6c-4.7,0-8.6,3.8-8.6,8.6H3314.8z M3442.5,7388.4h8.6
					c0-4.7-3.8-8.6-8.6-8.6V7388.4z M3442.5,7514.8v8.6c4.7,0,8.6-3.8,8.6-8.6H3442.5z M3314.8,7514.8h-8.6c0,4.7,3.8,8.6,8.6,8.6
					V7514.8z M3314.8,7397h127.6v-17.2h-127.6V7397z M3433.9,7388.4v126.4h17.2v-126.4H3433.9z M3442.5,7506.2h-127.6v17.2h127.6
					V7506.2z M3323.4,7514.8v-126.4h-17.2v126.4H3323.4z"/>
			</g>
		</g>
	</g>
</g>
</svg>
