<?xml version="1.0" encoding="utf-8"?>
<!-- Generator: Adobe Illustrator 21.0.0, SVG Export Plug-In . SVG Version: 6.00 Build 0)  -->
<svg version="1.1" id="Layer_1" xmlns:figma="http://www.figma.com/figma/ns"
	 xmlns="http://www.w3.org/2000/svg" xmlns:xlink="http://www.w3.org/1999/xlink" x="0px" y="0px" width="512px" height="512px"
	 viewBox="0 0 512 512" enable-background="new 0 0 512 512" xml:space="preserve">
<title>7-baby-duck</title>
<desc>Created using Figma</desc>
<g>
	<path fill="#F66290" d="M422.4,117.7l4.7-7l-8.3,1.6C419.2,114.5,420.5,116.5,422.4,117.7z"/>
	<path fill="#F66290" d="M504.8,162.4c-0.2-2.2-0.7-4.6-1.2-6.2c-0.4-1.4-1.5-4.2-3.9-6.3l0,0c0,0,0,0,0,0c0,0,0,0,0,0l0,0
		c-1-0.8-6-4.2-12-8.3c-6.4-4.4-14.8-10-23-15.6c-8.3-5.6-16.5-11.2-22.6-15.3c-3.1-2.1-5.6-3.8-7.4-5
		c-5.1-23.1-16.1-48.2-34.5-66.9c-20-20.1-48.9-33.1-88.5-31.7v0c-49,1.8-81,22.2-100.4,49.6c-18.6,26.7-25.2,60.3-24.5,86.6
		l8.4-0.2l-8.4,0.2c1.3,50.5,25.8,78.8,48.1,96.5c-59.1,1-98.1,17.2-128.3,28.2c-17.5,6.4-31.1,10.5-44.1,9.9
		c-12.5-0.5-25.5-5.5-41.3-19.6c-2.6-2.3-6.2-2.8-9.3-1.3c-3.1,1.5-4.9,4.7-4.7,8.1l8.4-0.6l0,0L7,265.2
		C17.9,425.1,115.9,505,194.3,505H325c42.8,0,78.7-12.1,104-34.8c25.4-22.8,39.3-55.6,39.3-95.2c-0.3-39.7-19.1-72.9-36.6-96.6
		c-8.8-11.9-17.3-21.7-23.1-29.3c-2.9-3.7-4.8-6.5-6-8.8c-0.3-0.7-0.5-1.1-0.6-1.4c0.8-2,2.2-4.4,4.3-7.8c1.7-2.7,3.7-5.8,5.9-9.2
		c4.6,0.6,9.2,1,13.4,1c4.5,0,12.3,1.3,21.8,1.2c9.3-0.2,21.3-2.4,31.9-9.1c15.4-10.1,22.2-24.4,24.6-36.5
		C505.1,172.5,505.2,166.5,504.8,162.4z M487.4,161.1C487.4,161,487.4,161,487.4,161.1L487.4,161.1z M487.4,175.2
		c-1.7,8.6-6.5,18.6-17.3,25.7c-7.6,5.2-14.9,6.3-23,6.4c-7.9,0.2-15.6-1.2-21.5-1.2c-5.2,0-10.5-0.5-15.8-1.6
		c-3.5-0.7-7,0.8-8.9,3.8l7.2,4.4l0,0l-7.2-4.4c-3.2,5.2-6.3,9.8-8.9,14c-2.6,4.2-5,8.6-6.3,12.2l0,0l8,2.7l0,0l-8-2.7
		c-1.8,5.3,0.3,10.4,1.9,13.6c1.8,3.4,4.6,7.4,7.7,11.4c6.1,7.9,14.5,17.6,22.9,29c16.9,22.9,33.6,51.3,33.3,86.6
		c0,35.4-12.3,63.4-33.7,82.7c-21.5,19.3-53,30.5-92.7,30.5H194.3c-64.2,0-152.3-64.4-168.7-205.2c12.2,7.7,24,11.3,36.1,11.8
		c16.7,0.7,33.2-4.6,50.6-10.9c35.1-12.7,78.1-31.3,149.2-26.6c3.8,0.2,7.3-2.1,8.5-5.7c1.2-3.6-0.1-7.6-3.2-9.7
		c-23.6-16-61.6-39.2-63.1-99h0c-0.7-24.5,4.6-53,21.5-76.5c16.1-22.9,43.2-40.8,87.2-42.5h0l-0.2-5.6l-0.1-2.8l0.3,8.4
		c35.2-1.3,59.4,10.1,75.9,26.7c17.2,17.1,26.3,39.3,30.6,61.7l8.3-1.6c0,0,0,0,0,0c-4.7,7-4.7,7-4.7,7c0,0,0,0,0,0c0,0,0,0,0,0
		c0,0,0,0,0,0c0,0,0.1,0.1,0.1,0.1c0.1,0.1,0.3,0.2,0.5,0.4c0.5,0.3,1.2,0.8,2.1,1.4c1.8,1.2,4.3,2.9,7.4,5
		c6.1,4.1,14.3,9.7,22.6,15.3s16.6,11.3,23,15.6c4.3,3,7.9,5.4,9.6,6.6c0.1,0.5,0.2,1.1,0.3,2C488.4,167.2,488.3,170.7,487.4,175.2z
		"/>
	<path fill="#F66290" d="M324,328.7c-18.3-11.8-46.3-18.4-86.2-18.4c-28.8,0-60.5,0-84.9,2c-12.3,1-23.5,2.6-31.3,5
		c-4,1.2-8,2.9-11.1,5.3c-3.2,2.5-6.3,6.4-6.3,11.9c0,19.4,14.4,44.2,34.4,64.5c20.4,20.8,48.6,39,79.3,44.2l1.4-8.3l-1.4,8.3
		c34.3,5.8,67-1,91.2-13.7c23.5-12.3,41.7-31.8,41.7-52.6C350.6,358.1,342.8,340.9,324,328.7z M301.1,414.6
		c-21.1,11.1-50,17.2-80.5,12v0c-26.2-4.4-51.4-20.4-70.1-39.4c-18.4-18.8-28.9-38.7-29.5-51.5c0.9-0.6,2.6-1.4,5.5-2.3
		c6.6-2,16-3.4,27.8-4.3c23.8-1.9,54.7-1.9,83.6-1.9c38.5,0,62.7,6.4,77,15.7c13.7,8.9,18.9,20.6,18.9,34
		C333.8,388.1,322.9,403.1,301.1,414.6z"/>
	<path fill="#F66290" d="M318.6,84c-20.6,0-37.3,16.7-37.3,37.3c0,4.7,3.8,8.4,8.4,8.4s8.4-3.8,8.4-8.4c0-11.3,9.2-20.5,20.5-20.5
		S339,110,339,121.3c0,4.7,3.8,8.4,8.4,8.4c4.7,0,8.4-3.8,8.4-8.4C355.9,100.7,339.2,84,318.6,84z"/>
</g>
</svg>
