<?xml version="1.0" encoding="utf-8"?>
<!-- Generator: Adobe Illustrator 21.0.0, SVG Export Plug-In . SVG Version: 6.00 Build 0)  -->
<svg version="1.1" id="Layer_1" xmlns:figma="http://www.figma.com/figma/ns"
	 xmlns="http://www.w3.org/2000/svg" xmlns:xlink="http://www.w3.org/1999/xlink" x="0px" y="0px" viewBox="0 0 512 512"
	 style="enable-background:new 0 0 512 512;" xml:space="preserve">
<style type="text/css">
	.st0{fill:#FEEEF3;}
	.st1{fill:#F66290;}
	.st2{fill:#FFFFFF;}
	.st3{fill:#E1F2FA;}
</style>
<title>7-baby-duck</title>
<desc>Created using Figma</desc>
<g id="Canvas" transform="translate(-8643 -5975)" figma:type="canvas">
	<g id="_x37_-baby-duck" figma:type="frame">
		<g id="Layer_1_1_" figma:type="vector">
			<g transform="translate(8644 5976)">
				<path id="path0_fill" class="st0" d="M8836.5,6114.9c-1.3-52.3,24.4-127.6,120.1-131.2c76.9-2.9,109,50.2,118.4,97.9
					c0,0,67,45.2,69.1,47c3.7,3,6.8,35.2-20.2,52.9c-18.7,12.3-39.7,6.7-50.5,6.7c-5.8,0-12.1-0.6-18.1-1.9
					c-6.7,10.9-12.8,19.3-14.7,25.1c-5,15.1,68,64.7,68,141.8c0,77.1-53.8,125-138.6,125h-134.4c-74.7,0-173-77.1-183.9-238.4
					c69.7,62.1,103.3-25.7,253.4-16.3C8881,6207.2,8838.1,6181.2,8836.5,6114.9z"/>
			</g>
			<g transform="translate(8644 5976)">
				<path id="path1_stroke" class="st1" d="M8956.5,5983.8l0.3,8.7h0L8956.5,5983.8z M9074.9,6081.7l-8.5,1.7
					c0.4,2.2,1.8,4.2,3.7,5.5L9074.9,6081.7z M9144,6128.6l-5.5,6.7l0,0L9144,6128.6z M9123.8,6181.5l-4.7-7.2l0,0L9123.8,6181.5z
					 M9055.2,6186.4l1.8-8.5c-3.6-0.8-7.2,0.8-9.2,3.9L9055.2,6186.4z M9040.5,6211.5l-8.2-2.8l0,0L9040.5,6211.5z M8651.7,6239.9
					l5.8-6.5c-2.6-2.3-6.4-2.9-9.6-1.3c-3.2,1.5-5.1,4.9-4.8,8.4L8651.7,6239.9z M8905.1,6223.7l-0.5,8.6c3.9,0.2,7.5-2.1,8.7-5.8
					s-0.1-7.8-3.3-10L8905.1,6223.7z M8845.1,6114.7c-0.7-25.2,4.7-54.5,22.1-78.7c16.6-23.5,44.4-42,89.7-43.6l-0.6-17.3
					c-50.4,1.9-83.3,22.8-103.2,51c-19.1,27.4-25.9,62-25.2,89.1L8845.1,6114.7z M8956.8,5992.4c36.2-1.3,61,10.4,78.1,27.5
					c17.7,17.6,27,40.4,31.5,63.5l17-3.3c-4.9-24.7-16.3-52.2-36.2-72.3c-20.6-20.7-50.2-34.1-91-32.5L8956.8,5992.4z
					 M9074.9,6081.7c-4.8,7.2-4.8,7.2-4.8,7.2s0,0,0,0c0,0,0,0,0,0c0,0,0,0,0,0c0,0,0.1,0.1,0.1,0.1c0.1,0.1,0.3,0.2,0.6,0.4
					c0.5,0.3,1.2,0.8,2.1,1.4c1.8,1.2,4.5,3,7.6,5.1c6.3,4.3,14.7,10,23.2,15.7c8.5,5.8,17.1,11.6,23.6,16
					c6.6,4.5,11.3,7.8,11.1,7.6l11-13.3c-0.9-0.8-6.1-4.3-12.3-8.6c-6.6-4.5-15.2-10.3-23.7-16.1c-8.5-5.8-16.9-11.5-23.3-15.7
					c-3.2-2.1-5.8-3.9-7.6-5.1c-0.9-0.6-1.6-1.1-2.1-1.4c-0.2-0.2-0.4-0.3-0.6-0.4c-0.1,0-0.1-0.1-0.1-0.1c0,0,0,0,0,0c0,0,0,0,0,0
					c0,0,0,0,0,0C9079.7,6074.5,9079.7,6074.5,9074.9,6081.7z M9138.5,6135.3c-1.6-1.3-1.8-2.7-1.5-1.7c0.3,0.7,0.4,1.5,0.5,2.9
					c0.3,3.2,0.3,6.7-0.7,11.3c-1.8,8.9-6.7,19.1-17.8,26.4l9.5,14.5c15.8-10.4,22.8-25.1,25.3-37.5c1.2-6.1,1.3-12.2,0.9-16.5
					c-0.2-2.3-0.7-4.7-1.3-6.4c-0.4-1.4-1.5-4.4-4.1-6.5L9138.5,6135.3z M9119.1,6174.3c-7.8,5.3-15.3,6.4-23.6,6.6
					c-8.1,0.2-16-1.2-22.2-1.2v17.3c4.7,0,12.7,1.4,22.4,1.2c9.6-0.2,21.9-2.4,32.8-9.4L9119.1,6174.3z M9073.3,6179.6
					c-5.4,0-10.8-0.5-16.3-1.7l-3.6,16.9c6.4,1.3,13.6,2,19.8,2.1V6179.6z M9047.9,6181.9c-3.3,5.3-6.5,10.1-9.1,14.4
					c-2.7,4.3-5.2,8.8-6.5,12.5l16.4,5.5c0.7-2.2,2.2-4.9,4.8-8.9c2.5-4.1,5.7-8.9,9.2-14.5L9047.9,6181.9z M9032.3,6208.8
					c-1.8,5.4,0.3,10.7,2,14c1.8,3.5,4.7,7.6,7.9,11.7c6.3,8.2,14.9,18.1,23.5,29.8c17.4,23.5,34.5,52.7,34.2,89.1h17.3
					c-0.3-40.8-19.7-75-37.6-99.3c-9-12.2-17.7-22.3-23.7-30.1c-3-3.8-5-6.7-6.2-9.1c-1.3-2.6-0.4-2.2-1-0.6L9032.3,6208.8z
					 M9099.9,6353.4c0,36.4-12.6,65.2-34.6,85c-22.1,19.8-54.5,31.3-95.3,31.3v17.3c44,0,80.9-12.4,106.9-35.8
					c26.1-23.5,40.4-57.2,40.4-97.9H9099.9z M8969.9,6469.7h-134.4v17.3h134.4V6469.7z M8835.6,6469.7
					c-68.8,0-164.5-72.1-175.3-230.4l-17.3,1.2c11.1,164.4,111.9,246.5,192.6,246.5V6469.7z M8645.9,6246.4
					c18.5,16.5,35.5,23.7,53.3,24.5c17.2,0.7,34.1-4.8,52-11.2c36.1-13.1,80.3-32.2,153.4-27.4l1.1-17.3
					c-77.1-4.6-124.7,15.4-160.4,28.4c-18,6.5-32,10.8-45.3,10.2c-12.9-0.5-26.2-5.6-42.5-20.1L8645.9,6246.4z M8910,6216.5
					c-24.3-16.5-63.3-40.3-64.9-101.8l-17.3,0.4c1.8,71.1,48.4,99.3,72.4,115.7L8910,6216.5z"/>
			</g>
		</g>
		<g id="Layer_2" figma:type="vector">
			<g transform="translate(8652.48 6002.48)">
				<path id="path2_fill" class="st2" d="M8861.2,6415c-58.5-9.9-109.6-70.3-109.6-103.3c0-16.1,69.5-16.1,128.8-16.1
					c80.6,0,107.3,26.7,107.3,59.7S8927.9,6426.3,8861.2,6415z"/>
			</g>
			<g transform="translate(8652.48 6002.48)">
				<path id="path3_stroke" class="st1" d="M8862.6,6406.4c-27-4.6-52.8-20.9-72-40.5c-19.6-20-30.4-41.2-30.4-54.2h-17.3
					c0,20,14.8,45.4,35.3,66.3c21,21.3,49.9,40.1,81.5,45.5L8862.6,6406.4z M8760.2,6311.7c0,1.6-1,2.1-0.3,1.5
					c0.8-0.6,2.6-1.6,5.9-2.6c6.8-2.1,16.4-3.5,28.6-4.4c24.4-2,56.3-2,85.9-2v-17.3c-29.6,0-62.2,0-87.3,2
					c-12.7,1-24.1,2.7-32.2,5.1c-4.1,1.3-8.2,3-11.4,5.4c-3.3,2.6-6.5,6.6-6.5,12.2H8760.2z M8880.3,6304.2
					c39.6,0,64.5,6.6,79.2,16.1c14.1,9.1,19.5,21.2,19.5,34.9h17.3c0-19.2-8-37-27.4-49.5c-18.8-12.1-47.6-18.9-88.6-18.9V6304.2z
					 M8979,6355.3c0,11.5-11.2,27-33.6,38.8c-21.7,11.4-51.4,17.7-82.8,12.4l-2.9,17.1c35.3,6,68.8-1.1,93.7-14.1
					c24.2-12.7,42.9-32.7,42.9-54.1H8979z"/>
			</g>
		</g>
		<g id="Layer_3" figma:type="vector">
			<g transform="translate(8667.94 5982.72)">
				<path id="path4_fill" class="st3" d="M8993,6092.5c0-16.4-13.3-29.7-29.7-29.7c-16.4,0-29.7,13.3-29.7,29.7"/>
			</g>
			<g transform="translate(8667.94 5982.72)">
				<path id="path5_stroke" class="st1" d="M8984.4,6092.5c0,4.8,3.9,8.7,8.7,8.7s8.7-3.9,8.7-8.7H8984.4z M8925,6092.5
					c0,4.8,3.9,8.7,8.7,8.7s8.7-3.9,8.7-8.7H8925z M9001.7,6092.5c0-21.2-17.2-38.3-38.3-38.3v17.3c11.6,0,21,9.4,21,21H9001.7z
					 M8963.3,6054.2c-21.2,0-38.3,17.2-38.3,38.3h17.3c0-11.6,9.4-21,21-21V6054.2z"/>
			</g>
		</g>
	</g>
</g>
</svg>
