<?xml version="1.0" encoding="utf-8"?>
<!-- Generator: Adobe Illustrator 16.0.0, SVG Export Plug-In . SVG Version: 6.00 Build 0)  -->
<!DOCTYPE svg PUBLIC "-//W3C//DTD SVG 1.1//EN" "http://www.w3.org/Graphics/SVG/1.1/DTD/svg11.dtd">
<svg version="1.1" id="Layer_1" xmlns="http://www.w3.org/2000/svg" xmlns:xlink="http://www.w3.org/1999/xlink" x="0px" y="0px"
	 width="512px" height="512px" viewBox="-227 -218.5 512 512" enable-background="new -227 -218.5 512 512" xml:space="preserve">
<g>
	<path fill="#FEFEFE" d="M182.013-105.455L-149.584,6.893v-224.694L182.013-105.455z"/>
	<path fill="none" stroke="#333333" d="M182.013-105.455L-149.584,6.893v-224.694L182.013-105.455z"/>
	<path fill="#FEFEFE" d="M-150.46,8.17l332.473-112.988L-150.46-217.802V8.17z M-150.454,223.327V8.17V223.327z M-150.454,223.327
		h23.117H-150.454z M-172.718,223.327h22.265H-172.718z M-150.454,223.327v0.54V223.327z"/>
	<path fill="none" stroke="#333333" d="M182.013-104.812L-150.46,8.17v-225.972L182.013-104.812z M-150.454,223.86V8.17v215.697
		V223.86z M-172.718,223.327h45.389H-172.718z"/>
	<path fill="#FEFEFE" d="M206.338-70.144L-125.256,42.202v-224.697L206.338-70.144z"/>
	<path fill="none" stroke="#333333" d="M206.338-70.144L-125.256,42.202v-224.697L206.338-70.144z"/>
	<path fill="#FEFEFE" d="M206.338-69.5l-332.47,112.98v-225.961L206.338-69.5L206.338-69.5z M-126.125,259.186V43.486V259.186z
		 M-148.39,258.637h45.386H-148.39z"/>
	<path fill="none" stroke="#333333" d="M206.338-69.5l-332.47,112.98v-225.961L206.338-69.5L206.338-69.5z M-126.125,259.186V43.486
		V259.186z M-148.39,258.637h45.386H-148.39z"/>
	<path fill="#FEFEFE" d="M232.238-34.834L-99.36,77.514v-224.698L232.238-34.834z"/>
	<path fill="none" stroke="#333333" d="M232.238-34.834L-99.36,77.514v-224.698L232.238-34.834z"/>
	<path fill="#FEFEFE" d="M-100.236,78.787L232.238-34.191l-332.474-112.993V78.787z M-100.236,293.941V78.787V293.941z
		 M-100.236,293.941h23.123h-23.116H-100.236z M-122.494,293.941h22.265H-122.494z M-100.229,293.941v0.547V293.941z"/>
	<path fill="none" stroke="#333333" d="M232.238-34.191L-100.236,78.787V-147.17L232.238-34.191z M-100.229,294.495V78.801V294.495z
		 M-122.494,293.948h45.39H-122.494z"/>
</g>
</svg>
