<?xml version="1.0" encoding="utf-8"?>
<!-- Generator: Adobe Illustrator 21.0.0, SVG Export Plug-In . SVG Version: 6.00 Build 0)  -->
<svg version="1.1" id="Layer_1" xmlns:figma="http://www.figma.com/figma/ns"
	 xmlns="http://www.w3.org/2000/svg" xmlns:xlink="http://www.w3.org/1999/xlink" x="0px" y="0px" width="512px" height="512px"
	 viewBox="0 0 512 512" enable-background="new 0 0 512 512" xml:space="preserve">
<title>31-files-folder</title>
<desc>Created using Figma</desc>
<path fill="#F66290" d="M484.1,77.7H164.9L149,46.6c-5.1-10-17.5-17.6-28.7-17.6H29C16.2,29,6,39.4,6,52.1v34.1v73V461
	c0,12.7,10.2,23,23,23h455.2c12.7,0,23-10.3,23-23V159.2v-58.5C507.1,88,496.9,77.7,484.1,77.7z M22.9,52.1c0-3.4,2.7-6.1,6-6.1
	h91.3c4.8,0,11.4,4,13.6,8.4L152.2,90c0,0,0,0,0,0.1c0.2,0.3,0.3,0.6,0.5,0.9c0,0.1,0.1,0.1,0.1,0.2c0.2,0.2,0.3,0.4,0.5,0.7
	c0.1,0.1,0.1,0.1,0.2,0.2c0.2,0.2,0.5,0.5,0.7,0.7c0,0,0,0,0.1,0c0.2,0.2,0.5,0.4,0.8,0.6c0.1,0,0.1,0.1,0.2,0.1
	c0.3,0.2,0.5,0.3,0.8,0.4c0,0,0.1,0,0.1,0c0.3,0.1,0.7,0.3,1,0.4c0.1,0,0.1,0,0.2,0.1c0.3,0.1,0.6,0.1,0.8,0.2c0.1,0,0.2,0,0.3,0
	c0.4,0,0.7,0.1,1.1,0.1h324.4c3.3,0,6,2.7,6,6.1v50H22.9V86.1V52.1z M484.1,467.1H29c-3.3,0-6-2.7-6-6.1V167.6h467.2V461
	C490.2,464.4,487.4,467.1,484.1,467.1z"/>
</svg>
