<?xml version="1.0" encoding="utf-8"?>
<!-- Generator: Adobe Illustrator 21.0.0, SVG Export Plug-In . SVG Version: 6.00 Build 0)  -->
<svg version="1.1" id="Layer_1" xmlns:figma="http://www.figma.com/figma/ns"
	 xmlns="http://www.w3.org/2000/svg" xmlns:xlink="http://www.w3.org/1999/xlink" x="0px" y="0px" viewBox="0 0 512 512"
	 style="enable-background:new 0 0 512 512;" xml:space="preserve">
<style type="text/css">
	.st0{fill:#FEEEF3;}
	.st1{fill:#F66290;}
</style>
<title>31-files-folder</title>
<desc>Created using Figma</desc>
<g id="Canvas" transform="translate(-2174 -7456)" figma:type="canvas">
	<g id="_x33_1-files-folder" figma:type="frame">
		<g id="Layer_1_1_" figma:type="vector">
			<g transform="translate(2175 7457)">
				<path id="path0_fill" class="st0" d="M2331.4,7538.5h330.4c8.2,0,14.8,6.6,14.8,14.8v367c0,8.2-6.6,14.8-14.8,14.8h-463.6
					c-8.2,0-14.8-6.6-14.8-14.8v-381.8v-34.7c0-8.2,6.6-14.9,14.8-14.9h93c8.2,0,17.8,5.9,21.6,13.2L2331.4,7538.5z"/>
			</g>
			<g transform="translate(2175 7457)">
				<path id="path1_stroke" class="st1" d="M2331.4,7529.9c-4.8,0-8.6,3.9-8.6,8.6c0,4.8,3.9,8.6,8.6,8.6V7529.9z M2312.8,7502.1
					l7.7-3.9L2312.8,7502.1z M2331.4,7547.1h330.4v-17.3h-330.4V7547.1z M2661.8,7547.1c3.3,0,6.1,2.7,6.1,6.2h17.3
					c0-12.9-10.4-23.5-23.4-23.5V7547.1z M2667.9,7553.3v367h17.3v-367H2667.9z M2667.9,7920.3c0,3.5-2.8,6.2-6.1,6.2v17.3
					c13,0,23.4-10.5,23.4-23.5H2667.9z M2661.8,7926.5h-463.6v17.3h463.6V7926.5z M2198.2,7926.5c-3.4,0-6.1-2.7-6.1-6.2h-17.3
					c0,12.9,10.4,23.5,23.4,23.5V7926.5z M2192.1,7920.3v-381.8h-17.3v381.8H2192.1z M2192.1,7538.5v-34.7h-17.3v34.7H2192.1z
					 M2192.1,7503.8c0-3.5,2.8-6.2,6.2-6.2v-17.3c-13,0-23.4,10.6-23.4,23.5H2192.1z M2198.2,7497.5h93v-17.3h-93V7497.5z
					 M2291.2,7497.5c4.9,0,11.6,4.1,13.9,8.5l15.4-7.9c-5.2-10.2-17.8-17.9-29.2-17.9V7497.5z M2305.1,7506.1l18.6,36.4l15.4-7.9
					l-18.6-36.4L2305.1,7506.1z"/>
			</g>
		</g>
		<g id="Layer_2" figma:type="vector">
			<g transform="translate(2175 7457)">
				<path id="path2_fill" class="st0" d="M2676.6,7612.8v-59.5c0-8.2-6.6-14.8-14.8-14.8h-330.4l-18.6-36.4
					c-3.8-7.3-13.4-13.2-21.6-13.2h-93c-8.2,0-14.8,6.7-14.8,14.9v34.7v74.4H2676.6z"/>
			</g>
			<g transform="translate(2175 7457)">
				<path id="path3_stroke" class="st1" d="M2331.4,7538.5l-7.7,3.9c1.5,2.9,4.4,4.7,7.7,4.7V7538.5z M2312.8,7502.1l7.7-3.9
					L2312.8,7502.1z M2183.4,7612.8h-8.6c0,4.8,3.9,8.6,8.6,8.6V7612.8z M2685.2,7612.8v-59.5h-17.3v59.5H2685.2z M2685.2,7553.3
					c0-12.9-10.4-23.5-23.4-23.5v17.3c3.3,0,6.1,2.7,6.1,6.2H2685.2z M2661.8,7529.9h-330.4v17.3h330.4V7529.9z M2339.1,7534.6
					l-18.6-36.4l-15.4,7.9l18.6,36.4L2339.1,7534.6z M2320.4,7498.2c-5.2-10.2-17.8-17.9-29.2-17.9v17.3c4.9,0,11.6,4.1,13.9,8.5
					L2320.4,7498.2z M2291.2,7480.3h-93v17.3h93V7480.3z M2198.2,7480.3c-13,0-23.4,10.6-23.4,23.5h17.3c0-3.5,2.8-6.2,6.2-6.2
					V7480.3z M2174.8,7503.8v34.7h17.3v-34.7H2174.8z M2174.8,7538.5v74.4h17.3v-74.4H2174.8z M2183.4,7621.5h493.1v-17.3h-493.1
					V7621.5z"/>
			</g>
		</g>
	</g>
</g>
</svg>
