<?xml version="1.0" encoding="utf-8"?>
<!-- Generator: Adobe Illustrator 21.0.0, SVG Export Plug-In . SVG Version: 6.00 Build 0)  -->
<svg version="1.1" id="Layer_1" xmlns:figma="http://www.figma.com/figma/ns"
	 xmlns="http://www.w3.org/2000/svg" xmlns:xlink="http://www.w3.org/1999/xlink" x="0px" y="0px" viewBox="0 0 512 512"
	 style="enable-background:new 0 0 512 512;" xml:space="preserve">
<style type="text/css">
	.st0{fill:#FEEEF3;}
	.st1{fill:#F66290;}
</style>
<title>37-food-grapes-fruit</title>
<desc>Created using Figma</desc>
<g id="Canvas" transform="translate(-8643 -6160)" figma:type="canvas">
	<g id="_x33_7-food-grapes-fruit" figma:type="frame">
		<g id="Layer_1_1_" figma:type="vector">
			<g transform="translate(8670.46 6171.5)">
				<path id="path0_fill" class="st0" d="M9019.6,6403.8c30.8,0,55.7-24.9,55.7-55.7c0-30.8-24.9-55.7-55.7-55.7
					s-55.7,24.9-55.7,55.7C8963.9,6378.9,8988.8,6403.8,9019.6,6403.8z"/>
			</g>
			<g transform="translate(8670.46 6171.5)">
				<path id="path1_stroke" class="st1" d="M9019.6,6412.5c35.5,0,64.4-28.8,64.4-64.4h-17.3c0,26-21.1,47-47,47V6412.5z
					 M9083.9,6348.1c0-35.5-28.8-64.4-64.4-64.4v17.3c26,0,47,21.1,47,47H9083.9z M9019.6,6283.8c-35.5,0-64.4,28.8-64.4,64.4h17.3
					c0-26,21.1-47,47-47V6283.8z M8955.2,6348.1c0,35.5,28.8,64.4,64.4,64.4v-17.3c-26,0-47-21.1-47-47H8955.2z"/>
			</g>
		</g>
		<g id="Layer_2" figma:type="vector">
			<g transform="translate(8672.56 6187.04)">
				<path id="path2_fill" class="st0" d="M9033.2,6564.7c24.6,0,44.6-19.9,44.6-44.6s-19.9-44.6-44.6-44.6
					c-24.6,0-44.6,19.9-44.6,44.6S9008.6,6564.7,9033.2,6564.7z"/>
			</g>
			<g transform="translate(8672.56 6187.04)">
				<path id="path3_stroke" class="st1" d="M9033.2,6573.4c29.4,0,53.2-23.8,53.2-53.2h-17.3c0,19.8-16.1,35.9-35.9,35.9V6573.4z
					 M9086.4,6520.2c0-29.4-23.8-53.2-53.2-53.2v17.3c19.8,0,35.9,16.1,35.9,35.9H9086.4z M9033.2,6466.9
					c-29.4,0-53.2,23.8-53.2,53.2h17.3c0-19.8,16.1-35.9,35.9-35.9V6466.9z M8979.9,6520.2c0,29.4,23.8,53.2,53.2,53.2V6556
					c-19.8,0-35.9-16.1-35.9-35.9H8979.9z"/>
			</g>
		</g>
		<g id="Layer_3" figma:type="vector">
			<g transform="translate(8676.34 6179.06)">
				<path id="path0_fill_1_" class="st0" d="M9088.9,6492.9c30.8,0,55.7-24.9,55.7-55.7s-24.9-55.7-55.7-55.7
					c-30.8,0-55.7,24.9-55.7,55.7S9058.1,6492.9,9088.9,6492.9z"/>
			</g>
			<g transform="translate(8676.34 6179.06)">
				<path id="path1_stroke_1_" class="st1" d="M9088.9,6501.6c35.5,0,64.4-28.8,64.4-64.4h-17.3c0,26-21.1,47-47,47V6501.6z
					 M9153.2,6437.2c0-35.5-28.8-64.4-64.4-64.4v17.3c26,0,47,21.1,47,47H9153.2z M9088.9,6372.9c-35.5,0-64.4,28.8-64.4,64.4h17.3
					c0-26,21.1-47,47-47V6372.9z M9024.5,6437.2c0,35.5,28.8,64.4,64.4,64.4v-17.3c-26,0-47-21.1-47-47H9024.5z"/>
			</g>
		</g>
		<g id="Layer_4" figma:type="vector">
			<g transform="translate(8662.9 6165.2)">
				<path id="path0_fill_2_" class="st0" d="M8930.5,6329.6c30.8,0,55.7-24.9,55.7-55.7s-24.9-55.7-55.7-55.7s-55.7,24.9-55.7,55.7
					S8899.7,6329.6,8930.5,6329.6z"/>
			</g>
			<g transform="translate(8662.9 6165.2)">
				<path id="path1_stroke_2_" class="st1" d="M8930.5,6338.2c35.5,0,64.4-28.8,64.4-64.4h-17.3c0,26-21.1,47-47,47V6338.2z
					 M8994.8,6273.9c0-35.5-28.8-64.4-64.4-64.4v17.3c26,0,47,21.1,47,47H8994.8z M8930.5,6209.5c-35.5,0-64.4,28.8-64.4,64.4h17.3
					c0-26,21.1-47,47-47V6209.5z M8866.1,6273.9c0,35.5,28.8,64.4,64.4,64.4v-17.3c-26,0-47-21.1-47-47H8866.1z"/>
			</g>
		</g>
		<g id="Layer_5" figma:type="vector">
			<g transform="translate(8658.28 6173.6)">
				<path id="path0_fill_3_" class="st0" d="M8876,6428.6c30.8,0,55.7-24.9,55.7-55.7s-24.9-55.7-55.7-55.7s-55.7,24.9-55.7,55.7
					S8845.2,6428.6,8876,6428.6z"/>
			</g>
			<g transform="translate(8658.28 6173.6)">
				<path id="path1_stroke_3_" class="st1" d="M8876,6437.2c35.5,0,64.4-28.8,64.4-64.4H8923c0,26-21.1,47-47,47V6437.2z
					 M8940.4,6372.9c0-35.5-28.8-64.4-64.4-64.4v17.3c26,0,47,21.1,47,47H8940.4z M8876,6308.5c-35.5,0-64.4,28.8-64.4,64.4h17.3
					c0-26,21.1-47,47-47V6308.5z M8811.6,6372.9c0,35.5,28.8,64.4,64.4,64.4v-17.3c-26,0-47-21.1-47-47H8811.6z"/>
			</g>
		</g>
		<g id="Layer_6" figma:type="vector">
			<g transform="translate(8654.5 6182.42)">
				<path id="path0_fill_4_" class="st0" d="M8831.4,6532.5c30.8,0,55.7-24.9,55.7-55.7s-24.9-55.7-55.7-55.7s-55.7,24.9-55.7,55.7
					S8800.7,6532.5,8831.4,6532.5z"/>
			</g>
			<g transform="translate(8654.5 6182.42)">
				<path id="path1_stroke_4_" class="st1" d="M8831.4,6541.2c35.5,0,64.4-28.8,64.4-64.4h-17.3c0,26-21.1,47-47,47V6541.2z
					 M8895.8,6476.8c0-35.5-28.8-64.4-64.4-64.4v17.3c26,0,47,21.1,47,47H8895.8z M8831.4,6412.5c-35.5,0-64.4,28.8-64.4,64.4h17.3
					c0-26,21.1-47,47-47V6412.5z M8767.1,6476.8c0,35.5,28.8,64.4,64.4,64.4v-17.3c-26,0-47-21.1-47-47H8767.1z"/>
			</g>
		</g>
		<g id="Layer_7" figma:type="vector">
			<g transform="translate(8653.45 6165.2)">
				<path id="path0_fill_5_" class="st0" d="M8819.1,6329.6c30.8,0,55.7-24.9,55.7-55.7s-24.9-55.7-55.7-55.7s-55.7,24.9-55.7,55.7
					S8788.3,6329.6,8819.1,6329.6z"/>
			</g>
			<g transform="translate(8653.45 6165.2)">
				<path id="path1_stroke_5_" class="st1" d="M8819.1,6338.2c35.5,0,64.4-28.8,64.4-64.4h-17.3c0,26-21.1,47-47,47V6338.2z
					 M8883.4,6273.9c0-35.5-28.8-64.4-64.4-64.4v17.3c26,0,47,21.1,47,47H8883.4z M8819.1,6209.5c-35.5,0-64.4,28.8-64.4,64.4h17.3
					c0-26,21.1-47,47-47V6209.5z M8754.7,6273.9c0,35.5,28.8,64.4,64.4,64.4v-17.3c-26,0-47-21.1-47-47H8754.7z"/>
			</g>
		</g>
		<g id="Layer_8" figma:type="vector">
			<g transform="translate(8665.84 6179.9)">
				<path id="path0_fill_6_" class="st0" d="M8965.1,6502.8c30.8,0,55.7-24.9,55.7-55.7c0-30.8-24.9-55.7-55.7-55.7
					s-55.7,24.9-55.7,55.7C8909.4,6477.9,8934.3,6502.8,8965.1,6502.8z"/>
			</g>
			<g transform="translate(8665.84 6179.9)">
				<path id="path1_stroke_6_" class="st1" d="M8965.1,6511.5c35.5,0,64.4-28.8,64.4-64.4h-17.3c0,26-21.1,47-47,47V6511.5z
					 M9029.5,6447.1c0-35.5-28.8-64.4-64.4-64.4v17.3c26,0,47,21.1,47,47H9029.5z M8965.1,6382.8c-35.5,0-64.4,28.8-64.4,64.4h17.3
					c0-26,21.1-47,47-47V6382.8z M8900.7,6447.1c0,35.5,28.8,64.4,64.4,64.4v-17.3c-26,0-47-21.1-47-47H8900.7z"/>
			</g>
		</g>
		<g id="Layer_9" figma:type="vector">
			<g transform="translate(8662.9 6188.83)">
				<path id="path0_fill_7_" class="st0" d="M8930.5,6608.1c30.8,0,55.7-24.9,55.7-55.7c0-30.8-24.9-55.7-55.7-55.7
					s-55.7,24.9-55.7,55.7C8874.8,6583.1,8899.7,6608.1,8930.5,6608.1z"/>
			</g>
			<g transform="translate(8662.9 6188.83)">
				<path id="path1_stroke_7_" class="st1" d="M8930.5,6616.7c35.5,0,64.4-28.8,64.4-64.4h-17.3c0,26-21.1,47-47,47V6616.7z
					 M8994.8,6552.4c0-35.5-28.8-64.4-64.4-64.4v17.3c26,0,47,21.1,47,47H8994.8z M8930.5,6488c-35.5,0-64.4,28.8-64.4,64.4h17.3
					c0-26,21.1-47,47-47V6488z M8866.1,6552.4c0,35.5,28.8,64.4,64.4,64.4v-17.3c-26,0-47-21.1-47-47H8866.1z"/>
			</g>
		</g>
		<g id="Layer_10" figma:type="vector">
			<g transform="translate(8648.72 6174.65)">
				<path id="path0_fill_8_" class="st0" d="M8763.3,6440.9c30.8,0,55.7-24.9,55.7-55.7s-24.9-55.7-55.7-55.7s-55.7,24.9-55.7,55.7
					S8732.5,6440.9,8763.3,6440.9z"/>
			</g>
			<g transform="translate(8648.72 6174.65)">
				<path id="path1_stroke_8_" class="st1" d="M8763.3,6449.6c35.5,0,64.4-28.8,64.4-64.4h-17.3c0,26-21.1,47-47,47V6449.6z
					 M8827.7,6385.2c0-35.5-28.8-64.4-64.4-64.4v17.3c26,0,47,21.1,47,47H8827.7z M8763.3,6320.9c-35.5,0-64.4,28.8-64.4,64.4h17.3
					c0-26,21.1-47,47-47V6320.9z M8698.9,6385.2c0,35.5,28.8,64.4,64.4,64.4v-17.3c-26,0-47-21.1-47-47H8698.9z"/>
			</g>
		</g>
		<g id="Layer_11" figma:type="vector">
			<g transform="translate(8644 6184.1)">
				<path id="path0_fill_9_" class="st0" d="M8707.7,6552.3c30.8,0,55.7-24.9,55.7-55.7s-24.9-55.7-55.7-55.7
					c-30.8,0-55.7,24.9-55.7,55.7S8676.9,6552.3,8707.7,6552.3z"/>
			</g>
			<g transform="translate(8644 6184.1)">
				<path id="path1_stroke_9_" class="st1" d="M8707.7,6561c35.5,0,64.4-28.8,64.4-64.4h-17.3c0,26-21.1,47-47,47V6561z
					 M8772,6496.6c0-35.5-28.8-64.4-64.4-64.4v17.3c26,0,47,21.1,47,47H8772z M8707.7,6432.3c-35.5,0-64.4,28.8-64.4,64.4h17.3
					c0-26,21.1-47,47-47V6432.3z M8643.3,6496.6c0,35.5,28.8,64.4,64.4,64.4v-17.3c-26,0-47-21.1-47-47H8643.3z"/>
			</g>
		</g>
		<g id="Layer_12" figma:type="vector">
			<g transform="translate(8653.92 6192.6)">
				<path id="path0_fill_10_" class="st0" d="M8824.6,6652.5c30.8,0,55.7-24.9,55.7-55.7c0-30.8-24.9-55.7-55.7-55.7
					c-30.8,0-55.7,24.9-55.7,55.7C8768.9,6627.6,8793.8,6652.5,8824.6,6652.5z"/>
			</g>
			<g transform="translate(8653.92 6192.6)">
				<path id="path1_stroke_10_" class="st1" d="M8824.6,6661.2c35.5,0,64.4-28.8,64.4-64.4h-17.3c0,26-21.1,47-47,47V6661.2z
					 M8889,6596.8c0-35.5-28.8-64.4-64.4-64.4v17.3c26,0,47,21.1,47,47H8889z M8824.6,6532.5c-35.5,0-64.4,28.8-64.4,64.4h17.3
					c0-26,21.1-47,47-47V6532.5z M8760.2,6596.8c0,35.5,28.8,64.4,64.4,64.4v-17.3c-26,0-47-21.1-47-47H8760.2z"/>
			</g>
		</g>
		<g id="Layer_13" figma:type="vector">
			<g transform="translate(8644 6193.55)">
				<path id="path0_fill_11_" class="st0" d="M8707.7,6663.7c30.8,0,55.7-24.9,55.7-55.7s-24.9-55.7-55.7-55.7
					c-30.8,0-55.7,24.9-55.7,55.7S8676.9,6663.7,8707.7,6663.7z"/>
			</g>
			<g transform="translate(8644 6193.55)">
				<path id="path1_stroke_11_" class="st1" d="M8707.7,6672.4c35.5,0,64.4-28.8,64.4-64.4h-17.3c0,26-21.1,47-47,47V6672.4z
					 M8772,6608c0-35.5-28.8-64.4-64.4-64.4v17.3c26,0,47,21.1,47,47H8772z M8707.7,6543.7c-35.5,0-64.4,28.8-64.4,64.4h17.3
					c0-26,21.1-47,47-47V6543.7z M8643.3,6608c0,35.5,28.8,64.4,64.4,64.4v-17.3c-26,0-47-21.1-47-47H8643.3z"/>
			</g>
		</g>
		<g id="Layer_14" figma:type="vector">
			<g transform="translate(8677.42 6161)">
				<path id="path4_fill" class="st0" d="M9146.3,6168.7c0,0-4.8,40.5-38.3,84.1c-16,20.8-40.7,36.4-62.2,47.1"/>
			</g>
			<g transform="translate(8677.42 6161)">
				<path id="path5_stroke" class="st1" d="M9154.9,6169.7c0.6-4.8-2.8-9.1-7.6-9.6s-9.1,2.8-9.6,7.6L9154.9,6169.7z M9108.1,6252.7
					l-6.9-5.3L9108.1,6252.7z M9042,6292.1c-4.3,2.1-6,7.3-3.9,11.6c2.1,4.3,7.3,6,11.6,3.9L9042,6292.1z M9146.3,6168.7
					c-8.6-1-8.6-1-8.6-1c0,0,0,0,0,0c0,0,0,0,0,0c0,0,0,0,0,0c0,0,0,0,0,0c0,0.1,0,0.1,0,0.3c0,0.3-0.1,0.6-0.2,1.2
					c-0.2,1.1-0.5,2.7-0.9,4.8c-0.9,4.3-2.5,10.3-5,17.7c-5.2,15.2-14.2,35-30.4,55.9l13.7,10.6c17.3-22.6,27.5-44.9,33-60.8
					c2.8-8.1,4.6-15,5.6-19.7c0.5-2.4,0.9-4.4,1.1-5.6c0.1-0.7,0.2-1.2,0.2-1.6c0-0.2,0-0.4,0.1-0.4c0-0.1,0-0.1,0-0.1c0,0,0,0,0,0
					c0,0,0,0,0,0s0,0,0,0C9154.9,6169.7,9154.9,6169.7,9146.3,6168.7z M9101.2,6247.5c-14.9,19.7-38.1,34.2-59.1,44.6l7.7,15.5
					c21.9-10.9,48.2-27.7,65.2-49.6L9101.2,6247.5z"/>
			</g>
		</g>
		<g id="Layer_15" figma:type="vector">
			<g transform="translate(8675.95 6161.13)">
				<path id="path6_fill" class="st0" d="M9081.5,6213.9c-9.9-28.9-42.9-43.7-42.9-43.7s-16.8,32-6.9,60.9s42.9,43.7,42.9,43.7
					S9091.5,6242.8,9081.5,6213.9z"/>
			</g>
			<g transform="translate(8675.95 6161.13)">
				<path id="path7_stroke" class="st1" d="M9038.6,6170.2l3.6-7.9c-4.2-1.9-9.1-0.2-11.2,3.9L9038.6,6170.2z M9074.6,6274.8
					l-3.6,7.9c4.2,1.9,9.1,0.2,11.2-3.9L9074.6,6274.8z M9089.7,6211.1c-5.8-16.2-18.1-29-28.1-36.7c-5.1-3.9-10-7-13.4-8.9
					c-1.8-1-3.3-1.8-4.3-2.3c-0.5-0.3-1-0.5-1.2-0.6c-0.1-0.1-0.3-0.1-0.4-0.2c0,0-0.1,0-0.1-0.1c0,0,0,0,0,0c0,0,0,0,0,0s0,0,0,0
					c0,0,0,0-3.6,7.9c-3.6,7.9-3.6,7.9-3.6,7.9c0,0,0,0,0,0c0,0,0,0,0,0c0,0,0,0,0,0c0,0,0,0,0,0c0,0,0.1,0,0.2,0.1
					c0.2,0.1,0.5,0.2,0.9,0.4c0.9,0.4,2,1,3.5,1.9c3.1,1.8,7,4.2,11.4,7.6c9,6.9,18.1,16,22.3,28.7L9089.7,6211.1z M9038.6,6170.2
					c-7.7-4-7.7-4-7.7-4c0,0,0,0,0,0c0,0,0,0,0,0c0,0,0,0,0,0c0,0,0,0.1-0.1,0.1c0,0.1-0.1,0.2-0.2,0.4c-0.1,0.3-0.4,0.7-0.6,1.2
					c-0.5,1-1.2,2.6-2,4.4c-1.5,3.6-3.5,9.1-5.1,15.3c-3.1,12.2-4.9,29.9,0.5,46.2l16.4-5.6c-4.6-12.6-2.9-25.3-0.1-36.3
					c1.4-5.4,3-9.7,4.3-13c0.7-1.6,1.2-2.7,1.6-3.6c0.2-0.4,0.3-0.7,0.4-0.9c0-0.1,0.1-0.1,0.1-0.2c0,0,0,0,0,0c0,0,0,0,0,0
					c0,0,0,0,0,0c0,0,0,0,0,0C9046.3,6174.2,9046.3,6174.2,9038.6,6170.2z M9023.5,6233.9c5.8,16.2,18.1,29,28.1,36.7
					c5.1,3.9,10,7,13.4,8.9c1.8,1,3.3,1.8,4.3,2.3c0.5,0.3,1,0.5,1.2,0.6c0.1,0.1,0.3,0.1,0.4,0.2c0,0,0.1,0,0.1,0.1c0,0,0,0,0,0
					c0,0,0,0,0,0c0,0,0,0,0,0c0,0,0,0,3.6-7.9c3.6-7.9,3.6-7.9,3.6-7.9c0,0,0,0,0,0c0,0,0,0,0,0c0,0,0,0,0,0c0,0,0,0,0,0
					c0,0-0.1,0-0.2-0.1c-0.2-0.1-0.5-0.2-0.9-0.4c-0.9-0.4-2-1-3.5-1.9c-3.1-1.8-7-4.2-11.4-7.6c-9-6.9-18.1-16-22.3-28.7
					L9023.5,6233.9z M9074.6,6274.8c7.7,4,7.7,4,7.7,4c0,0,0,0,0,0c0,0,0,0,0,0c0,0,0,0,0,0c0,0,0-0.1,0.1-0.1
					c0-0.1,0.1-0.2,0.2-0.4c0.1-0.3,0.4-0.7,0.6-1.2c0.5-1,1.2-2.6,2-4.4c1.5-3.6,3.5-9.1,5.1-15.3c3.1-12.2,4.9-29.9-0.5-46.2
					l-16.4,5.6c4.6,12.6,2.9,25.3,0.1,36.3c-1.4,5.4-3,9.7-4.3,13c-0.7,1.6-1.2,2.7-1.6,3.6c-0.2,0.4-0.3,0.7-0.4,0.9
					c0,0.1-0.1,0.1-0.1,0.2c0,0,0,0,0,0c0,0,0,0,0,0c0,0,0,0,0,0c0,0,0,0,0,0C9067,6270.8,9067,6270.8,9074.6,6274.8z"/>
			</g>
		</g>
	</g>
</g>
</svg>
