<?xml version="1.0" encoding="utf-8"?>
<!-- Generator: Adobe Illustrator 21.0.0, SVG Export Plug-In . SVG Version: 6.00 Build 0)  -->
<svg version="1.1" id="Layer_1" xmlns:figma="http://www.figma.com/figma/ns"
	 xmlns="http://www.w3.org/2000/svg" xmlns:xlink="http://www.w3.org/1999/xlink" x="0px" y="0px" width="512px" height="512px"
	 viewBox="0 0 512 512" enable-background="new 0 0 512 512" xml:space="preserve">
<title>37-food-grapes-fruit</title>
<desc>Created using Figma</desc>
<g>
	<path fill="#F66290" d="M497.2,5.7c-4.6-0.6-8.8,2.8-9.4,7.4l0,0c0,0,0,0,0,0c0,0,0,0,0,0c0,0,0,0,0,0c0,0,0,0,0,0
		c0,0.1,0,0.1,0,0.2c0,0.3-0.1,0.6-0.2,1.1c-0.2,1.1-0.5,2.6-0.9,4.6c-0.9,4.2-2.4,10-4.9,17.2c-5.1,14.8-13.8,34.1-29.6,54.5
		c-3.4,4.5-7.3,8.8-11.5,12.8c0.3-1,0.6-2,0.9-3.1c3-11.9,4.8-29.2-0.5-45.1c-5.6-15.8-17.7-28.3-27.4-35.8c-5-3.8-9.8-6.8-13.1-8.7
		c-1.7-1-3.2-1.7-4.2-2.2c-0.5-0.3-0.9-0.5-1.2-0.6c-0.1-0.1-0.3-0.1-0.3-0.2c0,0-0.1,0-0.1,0c0,0,0,0,0,0c0,0,0,0,0,0c0,0,0,0,0,0
		c0,0,0,0-3.5,7.7c-7.5-3.9-7.5-3.9-7.5-3.9c0,0,0,0,0,0c0,0,0,0,0,0c0,0,0,0,0,0c0,0,0,0.1-0.1,0.1c0,0.1-0.1,0.2-0.2,0.3
		c-0.1,0.3-0.3,0.7-0.6,1.2c-0.5,1-1.2,2.5-1.9,4.3c-1.5,3.5-3.4,8.9-5,14.9c-3,11.9-4.8,29.2,0.5,45.1
		c5.6,15.8,17.7,28.3,27.4,35.8c4.8,3.7,9.5,6.6,12.8,8.5c-5.8,3.7-11.8,7.1-17.6,10.1c-8-3.7-17-5.8-26.4-5.8c-9.3,0-18.1,2-26,5.6
		c1.2-4.9,1.9-10,1.9-15.3c0-34.6-28.1-62.7-62.7-62.7c-23.2,0-43.4,12.6-54.3,31.3c-10.9-18.7-31.1-31.3-54.3-31.3
		c-34.6,0-62.7,28.1-62.7,62.7c0,18.8,8.3,35.7,21.4,47.2c-4.2-0.9-8.6-1.4-13.1-1.4c-34.6,0-62.7,28.1-62.7,62.7
		c0,18.8,8.3,35.7,21.4,47.2c-4.2-0.9-8.5-1.3-12.9-1.3C34.1,271,6,299.1,6,333.7c0,23.2,12.6,43.4,31.3,54.3
		C18.6,398.9,6,419.1,6,442.3C6,476.9,34.1,505,68.7,505c27.6,0,51-17.9,59.4-42.7c10.8,19,31.2,31.7,54.5,31.7
		c33.1,0,60.2-25.7,62.5-58.2c10.9,9.3,25.1,14.9,40.6,14.9c33.2,0,60.3-25.8,62.5-58.4c9.4,9.9,22.8,16.1,37.5,16.1
		c28.6,0,51.9-23.2,51.9-51.9c0-6.5-1.2-12.7-3.4-18.4c1.9,0.2,3.8,0.3,5.8,0.3c34.6,0,62.7-28.1,62.7-62.7
		c0-34.6-28.1-62.7-62.7-62.7c-3.4,0-6.7,0.3-10,0.8c3.3-7.6,5.2-16.1,5.2-24.9c0-18.4-7.9-34.9-20.5-46.3
		c18.1-10.3,37.3-24.3,50.7-41.5c16.8-22,26.8-43.7,32.2-59.3c2.7-7.9,4.5-14.7,5.5-19.2c0.5-2.3,0.9-4.2,1.1-5.5
		c0.1-0.6,0.2-1.2,0.2-1.5c0-0.2,0-0.3,0.1-0.4c0-0.1,0-0.1,0-0.1c0,0,0,0,0,0c0,0,0,0,0,0c0,0,0,0,0,0c0,0,0,0-8.4-1
		c-0.4,0-0.8-0.1-1.1-0.1l9.5,1.1C505.1,10.5,501.8,6.3,497.2,5.7z M333,346.8c0.7-0.2,1.4-0.3,2.1-0.5c-0.2,0.8-0.3,1.6-0.4,2.5
		C334.1,348.1,333.5,347.4,333,346.8z M347.4,321.9c-7.7,5.9-17.4,9.5-27.9,9.5c-3.1,0-6.1-0.3-9-0.9c-3.3-1.4-6.8-2.6-10.3-3.4
		c-15.6-7.3-26.5-23.2-26.5-41.5c0-25.3,20.5-45.8,45.8-45.8s45.8,20.5,45.8,45.8c0,11.7-4.4,22.3-11.5,30.4
		C351.6,317.7,349.4,319.7,347.4,321.9z M100.1,388c17.5-10.2,29.6-28.5,31.1-49.9c6.1,14.9,17.7,26.9,32.3,33.5
		c-19,6-34,20.9-40.3,39.7C117.7,401.6,109.7,393.6,100.1,388z M232.7,167.3c25.3,0,45.8,20.5,45.8,45.8c0,25.3-20.5,45.8-45.8,45.8
		c-25.3,0-45.8-20.5-45.8-45.8C186.9,187.8,207.4,167.3,232.7,167.3z M230.1,150.5c0.5-0.8,1-1.6,1.5-2.4c0.5,0.8,0.9,1.6,1.4,2.4
		c-0.1,0-0.2,0-0.2,0C231.8,150.4,230.9,150.4,230.1,150.5z M183.5,252c-1.4,0.1-2.8,0.3-4.2,0.5c0.6-1.3,1.2-2.5,1.7-3.8
		C181.9,249.8,182.7,250.9,183.5,252z M189.3,268.6c25.3,0,45.8,20.5,45.8,45.8c0,25.3-20.5,45.8-45.8,45.8s-45.8-20.5-45.8-45.8
		C143.5,289.1,164,268.6,189.3,268.6z M228,363.8c-2.6,6.2-4.2,12.8-4.7,19.8c-4.5-3.8-9.5-7-14.9-9.4
		C215.6,371.9,222.2,368.4,228,363.8z M252,314.4c0-14.7-5.1-28.2-13.5-38.9c7.2-0.7,14-2.5,20.2-5.4c-1.2,4.9-1.9,10-1.9,15.3
		c0,15.8,5.9,30.3,15.5,41.3c-9.4,2-17.9,6.2-25.2,11.9C250.3,331.2,252,323,252,314.4z M381.2,297.2c1,2.6,2.1,5.2,3.4,7.7
		c-1.8,0-3.7,0.2-5.5,0.4C380,302.6,380.7,299.9,381.2,297.2z M372.4,251.7c0.1,0,0.2,0,0.2,0c3.4,0,6.7-0.3,10-0.8
		c-1.8,4.2-3.2,8.6-4.1,13.2C377,259.8,374.9,255.6,372.4,251.7z M319.6,222.8c-9.3,0-18.1,2-26,5.6c1.2-4.9,1.9-10,1.9-15.3
		c0-12.4-3.6-24-9.9-33.8c0.1,0,0.2,0,0.2,0c9.3,0,18.1-2,26-5.6c-1.2,4.9-1.9,10-1.9,15.3c0,12.4,3.6,24,9.9,33.8
		C319.7,222.8,319.7,222.8,319.6,222.8z M285.8,70.8c25.3,0,45.8,20.5,45.8,45.8s-20.5,45.8-45.8,45.8S240,142,240,116.7
		S260.5,70.8,285.8,70.8z M131.4,116.7c0-25.3,20.5-45.8,45.8-45.8s45.8,20.5,45.8,45.8s-20.5,45.8-45.8,45.8S131.4,142,131.4,116.7
		z M177.3,179.4c0.9,0,1.8,0,2.7-0.1c-2.1,3.3-3.9,6.7-5.4,10.4c-3-4.3-6.5-8.2-10.4-11.7C168.4,178.9,172.8,179.4,177.3,179.4z
		 M77.1,225.2c0-25.3,20.5-45.8,45.8-45.8s45.8,20.5,45.8,45.8S148.2,271,122.9,271S77.1,250.5,77.1,225.2z M122.9,287.9
		c3.4,0,6.7-0.3,9.9-0.8c-3.4,7-5.5,14.7-6.1,22.9c-3.7-9.1-9.5-17.1-16.8-23.5C114.2,287.4,118.5,287.9,122.9,287.9z M22.9,333.7
		c0-25.3,20.5-45.8,45.8-45.8c25.3,0,45.8,20.5,45.8,45.8c0,25.3-20.5,45.8-45.8,45.8c0,0,0,0-0.1,0s0,0-0.1,0
		C43.4,379.5,22.9,359,22.9,333.7z M68.7,488.1c-25.3,0-45.8-20.5-45.8-45.8c0-25.3,20.5-45.8,45.8-45.8c0,0,0,0,0.1,0s0,0,0.1,0
		c25.3,0,45.8,20.5,45.8,45.8C114.5,467.6,94,488.1,68.7,488.1z M182.7,477.2c-25.3,0-45.8-20.5-45.8-45.8
		c0-25.3,20.5-45.8,45.8-45.8s45.8,20.5,45.8,45.8C228.5,456.7,208,477.2,182.7,477.2z M285.8,433.9c-25.3,0-45.8-20.5-45.8-45.8
		s20.5-45.8,45.8-45.8c3.1,0,6.1,0.3,9,0.9c3.3,1.4,6.8,2.6,10.3,3.4c15.6,7.3,26.5,23.2,26.5,41.5
		C331.6,413.4,311.1,433.9,285.8,433.9z M420.9,356.7c0,19.3-15.7,35-35,35c-19.3,0-35-15.7-35-35c0-8.6,3.1-16.4,8.2-22.5
		c2.2-1.8,4.2-3.7,6.1-5.7c5.8-4.2,12.9-6.7,20.6-6.7c5.8,0,11.3,1.4,16.2,4c2.1,1.6,4.2,3,6.4,4.3
		C416.1,336.4,420.9,346,420.9,356.7z M486,275.9c0,25.3-20.5,45.8-45.8,45.8c-8,0-15.5-2.1-22.1-5.7c-2.1-1.7-4.4-3.2-6.7-4.5
		c-10.4-8.4-17-21.2-17-35.6c0-25.3,20.5-45.8,45.8-45.8C465.5,230,486,250.5,486,275.9z M418.5,189c0,25.3-20.5,45.8-45.8,45.8
		c-25.3,0-45.8-20.5-45.8-45.8s20.5-45.8,45.8-45.8c6.9,0,13.4,1.5,19.2,4.2c1.4,1.6,3.3,2.6,5.3,2.9
		C410,158.5,418.5,172.7,418.5,189z M392.5,72.2c-4.4-12.2-2.8-24.6-0.1-35.4c0.9-3.6,1.9-6.7,2.9-9.3c2.4,1.5,5.1,3.3,8,5.6
		c8.8,6.8,17.7,15.5,21.7,27.9c4.4,12.2,2.8,24.6,0.1,35.4c-0.9,3.6-1.9,6.7-2.9,9.3c-2.4-1.5-5.1-3.3-8-5.6
		C405.4,93.4,396.5,84.6,392.5,72.2z"/>
	<path fill="#F66290" d="M383.7,11.7l7.5,3.9l3.5-7.7C390.6,6.1,385.8,7.7,383.7,11.7z"/>
</g>
</svg>
