<?xml version="1.0" encoding="utf-8"?>
<!-- Generator: Adobe Illustrator 21.0.0, SVG Export Plug-In . SVG Version: 6.00 Build 0)  -->
<svg version="1.1" id="Layer_1" xmlns:figma="http://www.figma.com/figma/ns"
	 xmlns="http://www.w3.org/2000/svg" xmlns:xlink="http://www.w3.org/1999/xlink" x="0px" y="0px" viewBox="0 0 512 512"
	 style="enable-background:new 0 0 512 512;" xml:space="preserve">
<style type="text/css">
	.st0{fill:#FEEEF3;}
	.st1{fill:#F66290;}
	.st2{fill:#FFFFFF;}
	.st3{fill:#E1F2FA;}
</style>
<title>Group 9</title>
<desc>Created using Figma</desc>
<g id="Canvas" transform="translate(-2534 -7250)" figma:type="canvas">
	<g id="Group_9" figma:type="frame">
		<g id="Layer_5" figma:type="vector">
			<g transform="translate(2535 7251)">
				<path id="path0_fill" class="st0" d="M2790.2,7755.3c135.8,0,245.8-111.2,245.8-248.3s-110.1-248.3-245.8-248.3
					c-135.8,0-245.8,111.2-245.8,248.3S2654.4,7755.3,2790.2,7755.3z"/>
			</g>
			<g transform="translate(2535 7251)">
				<path id="path1_stroke" class="st1" d="M2790.2,7764c140.6,0,254.5-115.1,254.5-257h-17.4c0,132.4-106.3,239.6-237.1,239.6V7764
					z M3044.7,7507c0-141.8-113.9-257-254.5-257v17.4c130.9,0,237.1,107.2,237.1,239.6H3044.7z M2790.2,7250
					c-140.7,0-254.5,115.1-254.5,257h17.4c0-132.4,106.3-239.6,237.1-239.6V7250z M2535.6,7507c0,141.8,113.9,257,254.5,257v-17.4
					c-130.9,0-237.1-107.2-237.1-239.6H2535.6z"/>
			</g>
		</g>
		<g id="Layer_1_1_" figma:type="vector">
			<g transform="translate(2538.52 7261.7)">
				<path id="path2_fill" class="st2" d="M2719.5,7410.3c-28.1-3-62.1-25.1-62.1-25.1l-71.4,120c48.7,27.8,58,64.2,79.5,83.4
					s75.4,44.7,116.5,70.7c14.5,8.8,61.2,32.6,66.9-13.9c0.4,0.4,52.5,21,41.1-27.5c35.3,11.8,38.4-20.6,33.9-32.9
					c22.5,7.5,46.7-23.9,30.1-39.4c-40.9-36.5-47.3-49.4-133.2-97.3c-11.5-6.4-25.6-13.3-40.3-19.5c-4.4,3.2-23.8,16.9-73,48.9
					C2673.7,7475,2696.3,7435.7,2719.5,7410.3z"/>
			</g>
			<g transform="translate(2538.52 7261.7)">
				<path id="path3_stroke" class="st1" d="M2657.3,7385.2l4.7-7.3c-2-1.3-4.4-1.7-6.7-1.2c-2.3,0.5-4.3,2-5.5,4L2657.3,7385.2z
					 M2586,7505.2l-7.5-4.4c-1.2,2-1.5,4.4-0.9,6.7s2.1,4.2,4.1,5.3L2586,7505.2z M2782,7659.3l-4.6,7.3l0.1,0.1L2782,7659.3z
					 M2848.9,7645.5l5.8-6.4c-2.4-2.2-5.8-2.8-8.9-1.7c-3,1.1-5.2,3.9-5.6,7.1L2848.9,7645.5z M2890,7617.9l2.8-8.2
					c-3-1-6.3-0.3-8.6,1.8c-2.3,2.1-3.3,5.3-2.6,8.4L2890,7617.9z M2923.9,7585.1l2.7-8.2c-3.2-1.1-6.7-0.2-9,2.2s-3.1,5.9-1.9,9
					L2923.9,7585.1z M2954,7545.7l5.9-6.3c-0.1,0-0.1-0.1-0.2-0.1L2954,7545.7z M2820.8,7448.3l-4.2,7.6L2820.8,7448.3z
					 M2780.5,7428.9l3.4-8c-2.8-1.2-6-0.8-8.5,1L2780.5,7428.9z M2707.5,7477.8l-0.7,8.7c1.9,0.2,3.8-0.3,5.5-1.4L2707.5,7477.8z
					 M2720.4,7401.7c-12.9-1.3-27-7.1-38.7-12.9c-5.8-2.8-10.7-5.6-14.2-7.6c-1.7-1-3.1-1.8-4-2.4c-0.5-0.3-0.8-0.5-1-0.7
					c-0.1-0.1-0.2-0.1-0.3-0.2c0,0,0,0-0.1,0c0,0,0,0,0,0c0,0,0,0,0,0c0,0,0,0,0,0c0,0,0,0-4.7,7.3c-4.7,7.3-4.7,7.3-4.7,7.3
					c0,0,0,0,0,0c0,0,0,0,0,0c0,0,0,0,0,0c0,0,0.1,0,0.1,0.1c0.1,0,0.2,0.1,0.3,0.2c0.3,0.2,0.7,0.4,1.2,0.8c1,0.6,2.5,1.6,4.4,2.7
					c3.7,2.2,9.1,5.2,15.3,8.2c12.3,6,29.3,12.8,44.5,14.5L2720.4,7401.7z M2649.9,7380.8l-71.4,120l14.9,8.9l71.4-120
					L2649.9,7380.8z M2581.6,7512.8c23.2,13.2,36.4,27.9,47.3,42.6c5.4,7.3,10.1,14.4,14.8,21.1c4.8,6.7,10,13.3,16,18.7l11.6-13
					c-4.8-4.3-8.8-9.4-13.4-15.8c-4.6-6.4-9.3-13.7-15-21.4c-11.4-15.3-27.1-32.6-52.6-47.3L2581.6,7512.8z M2659.7,7595.1
					c11.6,10.4,31.4,22,52.4,33.9c21.4,12.1,44.9,24.8,65.2,37.7l9.3-14.7c-20.8-13.2-44.8-26.1-66-38.1
					c-21.5-12.1-39.4-22.8-49.4-31.7L2659.7,7595.1z M2777.5,7666.8c7.4,4.5,24.2,13.6,40.5,15c8.4,0.7,17.6-0.5,25.4-6.4
					c7.8-6,12.5-15.7,14.2-28.8l-17.2-2.1c-1.3,10.1-4.5,14.9-7.5,17.2c-3.1,2.4-7.4,3.4-13.3,2.9c-12.1-1.1-25.9-8.2-33-12.6
					L2777.5,7666.8z M2843.1,7651.9c0.3,0.3,0.9,0.7,1.1,0.8c0.1,0.1,0.4,0.2,0.5,0.3c0.1,0.1,0.4,0.2,0.5,0.2
					c0.1,0.1,0.3,0.2,0.5,0.2c0.2,0.1,0.5,0.2,0.7,0.3c0.5,0.2,1.2,0.5,2,0.8c1.6,0.5,3.9,1.3,6.6,2c5.1,1.3,12.7,2.6,19.6,2.2
					c7.2-0.5,15.8-3.1,21.1-11.1c5.2-7.8,5.9-18.6,2.8-31.7l-16.9,4c2.6,11.2,1,16.1-0.3,18c-1.2,1.8-3.5,3.1-8,3.5
					c-4.7,0.4-9.5-0.5-14-1.6c-2.1-0.5-3.8-1.1-5.1-1.6c-0.6-0.2-1-0.4-1.4-0.5c-0.1-0.1-0.2-0.1-0.2-0.1c0,0,0.3,0.1,0.2,0.1
					c-0.1,0,0.5,0.3,0.4,0.2c-0.1-0.1,0.6,0.4,0.5,0.3c0.1,0.1,0.6,0.4,1.1,0.8L2843.1,7651.9z M2887.2,7626.2
					c9.9,3.3,18.7,3.9,26.1,1.7c7.6-2.3,12.9-7.3,16.1-13c6.1-10.8,5.6-24.7,2.7-32.7l-16.3,5.9c1.5,4.2,1.7,12.7-1.4,18.2
					c-1.4,2.4-3.3,4.1-6,4.9c-2.9,0.9-7.8,1.1-15.6-1.5L2887.2,7626.2z M2921.2,7593.3c16,5.3,31.2-3.3,39.4-14
					c8.1-10.6,12.4-27.8-0.6-40L2948,7552c3.6,3.4,4.2,9.6-1.3,16.7c-5.4,7-13.5,10.3-20.1,8.1L2921.2,7593.3z M2959.7,7539.2
					c-40.8-36.4-47.9-49.9-134.7-98.4l-8.5,15.2c84.9,47.4,90.7,59.7,131.6,96.2L2959.7,7539.2z M2825,7440.8
					c-11.7-6.5-26.2-13.6-41.1-19.9l-6.8,16c14.5,6.1,28.2,12.8,39.4,19L2825,7440.8z M2775.4,7421.8c-4.4,3.2-23.6,16.8-72.7,48.7
					l9.5,14.6c49.4-32.1,69-45.9,73.4-49.1L2775.4,7421.8z M2708.2,7469.1c-6.8-0.6-8.2-2.7-8.6-3.4c-0.7-1.4-1.1-4.6,0.8-10.5
					c3.8-11.6,14.2-26.7,25.5-39l-12.9-11.7c-11.8,13-24.3,30.3-29.2,45.4c-2.4,7.4-3.6,16.2,0.2,23.7c4.1,8.2,12.6,12.1,22.6,12.9
					L2708.2,7469.1z"/>
			</g>
		</g>
		<g id="Layer_2" figma:type="vector">
			<g transform="translate(2547.38 7260.78)">
				<path id="path4_fill" class="st2" d="M2935.5,7385.4c0,0-23.7,6.8-52.8-2.7c-49.6-18.4-118.1-1.6-137.8,5.8
					s-84.8,84.3-37.1,88.3c57.1-37.1,72.4-49.1,72.4-49.1c136.4,62.7,178.7,123.9,178.9,124l43.5-40.6L2935.5,7385.4z"/>
			</g>
			<g transform="translate(2547.38 7260.78)">
				<path id="path5_stroke" class="st1" d="M2882.7,7382.6l-3,8.1c0.1,0,0.2,0.1,0.3,0.1L2882.7,7382.6z M2707.8,7476.7l-0.7,8.7
					c1.9,0.2,3.8-0.3,5.5-1.4L2707.8,7476.7z M2780.3,7427.6l3.6-7.9c-3-1.4-6.4-1-9,1.1L2780.3,7427.6z M2959.2,7551.6l-4.9,7.2
					c3.4,2.3,7.8,1.9,10.8-0.8L2959.2,7551.6z M3002.6,7510.9l5.9,6.3c2.9-2.7,3.6-7,1.7-10.4L3002.6,7510.9z M2935.5,7385.4
					c-2.4-8.4-2.4-8.4-2.4-8.4c0,0,0,0,0,0c0,0,0,0,0,0c0,0,0,0,0,0c0,0,0,0,0,0c0,0-0.1,0-0.1,0c-0.1,0-0.3,0.1-0.6,0.1
					c-0.6,0.2-1.5,0.3-2.6,0.5c-2.5,0.5-5.8,0.9-10.2,1.2c-9.1,0.5-20.7,0-34.1-4.5l-5.4,16.5c15.6,5,30.4,5.9,40.4,5.4
					c5.2-0.3,9.6-0.9,12.4-1.4c1.5-0.3,2.8-0.5,3.5-0.7c0.4-0.1,0.8-0.2,1-0.2c0.1,0,0.2-0.1,0.3-0.1c0,0,0.1,0,0.1,0c0,0,0,0,0,0
					c0,0,0,0,0,0c0,0,0,0,0,0C2937.9,7393.7,2937.9,7393.7,2935.5,7385.4z M2885.7,7374.5c-26.2-9.6-57.8-10.1-84.1-7.3
					c-26.5,2.9-49.6,9.2-59.8,13l6.1,16.3c9.5-3.5,30.5-9.3,55.6-12c25.3-2.8,52.8-2.5,76.1,6.3L2885.7,7374.5z M2741.9,7380.2
					c-6.9,2.6-15.9,10.1-24,18.4c-8.4,8.6-17.5,19.8-24.2,30.6c-6.5,10.5-12.1,22.7-11.7,33.4c0.2,5.7,2.2,11.5,7,15.9
					c4.7,4.2,11,6.3,18,6.9l1.4-17.3c-4.8-0.4-7-1.6-7.8-2.4c-0.7-0.6-1.3-1.6-1.4-3.7c-0.2-5.1,2.8-13.4,9.1-23.6
					c6.1-9.9,14-19.6,21.8-27.6c8.1-8.3,14.7-13.2,17.6-14.3L2741.9,7380.2z M2712.6,7484c28.6-18.6,46.8-31,57.9-38.6
					c5.5-3.9,9.3-6.6,11.7-8.3c1.2-0.9,2.1-1.5,2.6-2c0.3-0.2,0.5-0.4,0.6-0.5c0.1-0.1,0.1-0.1,0.2-0.1c0,0,0,0,0.1,0c0,0,0,0,0,0
					c0,0,0,0,0,0c0,0,0,0,0,0c0,0,0,0-5.4-6.8c-5.4-6.8-5.4-6.8-5.4-6.8c0,0,0,0,0,0c0,0,0,0,0,0c0,0,0,0,0,0c0,0,0,0,0,0
					c0,0-0.1,0-0.1,0.1c-0.1,0.1-0.3,0.2-0.5,0.4c-0.5,0.4-1.3,1-2.4,1.8c-2.3,1.7-5.9,4.3-11.3,8.1c-10.9,7.6-28.9,19.8-57.4,38.3
					L2712.6,7484z M2776.6,7435.5c67.5,31,111.2,61.3,138.6,84.2c13.5,11.3,22.7,20.5,28.7,27.1c2.9,3.2,5,5.7,6.3,7.4
					c0.7,0.8,1.1,1.4,1.5,1.9c0.2,0.2,0.3,0.4,0.4,0.5c0,0.1,0.1,0.1,0.1,0.2c0,0,0.1,0.1,0.1,0.2c0,0.1,0.2,0.2,0.2,0.3
					c0.1,0.1,0.2,0.3,0.3,0.4c0.2,0.2,0.9,0.8,1.4,1.2l9.7-14.4c0.5,0.4,1.2,1,1.4,1.2c0.1,0.1,0.3,0.3,0.3,0.4
					c-0.1-0.1,0.3,0.3,0.2,0.3c0,0,0.1,0.1,0.1,0.1c0,0,0,0-0.1-0.1c-0.1-0.1-0.2-0.3-0.4-0.6c-0.4-0.5-1-1.3-1.8-2.3
					c-1.5-1.9-3.9-4.7-7.1-8.2c-6.3-6.9-16.2-16.9-30.4-28.7c-28-23.4-73.6-55-142.5-86.7L2776.6,7435.5z M2965.1,7557.9l43.5-40.6
					l-11.9-12.7l-43.5,40.6L2965.1,7557.9z M3010.3,7506.8l-67.2-125.5l-15.3,8.2L2995,7515L3010.3,7506.8z"/>
			</g>
		</g>
		<g id="Layer_4" figma:type="vector">
			<g transform="translate(2567.48 7257.72)">
				<path id="path6_fill" class="st0" d="M2971.6,7338.1c-5.4,3.3-10.2,6.5-12.6,7.7l-23.6,12.6c-6.5,3.5-9,11.6-5.5,18.2
					l73.6,138.9c3.5,6.6,11.6,9.1,18.1,5.6l15.6-8.3c0-1.9,0.1-3.8,0.1-5.6C3037.3,7441.9,3012.4,7382.5,2971.6,7338.1
					L2971.6,7338.1z"/>
			</g>
			<g transform="translate(2567.48 7257.72)">
				<path id="path7_stroke" class="st1" d="M2971.6,7338.1l4.5,7.4c2.6-1.6,4.2-4.4,4.2-7.4H2971.6z M2959,7345.9l-4.1-7.7
					L2959,7345.9z M2935.4,7358.5l-4.1-7.7l0,0L2935.4,7358.5z M2929.9,7376.6l-7.7,4.1L2929.9,7376.6z M3003.6,7515.5l-7.7,4.1
					L3003.6,7515.5z M3021.6,7521.1l-4.1-7.7L3021.6,7521.1z M3037.2,7512.8l4.1,7.7c2.8-1.5,4.5-4.3,4.6-7.5L3037.2,7512.8z
					 M2971.6,7338.1l6.4-5.9c-2.4-2.6-6.2-3.5-9.6-2.2c-3.3,1.3-5.5,4.5-5.5,8.1H2971.6z M2967,7330.7c-5.5,3.4-10.1,6.4-12.1,7.5
					l8.2,15.3c2.7-1.5,7.8-4.8,13-8L2967,7330.7z M2954.9,7338.2l-23.6,12.6l8.2,15.3l23.6-12.6L2954.9,7338.2z M2931.3,7350.8
					c-10.8,5.8-14.7,19.2-9.1,29.9l15.4-8.1c-1.3-2.4-0.3-5.3,1.9-6.4L2931.3,7350.8z M2922.3,7380.7l73.6,138.9l15.4-8.1
					l-73.6-138.9L2922.3,7380.7z M2995.9,7519.6c5.7,10.8,19,15,29.8,9.2l-8.2-15.3c-2.2,1.2-5,0.4-6.3-2L2995.9,7519.6z
					 M3025.7,7528.8l15.6-8.3l-8.2-15.3l-15.6,8.3L3025.7,7528.8z M3045.9,7513c0-1.9,0.1-3.9,0.1-5.8h-17.4c0,1.8,0,3.6-0.1,5.5
					L3045.9,7513z M3046,7507.2c-0.2-67-26.3-129.4-68.1-174.9l-12.8,11.8c39.9,43.1,63.6,99.6,63.5,163.1H3046z M2962.9,7338.1
					L2962.9,7338.1h17.4l0,0H2962.9z"/>
			</g>
		</g>
		<g id="Layer_6" figma:type="vector">
			<g transform="translate(2560.55 7274.43)">
				<path id="path8_fill" class="st3" d="M2926.8,7584.5l-80.3-48.8L2926.8,7584.5z"/>
			</g>
			<g transform="translate(2560.55 7274.43)">
				<path id="path9_stroke" class="st1" d="M2922.3,7591.9c4.1,2.5,9.4,1.2,11.9-2.9c2.5-4.1,1.2-9.4-2.9-11.9L2922.3,7591.9z
					 M2850.9,7528.3c-4.1-2.5-9.4-1.2-11.9,2.9s-1.2,9.4,2.9,11.9L2850.9,7528.3z M2931.3,7577l-80.3-48.8l-9,14.9l80.3,48.8
					L2931.3,7577z"/>
			</g>
		</g>
		<g id="Layer_7" figma:type="vector">
			<g transform="translate(2558.69 7277.46)">
				<path id="path10_fill" class="st3" d="M2899,7616.8l-74.6-45.3L2899,7616.8z"/>
			</g>
			<g transform="translate(2558.69 7277.46)">
				<path id="path11_stroke" class="st1" d="M2894.5,7624.2c4.1,2.5,9.4,1.2,11.9-2.9s1.2-9.4-2.9-11.9L2894.5,7624.2z
					 M2828.9,7564.1c-4.1-2.5-9.4-1.2-11.9,2.9s-1.2,9.4,2.9,11.9L2828.9,7564.1z M2903.5,7609.4l-74.6-45.3l-9,14.9l74.6,45.3
					L2903.5,7609.4z"/>
			</g>
		</g>
		<g id="Layer_8" figma:type="vector">
			<g transform="translate(2556.61 7280.82)">
				<path id="path12_fill" class="st3" d="M2851.5,7642.6l-51.6-31.3L2851.5,7642.6z"/>
			</g>
			<g transform="translate(2556.61 7280.82)">
				<path id="path13_stroke" class="st1" d="M2847,7650c4.1,2.5,9.4,1.2,11.9-2.9s1.2-9.4-2.9-11.9L2847,7650z M2804.3,7603.8
					c-4.1-2.5-9.4-1.2-11.9,2.9s-1.2,9.4,2.9,11.9L2804.3,7603.8z M2856,7635.2l-51.6-31.3l-9,14.9l51.6,31.3L2856,7635.2z"/>
			</g>
		</g>
	</g>
</g>
</svg>
