<?xml version="1.0" encoding="utf-8"?>
<!-- Generator: Adobe Illustrator 21.0.0, SVG Export Plug-In . SVG Version: 6.00 Build 0)  -->
<svg version="1.1" id="Layer_1" xmlns:figma="http://www.figma.com/figma/ns"
	 xmlns="http://www.w3.org/2000/svg" xmlns:xlink="http://www.w3.org/1999/xlink" x="0px" y="0px" width="512px" height="512px"
	 viewBox="0 0 512 512" enable-background="new 0 0 512 512" xml:space="preserve">
<title>Group 9</title>
<desc>Created using Figma</desc>
<g>
	<polygon fill="#F66290" points="240.5,172.2 240.5,172.2 240.5,172.2 	"/>
	<path fill="#F66290" d="M504.1,256.2c-0.2-65.1-25.6-125.8-66.2-170c-0.9-1-1.9-1.7-3.1-2.1C389.7,36.1,326,6.2,255.4,6.2
		C118.6,6.2,7.9,118.1,7.9,256s110.7,249.8,247.4,249.8c133.3,0,241.8-106.4,247.2-239.4c0.9-1.3,1.4-2.9,1.4-4.5
		C504,260,504.1,258.1,504.1,256.2z M476.4,262.3c-2.1,1.1-4.8,0.4-6.1-1.9c0.1-1.6-0.2-3.2-1-4.6l-1.2,0.6v0l1.2-0.6l-65.3-122
		l-0.7,0.4l-4.7-8.8c-1.2-2.3-0.3-5.1,1.8-6.3l22.9-12.2c1.4-0.8,3.5-2.1,5.9-3.6c35.2,40.9,56.5,94.3,56.5,152.7c0,0.4,0,0.8,0,1.3
		L476.4,262.3z M393.2,324.5c-0.2-0.1-0.4-0.3-0.6-0.4l-78.1-47.4c-4-2.4-9.2-1.1-11.6,2.8c-2.4,4-1.1,9.2,2.8,11.6l71.7,43.5
		c0,0.1,0,0.1,0,0.2l0.1,0l0,0l-0.1,0c1.5,4.1,1.7,12.3-1.4,17.7c-1.3,2.4-3.2,4-5.8,4.8c-0.6,0.2-1.4,0.3-2.2,0.4
		c-0.6-0.9-1.4-1.6-2.4-2.2l-72.5-44c-4-2.4-9.2-1.1-11.6,2.8c-2.4,4-1.1,9.2,2.8,11.6l59.8,36.3c-0.2,1.2-0.2,2.4,0.1,3.5l4.2-1
		l0,0l-4.2,1c2.6,10.8,1,15.6-0.3,17.5c-1.1,1.7-3.4,3-7.8,3.4c-4.5,0.4-8.9-0.4-13.1-1.5c-0.6-1.8-1.8-3.5-3.6-4.6l-50.2-30.5
		c-4-2.4-9.2-1.1-11.6,2.8c-2.4,4-1.1,9.2,2.8,11.6l43.5,26.4c-1.3,8.9-4.3,13.2-7.1,15.3c-3,2.3-7.2,3.3-12.9,2.8
		c-11.7-1-25.1-8-32-12.2c-20.2-12.8-43.4-25.4-64.1-37c-20.9-11.8-38.3-22.2-48-30.8c-4.7-4.2-8.6-9.2-13-15.4
		c-4.4-6.2-9.1-13.3-14.6-20.8c-9.9-13.3-23.3-28.2-43.8-41.5l60.8-102.2c3.5,2,8.1,4.5,13.3,7.1c8,3.9,18,8.2,28.2,11.1
		c-3.3,4.3-6.4,8.7-9.1,13.1c-3.6,5.9-6.9,12.2-9,18.5c-0.2,0.5-0.4,1-0.5,1.5c-2.3,7.2-3.5,15.7,0.2,23.1c4,8,12.2,11.7,22,12.5
		c1.9,0.2,3.7-0.3,5.3-1.3l-0.4-0.6h0l0.4,0.6c39.3-25.5,59.1-39.2,67.4-45c12.5,5.4,24.2,11.2,34,16.7
		c82.5,46.1,88.2,58,127.8,93.4c3.5,3.3,4,9.3-1.3,16.3C403.7,321.1,398.3,324.2,393.2,324.5z M126.2,137.6L126.2,137.6l0.9-1.4
		C126.9,136.7,126.6,137.1,126.2,137.6z M175.2,228L175.2,228L175.2,228L175.2,228L175.2,228z M420.5,287c-1-1.1-2-2.3-3.2-3.6
		c-6.1-6.7-15.8-16.4-29.5-27.9c-27.2-22.7-71.5-53.5-138.5-84.3l-0.5,1l0,0l0.5-1c-2.9-1.3-6.3-0.9-8.7,1l0,0c0,0,0,0,0,0
		c0,0,0,0,0,0c0,0,0,0,0,0c0,0-0.1,0-0.1,0.1c-0.1,0.1-0.3,0.2-0.5,0.4c-0.5,0.4-1.2,0.9-2.3,1.7c-2.2,1.6-5.8,4.2-11,7.9
		c-10.3,7.2-27,18.5-53.2,35.6c-2.8-0.5-4.2-1.4-4.9-2c-0.6-0.6-1.2-1.5-1.3-3.6c-0.1-2.1,0.4-4.8,1.4-7.8
		c4-11.1,13.8-25.1,24.3-36.6l-0.3-0.3c1.5-1.7,3.1-3.4,4.6-4.9c7.9-8.1,14.3-12.8,17.1-13.9c9.2-3.4,29.6-9,54-11.7
		c24.6-2.7,51.3-2.5,74,6.1c0.1,0,0.2,0.1,0.3,0.1l2.6-8l0,0l-2.6,8c15.2,4.9,29.6,5.7,39.3,5.2c3.6-0.2,6.7-0.6,9.3-0.9L450.4,259
		L420.5,287z M255.4,488.9C128.1,488.9,24.8,384.7,24.8,256c0-128.7,103.3-232.9,230.5-232.9c63.3,0,120.7,25.8,162.4,67.6
		c-0.9,0.6-1.7,1-2.2,1.3l-22.9,12.2c-9.9,5.3-13.9,17.1-9.7,27.2c-0.6,0-1.2,0.1-1.8,0.1c-8.9,0.5-20.1,0-33.2-4.4l0,0
		c-25.4-9.2-55.9-9.7-81.4-7c-25.7,2.8-48.2,9-58.1,12.7c-6.7,2.5-15.4,9.8-23.3,17.9c-0.7,0.7-1.5,1.5-2.2,2.3
		c-11.2-2-23-6.9-33-11.8c-5.6-2.8-10.4-5.4-13.8-7.4c-1.7-1-3-1.8-3.9-2.4c-0.5-0.3-0.8-0.5-1-0.6c-0.1-0.1-0.2-0.1-0.2-0.2
		c0,0,0,0-0.1,0c0,0,0,0,0,0c0,0,0,0,0,0c0,0,0,0,0,0l0,0c-1.9-1.3-4.3-1.7-6.5-1.1c-2.2,0.5-4.2,1.9-5.3,3.9L49.6,250
		c-1.2,1.9-1.5,4.3-0.9,6.5c0.6,2.2,2,4.1,4,5.2l4.2-7.3l0,0l-4.2,7.3C75.2,274.4,88,288.8,98.6,303c5.2,7.1,9.8,14,14.4,20.5
		c4.7,6.5,9.8,13,15.5,18.2c11.3,10.1,30.5,21.4,51,33c20.8,11.7,43.6,24.1,63.4,36.6l0,0l0.1,0.1l4.4-7.2l0,0l-4.4,7.2
		c7.2,4.4,23.5,13.2,39.4,14.6c8.1,0.7,17.2-0.4,24.7-6.2c5.5-4.2,9.4-10.3,11.7-18.1c4.9,1.2,12.1,2.4,18.6,2
		c7-0.5,15.3-3,20.5-10.8c3.3-4.9,4.7-11,4.5-18.1c4.6,0.4,8.8,0,12.7-1.1c7.4-2.2,12.5-7.1,15.7-12.6c3.4-6,4.7-13.1,4.6-19.5
		c10.6-1.1,19.9-7.5,25.6-15c4.8-6.3,8.2-14.9,7.3-23.5l31.2-29.2c6.5,6.3,16.5,8,24.9,3.5l0.6-0.3
		C474.5,395.8,375.6,488.9,255.4,488.9z"/>
</g>
</svg>
