<?xml version="1.0" encoding="utf-8"?>
<!-- Generator: Adobe Illustrator 16.0.0, SVG Export Plug-In . SVG Version: 6.00 Build 0)  -->
<!DOCTYPE svg PUBLIC "-//W3C//DTD SVG 1.1//EN" "http://www.w3.org/Graphics/SVG/1.1/DTD/svg11.dtd">
<svg version="1.1" id="Layer_1" xmlns="http://www.w3.org/2000/svg" xmlns:xlink="http://www.w3.org/1999/xlink" x="0px" y="0px"
	 width="512px" height="512px" viewBox="-241 -223 512 512" enable-background="new -241 -223 512 512" xml:space="preserve">
<g>
	<path fill="none" stroke="#333333" d="M15.119-222c59.398,0,107.555,48.388,107.555,108.084c0,37.841-19.369,71.138-48.646,90.444
		l45.905,311.03H-89.684l45.918-311.03C-74.185-43.5-92.475-77.498-92.422-113.916C-92.422-173.612-44.268-222,15.119-222z"/>
	<path fill="none" stroke="#333333" d="M118.541,272.123h-189.38l43.53-293.796c-28.803-18.865-46.148-50.99-46.118-85.42
		c0-56.389,45.647-102.097,101.96-102.097c27.777,0,52.98,11.125,71.34,29.167"/>
	<path fill="none" stroke="#333333" d="M117.423,255.962H-49.991L-9.198-19.562c-27.004-17.709-43.255-47.841-43.224-80.133
		c0-52.874,42.775-95.734,95.547-95.734c23.46-0.026,46.106,8.617,63.578,24.279"/>
</g>
</svg>
