<?xml version="1.0" encoding="utf-8"?>
<!-- Generator: Adobe Illustrator 21.0.0, SVG Export Plug-In . SVG Version: 6.00 Build 0)  -->
<svg version="1.1" id="Layer_1" xmlns:figma="http://www.figma.com/figma/ns"
	 xmlns="http://www.w3.org/2000/svg" xmlns:xlink="http://www.w3.org/1999/xlink" x="0px" y="0px" viewBox="0 0 512 512"
	 style="enable-background:new 0 0 512 512;" xml:space="preserve">
<style type="text/css">
	.st0{fill:#FFFFFF;}
	.st1{fill:#F66290;}
	.st2{fill:#FEEEF3;}
	.st3{fill:#E1F2FA;}
</style>
<title>43-communications-headphones-support</title>
<desc>Created using Figma</desc>
<g id="Canvas" transform="translate(-2534 -7456)" figma:type="canvas">
	<g id="_x34_3-communications-headphones-support" figma:type="frame">
		<g id="Layer_1_1_" figma:type="vector">
			<g transform="translate(2535 7465.4)">
				<path id="path0_fill" class="st0" d="M2641.6,7563.6h-98.9v346.3c0,27.3,22.1,49.4,49.5,49.4c27.3,0,49.5-22.1,49.5-49.4"/>
			</g>
			<g transform="translate(2535 7465.4)">
				<path id="path1_stroke" class="st1" d="M2641.6,7572.2c4.8,0,8.7-3.9,8.7-8.7c0-4.8-3.9-8.7-8.7-8.7V7572.2z M2542.6,7554.9
					c-4.8,0-8.7,3.9-8.7,8.7c0,4.8,3.9,8.7,8.7,8.7V7554.9z M2650.2,7909.9c0-4.8-3.9-8.7-8.7-8.7s-8.7,3.9-8.7,8.7H2650.2z
					 M2641.6,7554.9h-98.9v17.3h98.9V7554.9z M2534,7563.6v346.3h17.3v-346.3H2534z M2534,7909.9c0,32,26,58.1,58.1,58.1v-17.3
					c-22.5,0-40.8-18.3-40.8-40.8H2534z M2592.1,7968c32.1,0,58.1-26,58.1-58.1h-17.3c0,22.5-18.3,40.8-40.8,40.8V7968z"/>
			</g>
		</g>
		<g id="Layer_2" figma:type="vector">
			<g transform="translate(2538.57 7457)">
				<path id="path2_fill" class="st2" d="M2584.7,7959.3h403.2c27.3,0,49.5-22.1,49.5-49.5v-445.2H2642h-0.4v445.2
					c0,27.3-22.1,49.4-49.5,49.4H2584.7z"/>
			</g>
			<g transform="translate(2538.57 7457)">
				<path id="path3_stroke" class="st1" d="M2584.7,7950.7c-4.8,0-8.7,3.9-8.7,8.7s3.9,8.7,8.7,8.7V7950.7z M3037.3,7464.7h8.7
					c0-4.8-3.9-8.7-8.7-8.7V7464.7z M2641.6,7464.7v-8.7c-4.8,0-8.7,3.9-8.7,8.7H2641.6z M2584.7,7950.7c-4.8,0-8.7,3.9-8.7,8.7
					s3.9,8.7,8.7,8.7V7950.7z M2584.7,7968h403.2v-17.3h-403.2V7968z M2987.9,7968c32,0,58.1-26,58.1-58.1h-17.3
					c0,22.5-18.3,40.8-40.8,40.8V7968z M3046,7909.9v-445.2h-17.3v445.2H3046z M3037.3,7456H2642v17.3h395.3V7456z M2642,7456h-0.4
					v17.3h0.4V7456z M2632.9,7464.7v445.2h17.3v-445.2H2632.9z M2632.9,7909.9c0,22.5-18.2,40.8-40.8,40.8v17.3
					c32.2,0,58.2-26,58.2-58.1H2632.9z M2592.1,7950.7h-7.4v17.3h7.4V7950.7z"/>
			</g>
		</g>
		<g id="Layer_3" figma:type="vector">
			<g transform="translate(2547.6 7461.2)">
				<path id="path4_fill" class="st0" d="M2691.1,7514.1h123.7v148.4h-123.7V7514.1z"/>
			</g>
			<g transform="translate(2547.6 7461.2)">
				<path id="path5_stroke" class="st1" d="M2691.1,7514.1v-8.7c-4.8,0-8.7,3.9-8.7,8.7H2691.1z M2814.7,7514.1h8.7
					c0-4.8-3.9-8.7-8.7-8.7V7514.1z M2814.7,7662.5v8.7c4.8,0,8.7-3.9,8.7-8.7H2814.7z M2691.1,7662.5h-8.7c0,4.8,3.9,8.7,8.7,8.7
					V7662.5z M2691.1,7522.8h123.7v-17.3h-123.7V7522.8z M2806.1,7514.1v148.4h17.3v-148.4H2806.1z M2814.7,7653.9h-123.7v17.3
					h123.7V7653.9z M2699.7,7662.5v-148.4h-17.3v148.4H2699.7z"/>
			</g>
		</g>
		<g id="Layer_4" figma:type="vector">
			<g transform="translate(2547.6 7477.58)">
				<path id="path6_fill" class="st3" d="M2691.1,7712h115.2h181.6"/>
			</g>
			<path id="path7_stroke" class="st1" d="M2691.1,7703.3c-4.8,0-8.7,3.9-8.7,8.7s3.9,8.7,8.7,8.7V7703.3z M2987.9,7720.7
				c4.8,0,8.7-3.9,8.7-8.7s-3.9-8.7-8.7-8.7V7720.7z M2691.1,7720.7h115.2v-17.3h-115.2V7720.7z M2806.2,7720.7h181.6v-17.3h-181.6
				V7720.7z"/>
		</g>
		<g id="Layer_5" figma:type="vector">
			<g transform="translate(2547.6 7481.78)">
				<path id="path8_fill" class="st3" d="M2691.1,7761.5h296.8H2691.1z"/>
			</g>
			<g transform="translate(2547.6 7481.78)">
				<path id="path9_stroke" class="st1" d="M2691.1,7752.8c-4.8,0-8.7,3.9-8.7,8.7c0,4.8,3.9,8.7,8.7,8.7V7752.8z M2987.9,7770.1
					c4.8,0,8.7-3.9,8.7-8.7c0-4.8-3.9-8.7-8.7-8.7V7770.1z M2691.1,7770.1h296.8v-17.3h-296.8V7770.1z"/>
			</g>
		</g>
		<g id="Layer_6" figma:type="vector">
			<g transform="translate(2547.6 7485.98)">
				<path id="path8_fill_1_" class="st3" d="M2691.1,7810.9h296.8H2691.1z"/>
			</g>
			<g transform="translate(2547.6 7485.98)">
				<path id="path9_stroke_1_" class="st1" d="M2691.1,7802.3c-4.8,0-8.7,3.9-8.7,8.7c0,4.8,3.9,8.7,8.7,8.7V7802.3z M2987.9,7819.6
					c4.8,0,8.7-3.9,8.7-8.7c0-4.8-3.9-8.7-8.7-8.7V7819.6z M2691.1,7819.6h296.8v-17.3h-296.8V7819.6z"/>
			</g>
		</g>
		<g id="Layer_7" figma:type="vector">
			<g transform="translate(2547.6 7490.18)">
				<path id="path8_fill_2_" class="st3" d="M2691.1,7860.4h296.8H2691.1z"/>
			</g>
			<g transform="translate(2547.6 7490.18)">
				<path id="path9_stroke_2_" class="st1" d="M2691.1,7851.7c-4.8,0-8.7,3.9-8.7,8.7c0,4.8,3.9,8.7,8.7,8.7V7851.7z M2987.9,7869.1
					c4.8,0,8.7-3.9,8.7-8.7c0-4.8-3.9-8.7-8.7-8.7V7869.1z M2691.1,7869.1h296.8v-17.3h-296.8V7869.1z"/>
			</g>
		</g>
		<g id="Layer_8" figma:type="vector">
			<g transform="translate(2562.3 7469.18)">
				<path id="path10_fill" class="st3" d="M2864.2,7613.1h123.7H2864.2z"/>
			</g>
			<g transform="translate(2562.3 7469.18)">
				<path id="path11_stroke" class="st1" d="M2864.2,7604.4c-4.8,0-8.7,3.9-8.7,8.7c0,4.8,3.9,8.7,8.7,8.7V7604.4z M2987.9,7621.7
					c4.8,0,8.7-3.9,8.7-8.7c0-4.8-3.9-8.7-8.7-8.7V7621.7z M2864.2,7621.7h123.7v-17.3h-123.7V7621.7z"/>
			</g>
		</g>
		<g id="Layer_9" figma:type="vector">
			<g transform="translate(2562.3 7473.38)">
				<path id="path10_fill_1_" class="st3" d="M2864.2,7662.5h123.7H2864.2z"/>
			</g>
			<g transform="translate(2562.3 7473.38)">
				<path id="path11_stroke_1_" class="st1" d="M2864.2,7653.9c-4.8,0-8.7,3.9-8.7,8.7c0,4.8,3.9,8.7,8.7,8.7V7653.9z
					 M2987.9,7671.2c4.8,0,8.7-3.9,8.7-8.7c0-4.8-3.9-8.7-8.7-8.7V7671.2z M2864.2,7671.2h123.7v-17.3h-123.7V7671.2z"/>
			</g>
		</g>
	</g>
</g>
</svg>
