<?xml version="1.0" encoding="utf-8"?>
<!-- Generator: Adobe Illustrator 21.0.0, SVG Export Plug-In . SVG Version: 6.00 Build 0)  -->
<svg version="1.1" id="Layer_1" xmlns:figma="http://www.figma.com/figma/ns"
	 xmlns="http://www.w3.org/2000/svg" xmlns:xlink="http://www.w3.org/1999/xlink" x="0px" y="0px" width="512px" height="512px"
	 viewBox="0 0 512 512" enable-background="new 0 0 512 512" xml:space="preserve">
<title>43-communications-headphones-support</title>
<desc>Created using Figma</desc>
<g>
	<path fill="#F66290" d="M494.7,9H113.3h-0.4c-4.6,0-8.4,3.7-8.4,8.4v87.1H17.4c-4.6,0-8.4,3.7-8.4,8.4V447
		c0,27,19.2,49.6,44.7,54.9c1.2,0.7,2.7,1.2,4.2,1.2h7.1h381.9c30.9,0,56.1-25.1,56.1-56.1V17.4C503,12.7,499.3,9,494.7,9z
		 M25.7,447V121.2h78.8v325.5c0,0.1,0,0.2,0,0.3c0,21.7-17.6,39.3-39.4,39.3C43.3,486.3,25.7,468.6,25.7,447z M446.9,486.3H105
		c10-10.1,16.1-24,16.1-39.3V25.7h365.1v421.2C486.3,468.7,468.6,486.3,446.9,486.3z"/>
	<path fill="#F66290" d="M160.5,216.6h119.3c4.6,0,8.4-3.7,8.4-8.4V65.1c0-4.6-3.7-8.4-8.4-8.4H160.5c-4.6,0-8.4,3.7-8.4,8.4v143.2
		C152.2,212.9,155.9,216.6,160.5,216.6z M168.9,73.4h102.6v126.5H168.9V73.4z"/>
	<path fill="#F66290" d="M446.9,247.7H271.7H160.5c-4.6,0-8.4,3.7-8.4,8.4s3.7,8.4,8.4,8.4h111.1h175.3c4.6,0,8.4-3.7,8.4-8.4
		S451.5,247.7,446.9,247.7z"/>
	<path fill="#F66290" d="M446.9,295.4H160.5c-4.6,0-8.4,3.7-8.4,8.4s3.7,8.4,8.4,8.4h286.4c4.6,0,8.4-3.7,8.4-8.4
		S451.5,295.4,446.9,295.4z"/>
	<path fill="#F66290" d="M446.9,343.1H160.5c-4.6,0-8.4,3.7-8.4,8.4s3.7,8.4,8.4,8.4h286.4c4.6,0,8.4-3.7,8.4-8.4
		S451.5,343.1,446.9,343.1z"/>
	<path fill="#F66290" d="M446.9,390.8H160.5c-4.6,0-8.4,3.7-8.4,8.4s3.7,8.4,8.4,8.4h286.4c4.6,0,8.4-3.7,8.4-8.4
		S451.5,390.8,446.9,390.8z"/>
	<path fill="#F66290" d="M327.6,168.9h119.3c4.6,0,8.4-3.7,8.4-8.4s-3.7-8.4-8.4-8.4H327.6c-4.6,0-8.4,3.7-8.4,8.4
		S323,168.9,327.6,168.9z"/>
	<path fill="#F66290" d="M327.6,216.6h119.3c4.6,0,8.4-3.7,8.4-8.4s-3.7-8.4-8.4-8.4H327.6c-4.6,0-8.4,3.7-8.4,8.4
		S323,216.6,327.6,216.6z"/>
</g>
</svg>
