<svg width="44" height="44" viewBox="0 0 44 44" version="1.1" xmlns="http://www.w3.org/2000/svg" xmlns:xlink="http://www.w3.org/1999/xlink" xmlns:figma="http://www.figma.com/figma/ns">
<title>Group 5</title>
<desc>Created using Figma</desc>
<g id="Canvas" transform="translate(-2941 -6784)" figma:type="canvas">
<g id="Group 5" figma:type="frame">
<g id="Layer 1" figma:type="vector">
<use xlink:href="#path0_fill" transform="translate(2942 6785)" fill="#FEEEF3"/>
<use xlink:href="#path1_stroke" transform="translate(2942 6785)" fill="#F66290"/>
</g>
<g id="Layer 2" figma:type="vector">
<use xlink:href="#path2_fill" transform="translate(2944.1 6789.2)" fill="#FEEEF3"/>
<use xlink:href="#path3_stroke" transform="translate(2944.1 6789.2)" fill="#F66290"/>
</g>
<g id="Layer 3" figma:type="vector">
<use xlink:href="#path4_fill" transform="translate(2942 6819.02)" fill="#E1F2FA"/>
<use xlink:href="#path5_stroke" transform="translate(2942 6819.02)" fill="#F66290"/>
</g>
<g id="Layer 4" figma:type="vector">
<use xlink:href="#path6_fill" transform="translate(2961.58 6819.44)" fill="#F66290"/>
<use xlink:href="#path7_stroke" transform="translate(2961.58 6819.44)" fill="#F66290"/>
</g>
<g id="Layer 5" figma:type="vector">
<use xlink:href="#path8_fill" transform="translate(2960.9 6822.8)" fill="#FFFFFF"/>
<use xlink:href="#path9_stroke" transform="translate(2960.9 6822.8)" fill="#F66290"/>
</g>
<g id="Layer 6" figma:type="vector">
<use xlink:href="#path10_stroke" transform="translate(2952.92 6793.82)" fill="#F66290"/>
</g>
<g id="Layer 7" figma:type="vector">
<use xlink:href="#path11_stroke" transform="translate(2952.92 6796.84)" fill="#F66290"/>
</g>
</g>
</g>
<defs>
<path id="path0_fill" fill-rule="evenodd" d="M 0 0L 42 0L 42 4.2L 0 4.2L 0 0Z"/>
<path id="path1_stroke" d="M 0 0L 0 -0.735C -0.405929 -0.735 -0.735 -0.405929 -0.735 1.63203e-16L 0 0ZM 42 0L 42.735 0C 42.735 -0.405929 42.4059 -0.735 42 -0.735L 42 0ZM 42 4.2L 42 4.935C 42.4059 4.935 42.735 4.60593 42.735 4.2L 42 4.2ZM 0 4.2L -0.735 4.2C -0.735 4.60593 -0.405929 4.935 1.63203e-16 4.935L 0 4.2ZM 0 0.735L 42 0.735L 42 -0.735L 0 -0.735L 0 0.735ZM 41.265 0L 41.265 4.2L 42.735 4.2L 42.735 0L 41.265 0ZM 42 3.465L 0 3.465L 0 4.935L 42 4.935L 42 3.465ZM 0.735 4.2L 0.735 0L -0.735 0L -0.735 4.2L 0.735 4.2Z"/>
<path id="path2_fill" fill-rule="evenodd" d="M 0 0L 37.8 0L 37.8 30.24L 0 30.24L 0 0Z"/>
<path id="path3_stroke" d="M 0 0L 0 -0.735C -0.405929 -0.735 -0.735 -0.405929 -0.735 1.63203e-16L 0 0ZM 37.8 0L 38.535 0C 38.535 -0.405929 38.2059 -0.735 37.8 -0.735L 37.8 0ZM 37.8 30.24L 37.8 30.975C 38.2059 30.975 38.535 30.6459 38.535 30.24L 37.8 30.24ZM 0 30.24L -0.735 30.24C -0.735 30.6459 -0.405929 30.975 1.63203e-16 30.975L 0 30.24ZM 0 0.735L 37.8 0.735L 37.8 -0.735L 0 -0.735L 0 0.735ZM 37.065 0L 37.065 30.24L 38.535 30.24L 38.535 0L 37.065 0ZM 37.8 29.505L 0 29.505L 0 30.975L 37.8 30.975L 37.8 29.505ZM 0.735 30.24L 0.735 0L -0.735 0L -0.735 30.24L 0.735 30.24Z"/>
<path id="path4_fill" fill-rule="evenodd" d="M 0 0.42L 42 0.42L 0 0.42Z"/>
<path id="path5_stroke" d="M 0 -0.315C -0.405929 -0.315 -0.735 0.0140707 -0.735 0.42C -0.735 0.825929 -0.405929 1.155 0 1.155L 0 -0.315ZM 42 1.155C 42.4059 1.155 42.735 0.825929 42.735 0.42C 42.735 0.0140707 42.4059 -0.315 42 -0.315L 42 1.155ZM 0 1.155L 42 1.155L 42 -0.315L 0 -0.315L 0 1.155Z"/>
<path id="path6_fill" fill-rule="evenodd" d="M 1.42 0L 1.42 3.10058L 1.42 0Z"/>
<path id="path7_stroke" d="M 2.155 0C 2.155 -0.405929 1.82593 -0.735 1.42 -0.735C 1.01407 -0.735 0.685 -0.405929 0.685 0L 2.155 0ZM 0.685 3.10058C 0.685 3.50651 1.01407 3.83558 1.42 3.83558C 1.82593 3.83558 2.155 3.50651 2.155 3.10058L 0.685 3.10058ZM 0.685 0L 0.685 3.10058L 2.155 3.10058L 2.155 0L 0.685 0Z"/>
<path id="path8_fill" fill-rule="evenodd" d="M 2.1 4.2C 3.2598 4.2 4.2 3.2598 4.2 2.1C 4.2 0.940202 3.2598 0 2.1 0C 0.940202 0 0 0.940202 0 2.1C 0 3.2598 0.940202 4.2 2.1 4.2Z"/>
<path id="path9_stroke" d="M 2.1 4.935C 3.66573 4.935 4.935 3.66573 4.935 2.1L 3.465 2.1C 3.465 2.85387 2.85387 3.465 2.1 3.465L 2.1 4.935ZM 4.935 2.1C 4.935 0.534273 3.66573 -0.735 2.1 -0.735L 2.1 0.735C 2.85387 0.735 3.465 1.34613 3.465 2.1L 4.935 2.1ZM 2.1 -0.735C 0.534273 -0.735 -0.735 0.534273 -0.735 2.1L 0.735 2.1C 0.735 1.34613 1.34613 0.735 2.1 0.735L 2.1 -0.735ZM -0.735 2.1C -0.735 3.66573 0.534273 4.935 2.1 4.935L 2.1 3.465C 1.34613 3.465 0.735 2.85387 0.735 2.1L -0.735 2.1Z"/>
<path id="path10_stroke" d="M 20.16 20.895C 20.5659 20.895 20.895 20.5659 20.895 20.16C 20.895 19.7541 20.5659 19.425 20.16 19.425L 20.16 20.895ZM 0 20.16L -0.735 20.16C -0.735 20.5659 -0.405929 20.895 1.63203e-16 20.895L 0 20.16ZM 20.16 19.425L 0 19.425L 0 20.895L 20.16 20.895L 20.16 19.425ZM 0.735 20.16L 0.735 0L -0.735 0L -0.735 20.16L 0.735 20.16Z"/>
<path id="path11_stroke" d="M -0.517862 9.55842C -0.805922 9.84443 -0.807586 10.3098 -0.521579 10.5979C -0.235572 10.8859 0.229802 10.8876 0.517862 10.6016L -0.517862 9.55842ZM 5.07618 5.04L 5.59777 4.52215C 5.46042 4.38381 5.27375 4.3057 5.07881 4.305C 4.88388 4.30431 4.69665 4.38107 4.55831 4.51842L 5.07618 5.04ZM 10.08 10.08L 9.55841 10.5978C 9.69607 10.7365 9.88328 10.8146 10.0787 10.815C 10.2741 10.8154 10.4616 10.7379 10.5997 10.5997L 10.08 10.08ZM 20.6797 0.519723C 20.9668 0.232688 20.9668 -0.232688 20.6797 -0.519723C 20.3927 -0.806759 19.9273 -0.806759 19.6403 -0.519723L 20.6797 0.519723ZM 0.517862 10.6016L 5.59404 5.56158L 4.55831 4.51842L -0.517862 9.55842L 0.517862 10.6016ZM 4.55458 5.55785L 9.55841 10.5978L 10.6016 9.56215L 5.59777 4.52215L 4.55458 5.55785ZM 10.5997 10.5997L 20.6797 0.519723L 19.6403 -0.519723L 9.56028 9.56028L 10.5997 10.5997Z"/>
</defs>
</svg>
