<?xml version="1.0" encoding="utf-8"?>
<!-- Generator: Adobe Illustrator 21.0.0, SVG Export Plug-In . SVG Version: 6.00 Build 0)  -->
<svg version="1.1" id="Layer_1" xmlns:figma="http://www.figma.com/figma/ns"
	 xmlns="http://www.w3.org/2000/svg" xmlns:xlink="http://www.w3.org/1999/xlink" x="0px" y="0px" width="512px" height="512px"
	 viewBox="0 0 512 512" enable-background="new 0 0 512 512" xml:space="preserve">
<title>Group 5</title>
<desc>Created using Figma</desc>
<g>
	<path fill="#F66290" d="M503.3,66.8c4.8,0,8.7-3.9,8.7-8.7V8.7c0-4.8-3.9-8.7-8.7-8.7H8.7C3.9,0,0,3.9,0,8.7v49.5
		c0,4.8,3.9,8.7,8.7,8.7h16.1v338.9H8.7c-4.8,0-8.7,3.9-8.7,8.7c0,4.8,3.9,8.7,8.7,8.7h24.7c0,0,0,0,0,0h214v23.4
		c-14.2,3.8-24.7,16.8-24.7,32.3c0,18.4,14.9,33.4,33.4,33.4s33.4-14.9,33.4-33.4c0-15.4-10.5-28.4-24.7-32.3V423h214c0,0,0,0,0,0
		h24.7c4.8,0,8.7-3.9,8.7-8.7c0-4.8-3.9-8.7-8.7-8.7h-16.1V66.8H503.3z M17.3,17.3h477.4v32.2H17.3V17.3z M272.1,478.6
		c0,8.9-7.2,16.1-16.1,16.1c-8.9,0-16.1-7.2-16.1-16.1c0-8.9,7.2-16.1,16.1-16.1C264.9,462.5,272.1,469.7,272.1,478.6z M256,405.6
		C256,405.6,256,405.6,256,405.6C256,405.6,256,405.6,256,405.6H42V66.8H470v338.9H256z"/>
	<path fill="#F66290" d="M374.7,341.3H145.9v-70.9l51.1-50.7l52.8,53.2l6.1-6.1l0,0l-6.1,6.1c1.6,1.6,3.8,2.6,6.1,2.6
		c2.3,0,4.5-0.9,6.1-2.5l118.7-118.7c3.4-3.4,3.4-8.9,0-12.2c-3.4-3.4-8.9-3.4-12.2,0L256,254.6l-52.8-53.2
		c-1.6-1.6-3.8-2.5-6.1-2.6c-2.3,0-4.5,0.9-6.1,2.5l6.1,6.1l0,0l-6.1-6.1l-45,44.7V112.5h-17.3V350c0,4.8,3.9,8.7,8.7,8.7h237.5
		c4.8,0,8.7-3.9,8.7-8.7C383.4,345.2,379.5,341.3,374.7,341.3z"/>
</g>
</svg>
