<svg width="44" height="44" viewBox="0 0 44 44" version="1.1" xmlns="http://www.w3.org/2000/svg" xmlns:xlink="http://www.w3.org/1999/xlink" xmlns:figma="http://www.figma.com/figma/ns">
<title>26-web-seo-internet-profle copy 5</title>
<desc>Created using Figma</desc>
<g id="Canvas" transform="translate(-2174 -7017)" figma:type="canvas">
<g id="26-web-seo-internet-profle copy 5" figma:type="frame">
<g id="Layer 1" figma:type="vector">
<use xlink:href="#path0_fill" transform="translate(2175 7018)" fill="#FEEEF3"/>
<use xlink:href="#path1_stroke" transform="translate(2175 7018)" fill="#F66290"/>
</g>
<g id="Layer 2" figma:type="vector">
<use xlink:href="#path2_fill" transform="translate(2199.78 7027.24)" fill="#E1F2FA"/>
<use xlink:href="#path3_stroke" transform="translate(2199.78 7027.24)" fill="#F66290"/>
</g>
<g id="Layer 3" figma:type="vector">
<use xlink:href="#path2_fill" transform="translate(2199.78 7032.28)" fill="#E1F2FA"/>
<use xlink:href="#path3_stroke" transform="translate(2199.78 7032.28)" fill="#F66290"/>
</g>
<g id="Layer 4" figma:type="vector">
<use xlink:href="#path4_fill" transform="translate(2199.78 7037.32)" fill="#E1F2FA"/>
<use xlink:href="#path5_stroke" transform="translate(2199.78 7037.32)" fill="#F66290"/>
</g>
<g id="Layer 5" figma:type="vector">
<use xlink:href="#path6_fill" transform="translate(2178.78 7023.46)" fill="#FFFFFF"/>
<use xlink:href="#path7_stroke" transform="translate(2178.78 7023.46)" fill="#F66290"/>
</g>
<g id="Layer 6" figma:type="vector">
<use xlink:href="#path8_fill" transform="translate(2186.76 7054.12)" fill="#FEEEF3"/>
<use xlink:href="#path9_stroke" transform="translate(2186.76 7054.12)" fill="#F66290"/>
</g>
</g>
</g>
<defs>
<path id="path0_fill" fill-rule="evenodd" d="M 0 0L 42 0L 42 29.4L 0 29.4L 0 0Z"/>
<path id="path1_stroke" d="M 0 0L 0 -0.735C -0.405929 -0.735 -0.735 -0.405929 -0.735 1.63203e-16L 0 0ZM 42 0L 42.735 0C 42.735 -0.405929 42.4059 -0.735 42 -0.735L 42 0ZM 42 29.4L 42 30.135C 42.4059 30.135 42.735 29.8059 42.735 29.4L 42 29.4ZM 0 29.4L -0.735 29.4C -0.735 29.8059 -0.405929 30.135 1.63203e-16 30.135L 0 29.4ZM 0 0.735L 42 0.735L 42 -0.735L 0 -0.735L 0 0.735ZM 41.265 0L 41.265 29.4L 42.735 29.4L 42.735 0L 41.265 0ZM 42 28.665L 0 28.665L 0 30.135L 42 30.135L 42 28.665ZM 0.735 29.4L 0.735 0L -0.735 0L -0.735 29.4L 0.735 29.4Z"/>
<path id="path2_fill" fill-rule="evenodd" d="M 0 0.42L 13.44 0.42L 0 0.42Z"/>
<path id="path3_stroke" d="M 0 -0.315C -0.405929 -0.315 -0.735 0.0140707 -0.735 0.42C -0.735 0.825929 -0.405929 1.155 0 1.155L 0 -0.315ZM 13.44 1.155C 13.8459 1.155 14.175 0.825929 14.175 0.42C 14.175 0.0140707 13.8459 -0.315 13.44 -0.315L 13.44 1.155ZM 0 1.155L 13.44 1.155L 13.44 -0.315L 0 -0.315L 0 1.155Z"/>
<path id="path4_fill" fill-rule="evenodd" d="M 0 0.42L 8.4 0.42L 0 0.42Z"/>
<path id="path5_stroke" d="M 0 -0.315C -0.405929 -0.315 -0.735 0.0140707 -0.735 0.42C -0.735 0.825929 -0.405929 1.155 0 1.155L 0 -0.315ZM 8.4 1.155C 8.80593 1.155 9.135 0.825929 9.135 0.42C 9.135 0.0140707 8.80593 -0.315 8.4 -0.315L 8.4 1.155ZM 0 1.155L 8.4 1.155L 8.4 -0.315L 0 -0.315L 0 1.155Z"/>
<path id="path6_fill" fill-rule="evenodd" d="M 4.89782 5.967C 4.74312 6.0655 4.45169 6.68373 4.58354 7.22616C 4.77961 8.03286 5.47706 8.34771 5.47706 8.34771C 5.47706 8.34771 6.56818 9.83736 6.56818 10.7037C 6.56818 11.57 6.56818 11.9066 6.27577 12.6293C 5.98337 13.352 0.24367 14.2184 0 18.4791L 8.35414 18.4791L 16.8 18.48C 16.5563 14.2193 10.8166 13.3529 10.5242 12.6302C 10.2318 11.9075 10.2318 11.5709 10.2318 10.7046C 10.2318 9.83829 11.3229 8.34864 11.3229 8.34864C 11.3229 8.34864 12.0204 8.03379 12.2165 7.22709C 12.3483 6.68466 12.0569 6.06643 11.9022 5.96793C 12.3157 4.6633 13.1416 0.165632 8.44586 0.00352773C 8.42499 0.000463054 8.40422 0.00101012 8.38356 0.00164059C 3.65844 0.164702 4.48431 4.66237 4.89782 5.967Z"/>
<path id="path7_stroke" d="M 4.89782 5.967L 5.29257 6.58699C 5.57359 6.40807 5.69912 6.0625 5.59846 5.74492L 4.89782 5.967ZM 4.58354 7.22616L 5.29774 7.05257L 4.58354 7.22616ZM 5.47706 8.34771L 6.07001 7.91339C 5.9951 7.81112 5.89502 7.72996 5.77947 7.6778L 5.47706 8.34771ZM 0 18.4791L -0.733801 18.4371C -0.745347 18.639 -0.673204 18.8367 -0.534355 18.9837C -0.395506 19.1308 -0.20222 19.2141 0 19.2141L 0 18.4791ZM 8.35414 18.4791L 8.35422 17.7441L 8.35414 17.7441L 8.35414 18.4791ZM 16.8 18.48L 16.7999 19.215C 17.0022 19.215 17.1955 19.1317 17.3343 18.9847C 17.4732 18.8377 17.5453 18.6399 17.5338 18.438L 16.8 18.48ZM 11.3229 8.34864L 11.0205 7.67874C 10.905 7.73089 10.8049 7.81205 10.73 7.91432L 11.3229 8.34864ZM 12.2165 7.22709L 11.5023 7.0535L 12.2165 7.22709ZM 11.9022 5.96793L 11.2015 5.74585C 11.1009 6.06343 11.2264 6.409 11.5074 6.58792L 11.9022 5.96793ZM 8.44586 0.00352773L 8.33909 0.730731C 8.36607 0.734693 8.39325 0.737149 8.4205 0.73809L 8.44586 0.00352773ZM 8.38356 0.00164059L 8.36114 -0.733023L 8.35821 -0.732922L 8.38356 0.00164059ZM 4.50306 5.347C 4.30996 5.46996 4.19002 5.65623 4.13066 5.7576C 4.06504 5.87164 3.98542 6.04802 3.93373 6.20443C 3.84093 6.50125 3.78357 6.99234 3.86933 7.39976L 5.29774 7.05257C 5.27393 6.9546 5.28333 6.80887 5.33272 6.65578C 5.35586 6.58406 5.38174 6.53017 5.39916 6.50043C 5.409 6.4827 5.40506 6.49157 5.40227 6.49387C 5.39999 6.49665 5.36467 6.54109 5.29257 6.58699L 4.50306 5.347ZM 3.86933 7.39976C 4.02154 7.9529 4.36946 8.41336 4.61128 8.635C 4.74693 8.7554 4.89471 8.8592 4.97982 8.91188C 5.02904 8.94193 5.07929 8.96983 5.10581 8.98377C 5.12224 8.99232 5.1398 9.0011 5.14821 9.00519C 5.15395 9.00797 5.16064 9.01114 5.16353 9.0125C 5.16573 9.01352 5.16853 9.01482 5.16962 9.01532C 5.17055 9.01575 5.17181 9.01633 5.17227 9.01654C 5.17269 9.01673 5.17329 9.017 5.17349 9.01709C 5.17369 9.01718 5.17398 9.01731 5.17408 9.01736C 5.17437 9.01749 5.17465 9.01761 5.47706 8.34771C 5.77947 7.6778 5.77975 7.67793 5.78002 7.67805C 5.78011 7.67809 5.78039 7.67822 5.78056 7.6783C 5.7804 7.67822 5.78193 7.67892 5.78159 7.67877C 5.7813 7.67863 5.78407 7.6799 5.78348 7.67963C 5.78306 7.67943 5.78745 7.68147 5.78658 7.68107C 5.78635 7.68096 5.79074 7.68304 5.79015 7.68276C 5.79206 7.68368 5.79063 7.68307 5.78761 7.68144C 5.77522 7.67501 5.76945 7.67201 5.75022 7.65994C 5.69843 7.62837 5.6596 7.60304 5.59637 7.5439C 5.44045 7.40644 5.34161 7.30613 5.29774 7.05257L 3.86933 7.39976ZM 5.47706 8.34771C 4.88411 8.78203 4.88405 8.78195 4.884 8.78188C 4.88399 8.78187 4.88394 8.7818 4.88392 8.78177C 4.88393 8.78178 4.88382 8.78163 4.88383 8.78165C 4.88378 8.78158 4.88384 8.78167 4.88395 8.78181C 4.88431 8.78231 4.88461 8.78271 4.88531 8.78369C 4.88705 8.78607 4.8891 8.78892 4.89242 8.79354C 4.89971 8.80369 4.90927 8.81707 4.92273 8.83622C 4.951 8.8764 4.98858 8.93067 5.03629 9.00216C 5.13458 9.14928 5.25678 9.33997 5.38337 9.56357C 5.66318 10.0567 5.83318 10.4885 5.83318 10.7037L 7.30318 10.7037C 7.30318 10.0525 6.92761 9.30638 6.66187 8.83807C 6.51568 8.58098 6.3651 8.3451 6.2588 8.18584C 6.20422 8.10415 6.15656 8.03526 6.12516 7.9906C 6.10878 7.96732 6.0949 7.94786 6.08621 7.93576C 6.08153 7.92926 6.07746 7.92363 6.07507 7.92033C 6.07371 7.91846 6.07244 7.91672 6.07176 7.91578C 6.07133 7.9152 6.0709 7.9146 6.07068 7.91431C 6.07054 7.91411 6.07037 7.91388 6.0703 7.91378C 6.07024 7.91371 6.07017 7.91361 6.07014 7.91357C 6.07008 7.91348 6.07001 7.91339 5.47706 8.34771ZM 5.83318 10.7037C 5.83318 11.57 5.84671 11.7661 5.59442 12.3536L 6.95712 12.9049C 7.28964 12.047 7.30318 11.57 7.30318 10.7037L 5.83318 10.7037ZM 5.59442 12.3536C 5.64448 12.2299 5.71635 12.1806 5.6973 12.196C 5.67352 12.2169 5.65251 12.2291 5.58007 12.2682C 5.42224 12.3551 5.20488 12.4501 4.91699 12.5733C 4.33884 12.8207 3.55102 13.1458 2.761 13.5859C 1.18855 14.4648 -0.590035 15.9233 -0.733801 18.4371L 0.733801 18.521C 0.833705 16.7742 2.04681 15.6691 3.47823 14.869C 4.19013 14.4696 4.9073 14.1763 5.49519 13.9248C 5.79033 13.7985 6.07126 13.674 6.28424 13.5586C 6.3972 13.4965 6.52972 13.4118 6.62227 13.3385C 6.71954 13.2598 6.87051 13.119 6.95712 12.9049L 5.59442 12.3536ZM 0 19.2141L 8.35414 19.2141L 8.35414 17.7441L 0 17.7441L 0 19.2141ZM 8.35406 19.2141L 16.7999 19.215L 16.8001 17.745L 8.35422 17.7441L 8.35406 19.2141ZM 17.5338 18.438C 17.39 15.9242 15.6115 14.4657 14.039 13.5868C 13.249 13.1467 12.4612 12.8216 11.883 12.5742C 11.5951 12.4511 11.3778 12.356 11.2199 12.2691C 11.1475 12.23 11.1265 12.2178 11.1027 12.1969C 11.0836 12.1815 11.1555 12.2308 11.2056 12.3546L 9.84288 12.9059C 9.92949 13.1199 10.0805 13.2607 10.1777 13.3395C 10.2703 13.4127 10.4028 13.4974 10.5158 13.5595C 10.7287 13.675 11.0097 13.7995 11.3048 13.9257C 11.8927 14.1772 12.6099 14.4705 13.3218 14.8699C 14.7532 15.67 15.9663 16.7751 16.0662 18.522L 17.5338 18.438ZM 11.2056 12.3546C 10.9533 11.7671 10.9668 11.5709 10.9668 10.7046L 9.49683 10.7046C 9.49683 11.5709 9.51036 12.0479 9.84288 12.9059L 11.2056 12.3546ZM 10.9668 10.7046C 10.9668 10.4895 11.1368 10.0576 11.4166 9.5645C 11.5432 9.3409 11.6654 9.15021 11.7637 9.00309C 11.8114 8.9316 11.849 8.87733 11.8773 8.83715C 11.8907 8.818 11.9003 8.80462 11.9076 8.79447C 11.9109 8.78985 11.913 8.78701 11.9147 8.78462C 11.9154 8.78364 11.9157 8.78324 11.9161 8.78274C 11.9162 8.7826 11.9162 8.78251 11.9162 8.78258C 11.9162 8.78256 11.9161 8.78271 11.9161 8.7827C 11.9161 8.78273 11.916 8.7828 11.916 8.78281C 11.9159 8.78288 11.9159 8.78296 11.3229 8.34864C 10.73 7.91432 10.7299 7.91441 10.7299 7.9145C 10.7298 7.91454 10.7298 7.91464 10.7297 7.91471C 10.7296 7.91481 10.7295 7.91504 10.7293 7.91524C 10.7291 7.91553 10.7287 7.91613 10.7282 7.91671C 10.7276 7.91765 10.7263 7.91939 10.7249 7.92126C 10.7225 7.92456 10.7185 7.93019 10.7138 7.93669C 10.7051 7.94879 10.6912 7.96825 10.6748 7.99153C 10.6434 8.03619 10.5958 8.10508 10.5412 8.18677C 10.4349 8.34603 10.2843 8.58191 10.1381 8.83901C 9.87239 9.30731 9.49683 10.0534 9.49683 10.7046L 10.9668 10.7046ZM 11.3229 8.34864C 11.6254 9.01854 11.6256 9.01842 11.6259 9.01829C 11.626 9.01824 11.6263 9.01811 11.6265 9.01802C 11.6267 9.01793 11.6273 9.01766 11.6277 9.01747C 11.6282 9.01726 11.6294 9.01668 11.6304 9.01626C 11.6315 9.01575 11.6343 9.01445 11.6365 9.01343C 11.6394 9.01208 11.6461 9.0089 11.6518 9.00612C 11.6602 9.00203 11.6778 8.99325 11.6942 8.9847C 11.7207 8.97076 11.771 8.94286 11.8202 8.91281C 11.9053 8.86013 12.0531 8.75633 12.1887 8.63593C 12.4305 8.41429 12.7785 7.95383 12.9307 7.40069L 11.5023 7.0535C 11.4584 7.30706 11.3595 7.40738 11.2036 7.54483C 11.1404 7.60397 11.1016 7.6293 11.0498 7.66087C 11.0306 7.67294 11.0248 7.67594 11.0124 7.68237C 11.0094 7.684 11.0079 7.68461 11.0098 7.68369C 11.0093 7.68397 11.0136 7.68189 11.0134 7.682C 11.0125 7.6824 11.0169 7.68037 11.0165 7.68056C 11.0159 7.68083 11.0187 7.67956 11.0184 7.6797C 11.0181 7.67985 11.0196 7.67915 11.0194 7.67923C 11.0196 7.67915 11.0199 7.67902 11.02 7.67898C 11.0203 7.67886 11.0205 7.67874 11.3229 8.34864ZM 12.9307 7.40069C 13.0164 6.99327 12.9591 6.50218 12.8663 6.20536C 12.8146 6.04895 12.735 5.87257 12.6693 5.75853C 12.61 5.65716 12.49 5.47089 12.2969 5.34793L 11.5074 6.58792C 11.4353 6.54202 11.4 6.49758 11.3977 6.4948C 11.3949 6.4925 11.391 6.48363 11.4008 6.50136C 11.4183 6.5311 11.4441 6.58499 11.4673 6.65671C 11.5167 6.8098 11.5261 6.95553 11.5023 7.0535L 12.9307 7.40069ZM 12.6028 6.19C 12.826 5.48601 13.1804 3.87996 12.8028 2.37806C 12.6123 1.64133 12.1695 0.818786 11.4864 0.248238C 10.7581 -0.339088 9.76411 -0.686401 8.47122 -0.731035L 8.4205 0.73809C 9.47546 0.774509 10.1391 1.05019 10.5637 1.39254C 11.0335 1.75167 11.2389 2.16547 11.3772 2.7365C 11.6572 3.85012 11.3919 5.14522 11.2015 5.74585L 12.6028 6.19ZM 8.55263 -0.723676C 8.46886 -0.733227 8.38333 -0.733693 8.36114 -0.733017L 8.40598 0.736299C 8.41762 0.735943 8.41184 0.736249 8.40278 0.736103C 8.39199 0.735929 8.36908 0.735134 8.33909 0.730731L 8.55263 -0.723676ZM 8.35821 -0.732922C 7.05889 -0.688083 6.06017 -0.341095 5.3279 0.245361C 4.64033 0.815662 4.19405 1.63814 4.00136 2.37514C 3.61927 3.87815 3.97405 5.48512 4.19717 6.18907L 5.59846 5.74492C 5.40808 5.14425 5.14317 3.85007 5.42605 2.73732C 5.56584 2.16644 5.77322 1.75239 6.24681 1.39275C 6.6757 1.04926 7.34567 0.772895 8.40891 0.736203L 8.35821 -0.732922Z"/>
<path id="path8_fill" fill-rule="evenodd" d="M 0 2.94C 0 1.31628 1.31628 0 2.94 0L 15.54 0C 17.1637 0 18.48 1.31628 18.48 2.94C 18.48 4.56372 17.1637 5.88 15.54 5.88L 2.94 5.88C 1.31628 5.88 0 4.56372 0 2.94Z"/>
<path id="path9_stroke" d="M 2.94 0.735L 15.54 0.735L 15.54 -0.735L 2.94 -0.735L 2.94 0.735ZM 15.54 5.145L 2.94 5.145L 2.94 6.615L 15.54 6.615L 15.54 5.145ZM 2.94 -0.735C 0.910354 -0.735 -0.735 0.910354 -0.735 2.94L 0.735 2.94C 0.735 1.72221 1.72221 0.735 2.94 0.735L 2.94 -0.735ZM 15.54 0.735C 16.7578 0.735 17.745 1.72221 17.745 2.94L 19.215 2.94C 19.215 0.910354 17.5696 -0.735 15.54 -0.735L 15.54 0.735ZM 17.745 2.94C 17.745 4.15779 16.7578 5.145 15.54 5.145L 15.54 6.615C 17.5696 6.615 19.215 4.96965 19.215 2.94L 17.745 2.94ZM 2.94 5.145C 1.72221 5.145 0.735 4.15779 0.735 2.94L -0.735 2.94C -0.735 4.96965 0.910354 6.615 2.94 6.615L 2.94 5.145Z"/>
</defs>
</svg>
