<?xml version="1.0" encoding="utf-8"?>
<!-- Generator: Adobe Illustrator 21.0.0, SVG Export Plug-In . SVG Version: 6.00 Build 0)  -->
<svg version="1.1" id="Layer_1" xmlns:figma="http://www.figma.com/figma/ns"
	 xmlns="http://www.w3.org/2000/svg" xmlns:xlink="http://www.w3.org/1999/xlink" x="0px" y="0px" width="512px" height="512px"
	 viewBox="0 0 512 512" enable-background="new 0 0 512 512" xml:space="preserve">
<title>26-web-seo-internet-profle copy 5</title>
<desc>Created using Figma</desc>
<g>
	<path fill="#F66290" d="M497.5,6H14.5C9.8,6,6,9.8,6,14.5v338.2c0,4.7,3.8,8.5,8.5,8.5h483.1c4.7,0,8.5-3.8,8.5-8.5V14.5
		C506,9.8,502.2,6,497.5,6z M489.1,344.2H22.9V22.9h466.2V344.2z"/>
	<path fill="#F66290" d="M299.5,134h154.6c4.7,0,8.5-3.8,8.5-8.5s-3.8-8.5-8.5-8.5H299.5c-4.7,0-8.5,3.8-8.5,8.5
		S294.8,134,299.5,134z"/>
	<path fill="#F66290" d="M299.5,192h154.6c4.7,0,8.5-3.8,8.5-8.5s-3.8-8.5-8.5-8.5H299.5c-4.7,0-8.5,3.8-8.5,8.5
		S294.8,192,299.5,192z"/>
	<path fill="#F66290" d="M299.5,250h96.6c4.7,0,8.5-3.8,8.5-8.5s-3.8-8.5-8.5-8.5h-96.6c-4.7,0-8.5,3.8-8.5,8.5S294.8,250,299.5,250
		z"/>
	<path fill="#F66290" d="M184.6,165.6C184.6,165.6,184.6,165.6,184.6,165.6C184.6,165.6,184.6,165.6,184.6,165.6z"/>
	<path fill="#F66290" d="M51.8,295.6c1.6,1.7,3.8,2.7,6.1,2.7H154l97.1,0c2.3,0,4.6-1,6.1-2.6c1.6-1.7,2.4-4,2.3-6.3
		c-1.7-28.9-22.1-45.7-40.2-55.8c-9.1-5.1-18.1-8.8-24.8-11.6c-3.3-1.4-5.8-2.5-7.6-3.5c-0.3-0.2-0.6-0.3-0.7-0.4
		c-2.3-5.7-2.2-8.3-2.2-17.6c0-2.5,2-7.4,5.2-13.1c1.5-2.6,2.9-4.8,4-6.5c0.3-0.4,0.5-0.8,0.7-1.1c1-0.6,2.6-1.8,4.1-3.1
		c2.8-2.5,6.8-7.8,8.5-14.2c1-4.7,0.3-10.3-0.7-13.7c-0.5-1.5-1.2-3.1-1.8-4.4c2.4-9.3,4.8-24.9,1.1-39.7
		c-2.2-8.5-7.3-17.9-15.1-24.5c-8.4-6.8-19.8-10.8-34.7-11.3l0,0c-0.6,0-1.1,0-1.3,0v0l0,0l0.3,8.4l0,0l-0.3-8.5
		c-14.9,0.5-26.4,4.5-34.9,11.3c-7.9,6.6-13,16-15.3,24.5c-3.8,14.8-1.3,30.4,1.1,39.7c-0.7,1.3-1.4,2.9-1.8,4.4
		c-1.1,3.4-1.7,9.1-0.7,13.7c1.8,6.4,5.8,11.7,8.5,14.2c1.5,1.3,3.2,2.5,4.1,3.1c0.2,0.3,0.5,0.7,0.7,1.1c1.1,1.7,2.5,3.9,4,6.5
		c3.2,5.7,5.2,10.6,5.2,13.1c0,9.2,0.1,11.9-2.2,17.6c-0.2,0.1-0.4,0.2-0.7,0.4c-1.8,1-4.3,2.1-7.6,3.5c-6.6,2.8-15.7,6.6-24.8,11.6
		c-18.1,10.1-38.5,26.9-40.2,55.8l8.4,0.5v0l-8.4-0.5C49.4,291.6,50.2,293.9,51.8,295.6z M185.7,217.6
		C185.6,217.6,185.6,217.5,185.7,217.6C185.6,217.5,185.6,217.5,185.7,217.6z M189,151.9C189,151.9,189,151.9,189,151.9L189,151.9z
		 M154.5,85.7c-0.1,0-0.3,0-0.6-0.1C154.1,85.7,154.3,85.7,154.5,85.7z M114.1,178.3C114.1,178.3,114.1,178.3,114.1,178.3
		C114.1,178.3,114.1,178.3,114.1,178.3C114.1,178.3,114.1,178.3,114.1,178.3L114.1,178.3C114.1,178.3,114.1,178.3,114.1,178.3z
		 M123.5,217.5C123.5,217.5,123.5,217.5,123.5,217.5C123.5,217.5,123.5,217.5,123.5,217.5z M97.9,248.3c8.2-4.6,16.4-8,23.2-10.9
		c3.4-1.5,6.6-2.9,9.1-4.2c1.3-0.7,2.8-1.7,3.9-2.5c1.1-0.9,2.9-2.5,3.9-5c3.8-9.9,4-15.4,4-25.3c0-7.5-4.3-16.1-7.4-21.5
		c-1.7-3-3.4-5.7-4.6-7.5c-0.6-0.9-1.2-1.7-1.5-2.2c-0.2-0.3-0.3-0.5-0.4-0.6c-0.1-0.1-0.1-0.1-0.1-0.2c0,0,0,0,0-0.1c0,0,0,0,0,0
		c0,0,0,0,0,0c0,0,0,0,0,0c0,0,0,0-6.8,5l6.8-5c-0.9-1.2-2-2.1-3.3-2.7c0,0,0,0,0,0c0,0,0,0,0,0c0,0,0,0,0,0c0,0,0,0,0,0
		c0,0,0,0,0,0c0,0,0,0,0,0c0,0,0,0,0,0c-0.1-0.1-0.2-0.1-0.4-0.2c-0.6-0.4-1-0.7-1.8-1.3c-1.8-1.6-2.9-2.7-3.4-5.7
		c-0.3-1.1-0.2-2.8,0.4-4.6c0.2-0.8,0.5-1.3,0.7-1.7c2.4-2.2,3.3-5.6,2.3-8.8l-8.1,2.6l4.5,7.1l-4.5-7.1l8.1-2.6
		c-2.2-6.9-5.2-21.8-2-34.6c1.6-6.6,4-11.3,9.4-15.5c4.9-3.9,12.6-7.1,24.8-7.5c0.1,0,0.1,0,0.2,0c12.1,0.4,19.8,3.6,24.7,7.5
		c5.4,4.1,7.8,8.9,9.4,15.5c3.2,12.8,0.2,27.7-2,34.6c-1,3.2,0,6.6,2.3,8.8c0.2,0.4,0.5,0.9,0.7,1.7c0.6,1.8,0.7,3.4,0.4,4.6
		c-0.5,2.9-1.6,4.1-3.4,5.7c-0.7,0.7-1.2,1-1.8,1.3c-0.2,0.1-0.3,0.2-0.4,0.2c0,0,0,0,0,0c0,0,0,0,0,0c0,0,0,0,0,0c0,0,0,0,0,0
		c0,0,0,0,0,0c0,0,0,0,0,0l0,0c-1.3,0.6-2.5,1.5-3.3,2.7l6.8,5c-6.8-5-6.8-5-6.8-5c0,0,0,0,0,0c0,0,0,0,0,0c0,0,0,0,0,0
		c0,0,0,0,0,0.1c0,0-0.1,0.1-0.1,0.2c-0.1,0.1-0.3,0.4-0.4,0.6c-0.4,0.5-0.9,1.3-1.5,2.2c-1.2,1.8-3,4.5-4.6,7.5
		c-3.1,5.4-7.4,14-7.4,21.5c0,10,0.2,15.5,4,25.3c1,2.5,2.7,4.1,3.9,5c1.1,0.8,2.6,1.8,3.9,2.5c2.4,1.3,5.7,2.8,9.1,4.2
		c6.8,2.9,15,6.3,23.2,10.9c13.9,7.8,26,18,30.1,33.1l-87.3,0h0H67.8C72,266.3,84.1,256,97.9,248.3z M120.1,151.9
		C120.1,151.9,120.1,151.9,120.1,151.9L120.1,151.9z"/>
	<path fill="#F66290" d="M328.5,421.5H183.5c-23.3,0-42.3,18.9-42.3,42.3c0,23.3,18.9,42.3,42.3,42.3h144.9
		c23.3,0,42.3-18.9,42.3-42.3C370.7,440.4,351.8,421.5,328.5,421.5z M328.5,489.1H183.5c-14,0-25.4-11.4-25.4-25.4
		c0-14,11.4-25.4,25.4-25.4h144.9c14,0,25.4,11.4,25.4,25.4C353.8,477.7,342.5,489.1,328.5,489.1z"/>
</g>
</svg>
