<?xml version="1.0" encoding="utf-8"?>
<!-- Generator: Adobe Illustrator 21.0.0, SVG Export Plug-In . SVG Version: 6.00 Build 0)  -->
<svg version="1.1" id="Layer_1" xmlns:figma="http://www.figma.com/figma/ns"
	 xmlns="http://www.w3.org/2000/svg" xmlns:xlink="http://www.w3.org/1999/xlink" x="0px" y="0px" width="512px" height="512px"
	 viewBox="0 0 512 512" enable-background="new 0 0 512 512" xml:space="preserve">
<title>48-holidays-flower</title>
<desc>Created using Figma</desc>
<g>
	<path fill="#F66290" d="M501.7,178.7c-9.3-28.5-31.9-48.9-58.4-56c0.5-26.5-11.9-53-35.3-70C383.6,35,353,31.9,327.2,42.1
		c-15-22.6-41.1-37.4-70.7-37.4c-29.6,0-55.7,14.8-70.7,37.4C160,31.9,129.4,35,104.9,52.8c-23.4,17-35.8,43.5-35.3,70
		c-26.5,7.1-49.1,27.5-58.4,56c-9,27.7-3.3,56.7,12.9,77.8C8,277.7,2.3,306.6,11.3,334.3c9.3,28.5,31.9,48.9,58.4,56
		c-0.5,26.5,11.9,53,35.3,70c24.5,17.8,55.1,20.9,80.8,10.7c15,22.6,41.1,37.4,70.7,37.4c29.6,0,55.7-14.8,70.7-37.4
		c25.7,10.2,56.4,7.1,80.8-10.7c23.4-17,35.8-43.5,35.3-70c26.5-7.1,49.1-27.5,58.4-56c9-27.7,3.3-56.7-12.9-77.8
		C505,235.3,510.7,206.4,501.7,178.7z M485.5,329.1c-8.2,25.1-29.1,42.2-52.5,46.1l1.4,8.4l-8.5,1c2.6,22.9-7.2,46.9-27.9,62
		c-21.6,15.7-49,17.1-70.3,6l-3.9,7.6l0,0l3.9-7.6c-4.1-2.1-9.2-0.5-11.4,3.6c-11,20.8-33.6,35.3-59.8,35.3
		c-26.2,0-48.8-14.4-59.8-35.3c-2.2-4.1-7.3-5.7-11.4-3.6c-21.4,11-48.7,9.7-70.3-6c-20.7-15-30.5-39.1-27.9-62
		c0.5-4.5-2.6-8.6-7.1-9.4c-23.5-3.9-44.4-21-52.5-46.1c-7.9-24.4-1.6-49.8,14.1-66.8c3-3.3,3-8.3,0-11.6l-6.2,5.8v0l6.2-5.8
		c-15.7-17-22-42.3-14.1-66.8c8.2-25.1,29.1-42.2,52.5-46.1c4.5-0.7,7.6-4.9,7.1-9.4c-2.6-22.9,7.2-46.9,27.9-62
		c21.6-15.7,49-17.1,70.3-6l3.9-7.6l7.5,4c11-20.8,33.6-35.3,59.8-35.3c26.2,0,48.8,14.4,59.8,35.3c2.2,4.1,7.3,5.7,11.4,3.6
		l-3.9-7.6l0,0l3.9,7.6c21.4-11,48.7-9.7,70.3,6c20.7,15,30.5,39.1,27.9,62c-0.5,4.5,2.6,8.6,7.1,9.4l1.4-8.4l0,0l-1.4,8.4
		c23.5,3.9,44.4,21,52.5,46.1c7.9,24.4,1.6,49.8-14.1,66.8l6.2,5.8l-6.2,5.8C487.2,279.3,493.5,304.6,485.5,329.1z"/>
	<path fill="#F66290" d="M425.9,384.5l8.5-1l-1.4-8.4C428.5,375.9,425.4,380,425.9,384.5z"/>
	<path fill="#F66290" d="M471.4,262.3l6.2-5.8l-6.2-5.8C468.4,254,468.4,259,471.4,262.3z"/>
	<path fill="#F66290" d="M261.4,116.6c-80,0-144.8,64.8-144.8,144.8s64.8,144.8,144.8,144.8s144.8-64.8,144.8-144.8
		S341.3,116.6,261.4,116.6z M261.4,389.1c-70.5,0-127.7-57.2-127.7-127.7c0-70.5,57.2-127.7,127.7-127.7
		c70.5,0,127.7,57.2,127.7,127.7C389.1,331.9,331.9,389.1,261.4,389.1z"/>
	<path fill="#F66290" d="M334.4,277.2c-4.7,0-8.5,3.8-8.5,8.5c0,16.7-8.6,28.9-21.2,37.2c-13.1,8.9-29,12.7-43.3,12.7
		c-14.3,0.1-30.1-3.8-43.3-12.7c-12.6-8.4-21.2-20.5-21.2-37.2c0-4.7-3.8-8.5-8.5-8.5s-8.5,3.8-8.5,8.5c0,23.6,12.6,40.7,28.8,51.4
		c15.7,10.3,36.3,15.4,52.7,15.5c16.3-0.1,37-5.2,52.7-15.5c16.2-10.8,28.8-27.8,28.8-51.4C342.9,281,339.1,277.2,334.4,277.2z"/>
	<path fill="#F66290" d="M188.4,235.8c4.7,0,8.5-3.8,8.5-8.5c0-8.7,7.1-15.8,15.8-15.8c8.7,0,15.8,7.1,15.8,15.8
		c0,4.7,3.8,8.5,8.5,8.5c4.7,0,8.5-3.8,8.5-8.5c0-18.1-14.7-32.8-32.8-32.8c-18.1,0-32.8,14.7-32.8,32.8
		C179.9,232,183.7,235.8,188.4,235.8z"/>
	<path fill="#F66290" d="M285.7,235.8c4.7,0,8.5-3.8,8.5-8.5c0-8.7,7.1-15.8,15.8-15.8s15.8,7.1,15.8,15.8c0,4.7,3.8,8.5,8.5,8.5
		s8.5-3.8,8.5-8.5c0-18.1-14.7-32.8-32.8-32.8c-18.1,0-32.8,14.7-32.8,32.8C277.2,232,281,235.8,285.7,235.8z"/>
</g>
</svg>
