<svg width="44" height="44" viewBox="0 0 44 44" version="1.1" xmlns="http://www.w3.org/2000/svg" xmlns:xlink="http://www.w3.org/1999/xlink" xmlns:figma="http://www.figma.com/figma/ns">
<title>8-web-seo-internet-smile</title>
<desc>Created using Figma</desc>
<g id="Canvas" transform="translate(-8283 -6160)" figma:type="canvas">
<g id="8-web-seo-internet-smile" figma:type="frame">
<g id="Layer 1" figma:type="vector">
<use xlink:href="#path0_fill" transform="translate(8284 6161)" fill="#FEEEF3"/>
<use xlink:href="#path1_stroke" transform="translate(8284 6161)" fill="#F66290"/>
</g>
<g id="Layer 2" figma:type="vector">
<use xlink:href="#path2_fill" transform="translate(8293.24 6166.04)" fill="#FFFFFF"/>
<use xlink:href="#path3_stroke" transform="translate(8293.24 6166.04)" fill="#F66290"/>
</g>
<g id="Layer 3" figma:type="vector">
<use xlink:href="#path4_stroke" transform="translate(8298.7 6179.9)" fill="#F66290"/>
</g>
<g id="Layer 4" figma:type="vector">
<use xlink:href="#path5_stroke" transform="translate(8298.7 6172.76)" fill="#F66290"/>
</g>
<g id="Layer 5" figma:type="vector">
<use xlink:href="#path5_stroke" transform="translate(8307.1 6172.76)" fill="#F66290"/>
</g>
</g>
</g>
<defs>
<path id="path0_fill" fill-rule="evenodd" d="M 5.46592 34.3674L 2.51709 34.3674C 1.12883 34.3674 0 33.239 0 31.8472L 0 2.52015C 0 1.12879 1.12694 0 2.51709 0L 39.4829 0C 40.8712 0 42 1.12875 42 2.52114L 42 8.73665L 42 31.8514C 42 33.2413 40.8731 34.3674 39.4829 34.3674L 12.4885 34.3674C 11.0631 42 4.57617 42 4.57617 42C 4.57617 42 6.0495 38.6321 5.46592 34.3674Z"/>
<path id="path1_stroke" d="M 12.4885 34.3674L 12.4885 33.6324C 12.1346 33.6324 11.831 33.8845 11.766 34.2324L 12.4885 34.3674ZM 4.57617 42L 3.84136 42.0168L 4.57617 42ZM 5.46592 33.6324L 2.51709 33.6324L 2.51709 35.1024L 5.46592 35.1024L 5.46592 33.6324ZM 2.51709 33.6324C 1.53524 33.6324 0.735 32.8336 0.735 31.8472L -0.735 31.8472C -0.735 33.6445 0.722413 35.1024 2.51709 35.1024L 2.51709 33.6324ZM 0.735 31.8472L 0.735 2.52015L -0.735 2.52015L -0.735 31.8472L 0.735 31.8472ZM 0.735 2.52015C 0.735 1.53379 1.5338 0.735 2.51709 0.735L 2.51709 -0.735C 0.720075 -0.735 -0.735 0.7238 -0.735 2.52015L 0.735 2.52015ZM 2.51709 0.735L 39.4829 0.735L 39.4829 -0.735L 2.51709 -0.735L 2.51709 0.735ZM 39.4829 0.735C 40.4645 0.735 41.265 1.53393 41.265 2.52114L 42.735 2.52114C 42.735 0.723579 41.2779 -0.735 39.4829 -0.735L 39.4829 0.735ZM 41.265 2.52114L 41.265 8.73665L 42.735 8.73665L 42.735 2.52114L 41.265 2.52114ZM 41.265 8.73665L 41.265 31.8514L 42.735 31.8514L 42.735 8.73665L 41.265 8.73665ZM 41.265 31.8514C 41.265 32.835 40.4675 33.6324 39.4829 33.6324L 39.4829 35.1024C 41.2786 35.1024 42.735 33.6476 42.735 31.8514L 41.265 31.8514ZM 39.4829 33.6324L 12.4885 33.6324L 12.4885 35.1024L 39.4829 35.1024L 39.4829 33.6324ZM 11.766 34.2324C 11.0967 37.8163 9.26689 39.5413 7.65356 40.3965C 6.82544 40.8403 6.07527 41.0457 5.4754 41.1586C 5.18639 41.2137 4.9655 41.2388 4.79708 41.2526C 4.71786 41.2592 4.6635 41.262 4.62077 41.2637C 4.60179 41.2645 4.59084 41.2647 4.58093 41.2649C 4.57713 41.265 4.57599 41.265 4.57403 41.265C 4.57362 41.265 4.57374 41.265 4.57395 41.265C 4.57378 41.265 4.57486 41.265 4.57478 41.265C 4.57496 41.265 4.57531 41.265 4.57541 41.265C 4.57578 41.265 5.08993 41.4744 5.31098 41.9832L 3.84136 42.0168C 4.06241 42.5256 4.57661 42.735 4.57709 42.735C 4.57728 42.735 4.57778 42.735 4.57816 42.735C 4.57864 42.735 4.57979 42.735 4.58075 42.735C 4.58211 42.735 4.58502 42.735 4.58773 42.7349C 4.59202 42.7349 4.6002 42.7348 4.60872 42.7346C 4.62344 42.7344 4.64909 42.7337 4.67797 42.7326C 4.73096 42.7305 4.81735 42.7259 4.9183 42.7176C 5.1102 42.7016 5.40723 42.667 5.74864 42.6029C 6.40961 42.4772 7.37025 42.2056 8.34203 41.6953C 10.3285 40.6423 12.4549 38.5511 13.211 34.5023L 11.766 34.2324ZM 5.31098 41.9832C 5.29728 42.1422 5.24965 42.2944 5.24975 42.2941C 5.24979 42.294 5.2499 42.2938 5.24998 42.2936C 5.25008 42.2934 5.25032 42.2928 5.25053 42.2924C 5.25082 42.2917 5.25144 42.2902 5.25203 42.2889C 5.25297 42.2867 5.25473 42.2826 5.25659 42.2783C 5.25983 42.2706 5.26536 42.2575 5.27163 42.2424C 5.28324 42.2144 5.30167 42.169 5.32314 42.1139C 5.36424 42.0084 5.4254 41.8442 5.49369 41.6421C 5.62665 41.2477 5.80412 40.6532 5.95849 39.9373C 6.26043 38.5278 6.49267 36.4924 6.19413 34.2677L 4.7377 34.467C 5.02274 36.5071 4.81011 38.288 4.52128 39.6286C 4.38027 40.2878 4.22588 40.8018 4.10083 41.1722C 4.04012 41.3524 3.99073 41.4846 3.95353 41.58C 3.93586 41.6254 3.92321 41.6565 3.91352 41.6799C 3.90914 41.6904 3.90647 41.6968 3.90417 41.7022C 3.90326 41.7043 3.90292 41.7051 3.90245 41.7062C 3.90233 41.7065 3.90229 41.7066 3.90235 41.7064C 3.90232 41.7065 3.90252 41.706 3.9025 41.7061C 3.90254 41.706 3.90261 41.7058 3.90263 41.7058C 3.9027 41.7056 3.85507 41.8578 3.84136 42.0168L 5.31098 41.9832Z"/>
<path id="path2_fill" fill-rule="evenodd" d="M 11.76 23.52C 18.2549 23.52 23.52 18.2549 23.52 11.76C 23.52 5.26513 18.2549 0 11.76 0C 5.26513 0 0 5.26513 0 11.76C 0 18.2549 5.26513 23.52 11.76 23.52Z"/>
<path id="path3_stroke" d="M 11.76 24.255C 18.6608 24.255 24.255 18.6608 24.255 11.76L 22.785 11.76C 22.785 17.8489 17.8489 22.785 11.76 22.785L 11.76 24.255ZM 24.255 11.76C 24.255 4.8592 18.6608 -0.735 11.76 -0.735L 11.76 0.735C 17.8489 0.735 22.785 5.67106 22.785 11.76L 24.255 11.76ZM 11.76 -0.735C 4.8592 -0.735 -0.735 4.8592 -0.735 11.76L 0.735 11.76C 0.735 5.67106 5.67106 0.735 11.76 0.735L 11.76 -0.735ZM -0.735 11.76C -0.735 18.6608 4.8592 24.255 11.76 24.255L 11.76 22.785C 5.67106 22.785 0.735 17.8489 0.735 11.76L -0.735 11.76Z"/>
<path id="path4_stroke" d="M 13.335 0C 13.335 -0.405929 13.0059 -0.735 12.6 -0.735C 12.1941 -0.735 11.865 -0.405929 11.865 0L 13.335 0ZM 0.735 0C 0.735 -0.405929 0.405929 -0.735 0 -0.735C -0.405929 -0.735 -0.735 -0.405929 -0.735 0L 0.735 0ZM 11.865 0C 11.865 1.43904 11.1231 2.49023 10.0338 3.21209C 8.89901 3.97695 7.53068 4.31041 6.3 4.305L 6.3 5.775C 7.70872 5.76959 9.49039 5.32275 10.8458 4.43746C 12.2466 3.50916 13.335 2.04036 13.335 0L 11.865 0ZM 6.3 4.305C 5.06932 4.31041 3.70099 3.97695 2.56624 3.21209C 1.47692 2.49023 0.735 1.43904 0.735 0L -0.735 0C -0.735 2.04036 0.353379 3.50916 1.75422 4.43746C 3.10961 5.32275 4.89128 5.76959 6.3 5.775L 6.3 4.305Z"/>
<path id="path5_stroke" d="M 3.465 2.1C 3.465 2.50593 3.79407 2.835 4.2 2.835C 4.60593 2.835 4.935 2.50593 4.935 2.1L 3.465 2.1ZM -0.735 2.1C -0.735 2.50593 -0.405929 2.835 0 2.835C 0.405929 2.835 0.735 2.50593 0.735 2.1L -0.735 2.1ZM 4.935 2.1C 4.935 0.534273 3.66573 -0.735 2.1 -0.735L 2.1 0.735C 2.85387 0.735 3.465 1.34613 3.465 2.1L 4.935 2.1ZM 2.1 -0.735C 0.534273 -0.735 -0.735 0.534273 -0.735 2.1L 0.735 2.1C 0.735 1.34613 1.34613 0.735 2.1 0.735L 2.1 -0.735Z"/>
</defs>
</svg>
