<svg width="44" height="44" viewBox="0 0 44 44" version="1.1" xmlns="http://www.w3.org/2000/svg" xmlns:xlink="http://www.w3.org/1999/xlink" xmlns:figma="http://www.figma.com/figma/ns">
<title>18-communications-speech-bubble-smile</title>
<desc>Created using Figma</desc>
<g id="Canvas" transform="translate(-2941 -7250)" figma:type="canvas">
<g id="18-communications-speech-bubble-smile" figma:type="frame">
<g id="Layer 1" figma:type="vector-operation">
<use xlink:href="#path0_fill" transform="matrix(-1 0 0 1 2984 7251)" fill="#FEEEF3"/>
<use xlink:href="#path1_stroke" transform="matrix(-1 0 0 1 2984 7251)" fill="#F66290"/>
</g>
<g id="Layer 2" figma:type="vector">
<use xlink:href="#path2_stroke" transform="translate(2952.08 7261.08)" fill="#F66290"/>
</g>
<g id="Layer 3" figma:type="vector">
<use xlink:href="#path2_stroke" transform="translate(2968.88 7261.08)" fill="#F66290"/>
</g>
<g id="Layer 4" figma:type="vector">
<use xlink:href="#path3_stroke" transform="translate(2957.79 7272.01)" fill="#F66290"/>
</g>
</g>
</g>
<defs>
<path id="path0_fill" fill-rule="evenodd" d="M 2.52002 0C 1.12817 0 0 1.12842 0 2.52002L 0 31.8472C 0 33.2393 1.12817 34.3672 2.52002 34.3672L 29.5115 34.3672C 30.937 42 37.4238 42 37.4238 42C 37.4238 42 35.9507 38.6318 36.5342 34.3672L 39.48 34.3672C 40.8718 34.3672 42 33.2393 42 31.8472L 42 2.52002C 42 1.12842 40.8718 0 39.48 0L 2.52002 0Z"/>
<path id="path1_stroke" d="M 29.5115 34.3672L 30.234 34.2323C 30.169 33.8844 29.8654 33.6322 29.5115 33.6322L 29.5115 34.3672ZM 37.4238 42L 37.4238 42.735C 37.6719 42.735 37.9032 42.6099 38.0389 42.4023C 38.1747 42.1948 38.1966 41.9327 38.0972 41.7055L 37.4238 42ZM 36.5342 34.3672L 36.5342 33.6322C 36.1668 33.6322 35.8558 33.9035 35.806 34.2676L 36.5342 34.3672ZM 0.735 2.52002C 0.735 1.5343 1.53415 0.735 2.52002 0.735L 2.52002 -0.735C 0.722198 -0.735 -0.735 0.722535 -0.735 2.52002L 0.735 2.52002ZM 0.735 31.8472L 0.735 2.52002L -0.735 2.52002L -0.735 31.8472L 0.735 31.8472ZM 2.52002 33.6322C 1.53406 33.6322 0.735 32.8333 0.735 31.8472L -0.735 31.8472C -0.735 33.6452 0.722291 35.1022 2.52002 35.1022L 2.52002 33.6322ZM 29.5115 33.6322L 2.52002 33.6322L 2.52002 35.1022L 29.5115 35.1022L 29.5115 33.6322ZM 37.4238 42C 37.4238 41.265 37.4242 41.265 37.4246 41.265C 37.4247 41.265 37.425 41.265 37.4252 41.265C 37.4251 41.265 37.4262 41.265 37.426 41.265C 37.4263 41.265 37.4264 41.265 37.426 41.265C 37.424 41.265 37.4229 41.265 37.4191 41.2649C 37.4092 41.2647 37.3982 41.2645 37.3792 41.2637C 37.3365 41.262 37.2821 41.2592 37.2029 41.2526C 37.0345 41.2388 36.8136 41.2137 36.5246 41.1585C 35.9248 41.0457 35.1746 40.8403 34.3465 40.3965C 32.7331 39.5413 30.9033 37.8162 30.234 34.2323L 28.789 34.5021C 29.5452 38.551 31.6715 40.6423 33.658 41.6953C 34.6298 42.2056 35.5904 42.4772 36.2514 42.6029C 36.5928 42.667 36.8898 42.7016 37.0817 42.7176C 37.1826 42.7259 37.269 42.7305 37.322 42.7326C 37.3509 42.7337 37.3766 42.7344 37.3913 42.7346C 37.3998 42.7348 37.408 42.7349 37.4123 42.7349C 37.415 42.735 37.4179 42.735 37.4192 42.735C 37.4202 42.735 37.4214 42.735 37.4218 42.735C 37.4222 42.735 37.4227 42.735 37.4229 42.735C 37.4234 42.735 37.4238 42.735 37.4238 42ZM 35.806 34.2676C 35.5075 36.4922 35.7397 38.5276 36.0416 39.9372C 36.1959 40.6531 36.3734 41.2476 36.5063 41.642C 36.5746 41.8442 36.6357 42.0084 36.6768 42.1139C 36.6983 42.1689 36.7167 42.2143 36.7284 42.2424C 36.7346 42.2575 36.7401 42.2706 36.7434 42.2782C 36.7452 42.2826 36.747 42.2867 36.7479 42.2888C 36.7485 42.2902 36.7492 42.2916 36.7495 42.2923C 36.7497 42.2928 36.7499 42.2933 36.75 42.2936C 36.7501 42.2938 36.7502 42.294 36.7502 42.2941C 36.7503 42.2943 36.7504 42.2945 37.4238 42C 38.0972 41.7055 38.0973 41.7057 38.0974 41.7058C 38.0974 41.7059 38.0975 41.706 38.0975 41.7061C 38.0975 41.7061 38.0977 41.7065 38.0977 41.7065C 38.0977 41.7066 38.0977 41.7065 38.0976 41.7063C 38.0971 41.7052 38.0968 41.7044 38.0958 41.7022C 38.0936 41.6968 38.0909 41.6905 38.0865 41.6799C 38.0768 41.6565 38.0642 41.6254 38.0465 41.58C 38.0093 41.4847 37.9599 41.3524 37.8992 41.1722C 37.7742 40.8018 37.6198 40.2877 37.4788 39.6285C 37.19 38.2879 36.9774 36.5068 37.2624 34.4668L 35.806 34.2676ZM 39.48 33.6322L 36.5342 33.6322L 36.5342 35.1022L 39.48 35.1022L 39.48 33.6322ZM 41.265 31.8472C 41.265 32.8333 40.4659 33.6322 39.48 33.6322L 39.48 35.1022C 41.2777 35.1022 42.735 33.6452 42.735 31.8472L 41.265 31.8472ZM 41.265 2.52002L 41.265 31.8472L 42.735 31.8472L 42.735 2.52002L 41.265 2.52002ZM 39.48 0.735C 40.4659 0.735 41.265 1.5343 41.265 2.52002L 42.735 2.52002C 42.735 0.722535 41.2778 -0.735 39.48 -0.735L 39.48 0.735ZM 2.52002 0.735L 39.48 0.735L 39.48 -0.735L 2.52002 -0.735L 2.52002 0.735Z"/>
<path id="path2_stroke" d="M 5.145 2.94C 5.145 3.34593 5.47407 3.675 5.88 3.675C 6.28593 3.675 6.615 3.34593 6.615 2.94L 5.145 2.94ZM -0.735 2.94C -0.735 3.34593 -0.405929 3.675 0 3.675C 0.405929 3.675 0.735 3.34593 0.735 2.94L -0.735 2.94ZM 6.615 2.94C 6.615 0.910354 4.96965 -0.735 2.94 -0.735L 2.94 0.735C 4.15779 0.735 5.145 1.72221 5.145 2.94L 6.615 2.94ZM 2.94 -0.735C 0.910354 -0.735 -0.735 0.910354 -0.735 2.94L 0.735 2.94C 0.735 1.72221 1.72221 0.735 2.94 0.735L 2.94 -0.735Z"/>
<path id="path3_stroke" d="M 11.9606 0.237633C 12.079 -0.150648 11.8602 -0.561387 11.4719 -0.679779C 11.0836 -0.798171 10.6729 -0.579383 10.5545 -0.191102L 11.9606 0.237633ZM 0.703932 -0.211436C 0.587159 -0.600207 0.177335 -0.820705 -0.211436 -0.703932C -0.600207 -0.587159 -0.820705 -0.177335 -0.703932 0.211436L 0.703932 -0.211436ZM 10.5545 -0.191102C 9.91142 1.9179 7.94991 3.45089 5.63228 3.45089L 5.63228 4.92089C 8.6146 4.92089 11.1342 2.94788 11.9606 0.237633L 10.5545 -0.191102ZM 5.63228 3.45089C 3.30719 3.45089 1.34054 1.90801 0.703932 -0.211436L -0.703932 0.211436C 0.114187 2.93519 2.64038 4.92089 5.63228 4.92089L 5.63228 3.45089Z"/>
</defs>
</svg>
