<svg width="44" height="44" viewBox="0 0 44 44" version="1.1" xmlns="http://www.w3.org/2000/svg" xmlns:xlink="http://www.w3.org/1999/xlink" xmlns:figma="http://www.figma.com/figma/ns">
<title>48-holidays-flower</title>
<desc>Created using Figma</desc>
<g id="Canvas" transform="translate(-8283 -5974)" figma:type="canvas">
<g id="48-holidays-flower" figma:type="frame">
<g id="Layer 1" figma:type="vector">
<use xlink:href="#path0_fill" transform="translate(8284.2 5975)" fill="#FEEEF3"/>
<use xlink:href="#path1_stroke" transform="translate(8284.2 5975)" fill="#F66290"/>
</g>
<g id="Layer 2" figma:type="vector">
<use xlink:href="#path2_fill" transform="translate(8293.66 5984.66)" fill="#FFFFFF"/>
<use xlink:href="#path3_stroke" transform="translate(8293.66 5984.66)" fill="#F66290"/>
</g>
<g id="Layer 3" figma:type="vector">
<use xlink:href="#path4_stroke" transform="translate(8299.12 5998.52)" fill="#F66290"/>
</g>
<g id="Layer 4" figma:type="vector">
<use xlink:href="#path5_stroke" transform="translate(8299.12 5991.38)" fill="#F66290"/>
</g>
<g id="Layer 5" figma:type="vector">
<use xlink:href="#path6_fill" transform="translate(8307.52 5991.38)" fill="#E1F2FA"/>
<use xlink:href="#path5_stroke" transform="translate(8307.52 5991.38)" fill="#F66290"/>
</g>
</g>
</g>
<defs>
<path id="path0_fill" fill-rule="evenodd" d="M 14.9883 3.43375C 16.0685 1.3953 18.2649 0 20.7986 0C 23.3324 0 25.5288 1.3953 26.6089 3.43375C 28.7 2.35336 31.3583 2.49243 33.4479 4.01064C 35.4479 5.46371 36.4073 7.80252 36.1516 10.0368C 38.4458 10.4176 40.4765 12.0822 41.2656 14.5106C 42.0333 16.8735 41.4249 19.3425 39.8879 21C 41.4249 22.6575 42.0333 25.1265 41.2656 27.4894C 40.4765 29.9178 38.4458 31.5824 36.1516 31.9632C 36.4073 34.1975 35.4479 36.5363 33.4479 37.9894C 31.3583 39.5076 28.7 39.6466 26.6089 38.5663C 25.5288 40.6047 23.3324 42 20.7986 42C 18.2649 42 16.0685 40.6047 14.9883 38.5663C 12.8973 39.6466 10.239 39.5076 8.14937 37.9894C 6.14939 36.5363 5.18996 34.1975 5.44562 31.9632C 3.15149 31.5824 1.12073 29.9178 0.331691 27.4894C -0.436063 25.1265 0.172328 22.6575 1.70934 21C 0.172328 19.3425 -0.436063 16.8735 0.331691 14.5106C 1.12073 12.0822 3.15149 10.4176 5.44562 10.0368C 5.18996 7.80252 6.14939 5.46371 8.14937 4.01064C 10.239 2.49243 12.8973 2.35336 14.9883 3.43375Z"/>
<path id="path1_stroke" d="M 26.6089 3.43375L 25.9595 3.77789C 26.1482 4.13394 26.5883 4.2717 26.9463 4.08674L 26.6089 3.43375ZM 33.4479 4.01064L 33.0159 4.60527L 33.4479 4.01064ZM 36.1516 10.0368L 35.4214 9.95324C 35.3769 10.3422 35.6451 10.6978 36.0313 10.7619L 36.1516 10.0368ZM 41.2656 14.5106L 40.5666 14.7378L 41.2656 14.5106ZM 39.8879 21L 39.349 20.5002C 39.0876 20.7821 39.0876 21.2179 39.349 21.4998L 39.8879 21ZM 41.2656 27.4894L 40.5666 27.2622L 41.2656 27.4894ZM 36.1516 31.9632L 36.0313 31.2381C 35.6451 31.3022 35.3769 31.6578 35.4214 32.0468L 36.1516 31.9632ZM 33.4479 37.9894L 33.0159 37.3947L 33.4479 37.9894ZM 26.6089 38.5663L 26.9463 37.9133C 26.5883 37.7283 26.1482 37.8661 25.9595 38.2221L 26.6089 38.5663ZM 14.9883 38.5663L 15.6378 38.2221C 15.4491 37.8661 15.0089 37.7283 14.6509 37.9133L 14.9883 38.5663ZM 8.14937 37.9894L 8.58139 37.3947L 8.14937 37.9894ZM 5.44562 31.9632L 6.17586 32.0468C 6.22037 31.6578 5.95218 31.3022 5.56597 31.2381L 5.44562 31.9632ZM 0.331691 27.4894L 1.03072 27.2622L 0.331691 27.4894ZM 1.70934 21L 2.24829 21.4998C 2.50969 21.2179 2.50969 20.7821 2.24829 20.5002L 1.70934 21ZM 0.331691 14.5106L 1.03072 14.7378L 0.331691 14.5106ZM 5.44562 10.0368L 5.56597 10.7619C 5.95218 10.6978 6.22037 10.3422 6.17586 9.95324L 5.44562 10.0368ZM 8.14937 4.01064L 8.58139 4.60527L 8.14937 4.01064ZM 15.6378 3.77789C 16.591 1.97895 18.5381 0.735 20.7986 0.735L 20.7986 -0.735C 17.9916 -0.735 15.5459 0.811649 14.3389 3.0896L 15.6378 3.77789ZM 20.7986 0.735C 23.0592 0.735 25.0062 1.97895 25.9595 3.77789L 27.2584 3.0896C 26.0513 0.811649 23.6057 -0.735 20.7986 -0.735L 20.7986 0.735ZM 26.9463 4.08674C 28.791 3.13366 31.1515 3.25071 33.0159 4.60527L 33.8799 3.41602C 31.565 1.73414 28.609 1.57306 26.2716 2.78075L 26.9463 4.08674ZM 33.0159 4.60527C 34.8001 5.90156 35.6471 7.98055 35.4214 9.95324L 36.8819 10.1204C 37.1675 7.62449 36.0957 5.02586 33.8799 3.41602L 33.0159 4.60527ZM 36.0313 10.7619C 38.0556 11.0979 39.8626 12.5712 40.5666 14.7378L 41.9646 14.2835C 41.0905 11.5933 38.836 9.7373 36.272 9.31172L 36.0313 10.7619ZM 40.5666 14.7378C 41.2515 16.8458 40.7059 19.0369 39.349 20.5002L 40.4269 21.4998C 42.144 19.648 42.8152 16.9013 41.9646 14.2835L 40.5666 14.7378ZM 39.349 21.4998C 40.7059 22.9631 41.2515 25.1542 40.5666 27.2622L 41.9646 27.7165C 42.8152 25.0987 42.144 22.352 40.4269 20.5002L 39.349 21.4998ZM 40.5666 27.2622C 39.8626 29.4288 38.0556 30.9021 36.0313 31.2381L 36.272 32.6883C 38.836 32.2627 41.0905 30.4067 41.9646 27.7165L 40.5666 27.2622ZM 35.4214 32.0468C 35.6471 34.0195 34.8001 36.0984 33.0159 37.3947L 33.8799 38.584C 36.0957 36.9741 37.1675 34.3755 36.8819 31.8796L 35.4214 32.0468ZM 33.0159 37.3947C 31.1515 38.7493 28.791 38.8663 26.9463 37.9133L 26.2716 39.2192C 28.609 40.4269 31.565 40.2659 33.8799 38.584L 33.0159 37.3947ZM 25.9595 38.2221C 25.0062 40.021 23.0592 41.265 20.7986 41.265L 20.7986 42.735C 23.6057 42.735 26.0513 41.1884 27.2584 38.9104L 25.9595 38.2221ZM 20.7986 41.265C 18.5381 41.265 16.591 40.021 15.6378 38.2221L 14.3389 38.9104C 15.5459 41.1884 17.9916 42.735 20.7986 42.735L 20.7986 41.265ZM 14.6509 37.9133C 12.8063 38.8663 10.4458 38.7493 8.58139 37.3947L 7.71735 38.584C 10.0322 40.2659 12.9882 40.4269 15.3257 39.2192L 14.6509 37.9133ZM 8.58139 37.3947C 6.7972 36.0984 5.95013 34.0195 6.17586 32.0468L 4.71539 31.8796C 4.42979 34.3755 5.50158 36.9741 7.71735 38.584L 8.58139 37.3947ZM 5.56597 31.2381C 3.5417 30.9021 1.73468 29.4288 1.03072 27.2622L -0.367336 27.7165C 0.506777 30.4067 2.76128 32.2627 5.32527 32.6883L 5.56597 31.2381ZM 1.03072 27.2622C 0.345791 25.1542 0.891354 22.9631 2.24829 21.4998L 1.17039 20.5002C -0.546698 22.352 -1.21792 25.0987 -0.367336 27.7165L 1.03072 27.2622ZM 2.24829 20.5002C 0.891354 19.0369 0.345791 16.8458 1.03072 14.7378L -0.367336 14.2835C -1.21792 16.9013 -0.546698 19.648 1.17039 21.4998L 2.24829 20.5002ZM 1.03072 14.7378C 1.73468 12.5712 3.5417 11.0979 5.56597 10.7619L 5.32527 9.31172C 2.76128 9.7373 0.506777 11.5933 -0.367336 14.2835L 1.03072 14.7378ZM 6.17586 9.95324C 5.95013 7.98055 6.7972 5.90156 8.58139 4.60527L 7.71735 3.41602C 5.50158 5.02586 4.42979 7.62449 4.71539 10.1204L 6.17586 9.95324ZM 8.58139 4.60527C 10.4458 3.25071 12.8063 3.13366 14.6509 4.08674L 15.3257 2.78075C 12.9882 1.57306 10.0322 1.73414 7.71735 3.41602L 8.58139 4.60527Z"/>
<path id="path2_fill" fill-rule="evenodd" d="M 11.76 23.52C 18.2549 23.52 23.52 18.2549 23.52 11.76C 23.52 5.26513 18.2549 0 11.76 0C 5.26513 0 0 5.26513 0 11.76C 0 18.2549 5.26513 23.52 11.76 23.52Z"/>
<path id="path3_stroke" d="M 11.76 24.255C 18.6608 24.255 24.255 18.6608 24.255 11.76L 22.785 11.76C 22.785 17.8489 17.8489 22.785 11.76 22.785L 11.76 24.255ZM 24.255 11.76C 24.255 4.8592 18.6608 -0.735 11.76 -0.735L 11.76 0.735C 17.8489 0.735 22.785 5.67106 22.785 11.76L 24.255 11.76ZM 11.76 -0.735C 4.8592 -0.735 -0.735 4.8592 -0.735 11.76L 0.735 11.76C 0.735 5.67106 5.67106 0.735 11.76 0.735L 11.76 -0.735ZM -0.735 11.76C -0.735 18.6608 4.8592 24.255 11.76 24.255L 11.76 22.785C 5.67106 22.785 0.735 17.8489 0.735 11.76L -0.735 11.76Z"/>
<path id="path4_stroke" d="M 13.335 0C 13.335 -0.405929 13.0059 -0.735 12.6 -0.735C 12.1941 -0.735 11.865 -0.405929 11.865 0L 13.335 0ZM 0.735 0C 0.735 -0.405929 0.405929 -0.735 0 -0.735C -0.405929 -0.735 -0.735 -0.405929 -0.735 0L 0.735 0ZM 11.865 0C 11.865 1.43904 11.1231 2.49023 10.0338 3.21209C 8.89901 3.97695 7.53068 4.31041 6.3 4.305L 6.3 5.775C 7.70872 5.76959 9.49039 5.32275 10.8458 4.43746C 12.2466 3.50916 13.335 2.04036 13.335 0L 11.865 0ZM 6.3 4.305C 5.06932 4.31041 3.70099 3.97695 2.56624 3.21209C 1.47692 2.49023 0.735 1.43904 0.735 0L -0.735 0C -0.735 2.04036 0.353379 3.50916 1.75422 4.43746C 3.10961 5.32275 4.89128 5.76959 6.3 5.775L 6.3 4.305Z"/>
<path id="path5_stroke" d="M 3.465 2.1C 3.465 2.50593 3.79407 2.835 4.2 2.835C 4.60593 2.835 4.935 2.50593 4.935 2.1L 3.465 2.1ZM -0.735 2.1C -0.735 2.50593 -0.405929 2.835 0 2.835C 0.405929 2.835 0.735 2.50593 0.735 2.1L -0.735 2.1ZM 4.935 2.1C 4.935 0.534273 3.66573 -0.735 2.1 -0.735L 2.1 0.735C 2.85387 0.735 3.465 1.34613 3.465 2.1L 4.935 2.1ZM 2.1 -0.735C 0.534273 -0.735 -0.735 0.534273 -0.735 2.1L 0.735 2.1C 0.735 1.34613 1.34613 0.735 2.1 0.735L 2.1 -0.735Z"/>
<path id="path6_fill" fill-rule="evenodd" d="M 4.2 2.1C 4.2 0.940202 3.2598 0 2.1 0C 0.940202 0 0 0.940202 0 2.1"/>
</defs>
</svg>
