<?xml version="1.0" encoding="utf-8"?>
<!-- Generator: Adobe Illustrator 21.0.0, SVG Export Plug-In . SVG Version: 6.00 Build 0)  -->
<svg version="1.1" id="Layer_1" xmlns:figma="http://www.figma.com/figma/ns"
	 xmlns="http://www.w3.org/2000/svg" xmlns:xlink="http://www.w3.org/1999/xlink" x="0px" y="0px" width="512px" height="512px"
	 viewBox="0 0 512 512" enable-background="new 0 0 512 512" xml:space="preserve">
<title>8-web-seo-internet-smile</title>
<desc>Created using Figma</desc>
<g>
	<path fill="#F66290" d="M466.9,8H45.1C24.6,8,8,24.6,8,45.1v334.6c0,20.5,16.6,37.1,37.1,37.1h26.2c1.9,20.2-0.4,38-3.3,51.6
		c-1.6,7.5-3.4,13.4-4.8,17.6c-0.7,2.1-1.3,3.6-1.7,4.7c-0.2,0.5-0.3,0.9-0.5,1.1c0,0.1-0.1,0.2-0.1,0.3c0,0,0,0,0,0c0,0,0,0,0,0
		c0,0,0,0,0,0c0,0-0.5,1.7-0.7,3.5c2.5,5.8,8.4,8.2,8.4,8.2c0,0,0,0,0,0c0,0,0,0,0,0c0,0,0,0,0.1,0c0,0,0.1,0,0.2,0
		c0.2,0,0.5,0,0.8,0c0.6,0,1.6-0.1,2.7-0.2c2.2-0.2,5.6-0.6,9.5-1.3c7.5-1.4,18.5-4.5,29.6-10.4c21.5-11.4,44.5-33.5,54.1-75.2
		h301.2c20.5,0,37.1-16.6,37.1-37.1V116.1V45.2C504,24.6,487.4,8,466.9,8z M487.2,379.8c0,11.2-9.1,20.3-20.3,20.3h-308
		c-4,0-7.5,2.9-8.2,6.8c-7.6,40.9-28.5,60.6-46.9,70.3c-8.5,4.6-16.3,6.9-22.8,8.3c1.1-3.8,2.3-8.4,3.4-13.5
		c3.4-16.1,6.1-39.3,2.7-64.7l-8.3,1.1v-8.4H45.1c-11.2,0-20.3-9.1-20.3-20.4V45.1c0-11.3,9.1-20.4,20.3-20.4h421.8
		c11.2,0,20.3,9.1,20.3,20.4v70.9V379.8z"/>
	<path fill="#F66290" d="M256,65.5c-78.7,0-142.6,63.8-142.6,142.6S177.3,350.6,256,350.6s142.6-63.8,142.6-142.6
		S334.7,65.5,256,65.5z M256,333.9c-69.5,0-125.8-56.3-125.8-125.8c0-69.5,56.3-125.8,125.8-125.8c69.5,0,125.8,56.3,125.8,125.8
		C381.8,277.6,325.5,333.9,256,333.9z"/>
	<path fill="#F66290" d="M327.9,223.7c-4.6,0-8.4,3.8-8.4,8.4c0,16.4-8.5,28.4-20.9,36.7c-12.9,8.7-28.6,12.5-42.6,12.5
		c-14,0.1-29.7-3.7-42.6-12.5c-12.4-8.2-20.9-20.2-20.9-36.7c0-4.6-3.8-8.4-8.4-8.4s-8.4,3.8-8.4,8.4c0,23.3,12.4,40,28.4,50.6
		c15.5,10.1,35.8,15.2,51.9,15.3c16.1-0.1,36.4-5.2,51.9-15.3c16-10.6,28.4-27.4,28.4-50.6C336.3,227.4,332.5,223.7,327.9,223.7z"/>
	<path fill="#F66290" d="M184.1,182.9c4.6,0,8.4-3.8,8.4-8.4c0-8.6,7-15.6,15.6-15.6c8.6,0,15.6,7,15.6,15.6c0,4.6,3.8,8.4,8.4,8.4
		s8.4-3.8,8.4-8.4c0-17.9-14.5-32.3-32.3-32.3c-17.9,0-32.3,14.5-32.3,32.3C175.7,179.2,179.5,182.9,184.1,182.9z"/>
	<path fill="#F66290" d="M280,182.9c4.6,0,8.4-3.8,8.4-8.4c0-8.6,7-15.6,15.6-15.6c8.6,0,15.6,7,15.6,15.6c0,4.6,3.8,8.4,8.4,8.4
		c4.6,0,8.4-3.8,8.4-8.4c0-17.9-14.5-32.3-32.3-32.3c-17.9,0-32.3,14.5-32.3,32.3C271.6,179.2,275.3,182.9,280,182.9z"/>
</g>
</svg>
