<?xml version="1.0" encoding="utf-8"?>
<!-- Generator: Adobe Illustrator 21.0.0, SVG Export Plug-In . SVG Version: 6.00 Build 0)  -->
<svg version="1.1" id="Layer_1" xmlns:figma="http://www.figma.com/figma/ns"
	 xmlns="http://www.w3.org/2000/svg" xmlns:xlink="http://www.w3.org/1999/xlink" x="0px" y="0px" width="512px" height="512px"
	 viewBox="0 0 512 512" enable-background="new 0 0 512 512" xml:space="preserve">
<title>18-communications-speech-bubble-smile</title>
<desc>Created using Figma</desc>
<g>
	<polygon fill="#F66290" points="61.9,493.3 61.9,493.3 61.9,493.3 	"/>
	<polygon fill="#F66290" points="61.9,493.3 61.9,493.3 61.9,493.3 	"/>
	<polygon fill="#F66290" points="61.9,493.3 61.9,493.3 61.9,493.3 	"/>
	<path fill="#F66290" d="M467.9,9H46.1C25.6,9,9,25.6,9,46.1v334.6c0,20.5,16.6,37.1,37.1,37.1h26.1c1.9,20.2-0.4,38-3.3,51.6
		c-1.6,7.5-3.4,13.4-4.8,17.6c-0.7,2.1-1.3,3.6-1.7,4.7c-0.2,0.5-0.3,0.9-0.5,1.1c-0.1,0.1-0.1,0.2-0.1,0.3c0,0,0,0,0,0c0,0,0,0,0,0
		c-1.1,2.6-0.9,5.6,0.7,7.9c1.5,2.4,4.2,3.8,7,3.8v-8.4c0,8.4,0,8.4,0,8.4c0,0,0,0,0,0c0,0,0,0,0,0c0,0,0,0,0.1,0c0,0,0.1,0,0.2,0
		c0.2,0,0.5,0,0.8,0c0.6,0,1.6-0.1,2.7-0.2c2.2-0.2,5.6-0.6,9.5-1.3c7.5-1.4,18.5-4.5,29.6-10.4c21.5-11.4,44.5-33.5,54.1-75.2
		h301.2c20.5,0,37.1-16.6,37.1-37.1V46.1C505,25.6,488.4,9,467.9,9z M467.9,401.1h-308c-4,0-7.5,2.9-8.2,6.8
		c-7.6,40.9-28.5,60.6-46.9,70.3c-8.5,4.6-16.3,6.9-22.8,8.3c1.1-3.8,2.3-8.4,3.4-13.5c3.4-16.1,6.1-39.3,2.7-64.7l-8.3,1.1l0,0
		l8.3-1.1c-0.6-4.2-4.1-7.3-8.3-7.3H46.1c-11.2,0-20.4-9.1-20.4-20.4V46.1c0-11.2,9.1-20.4,20.4-20.4h421.7
		c11.2,0,20.4,9.1,20.4,20.4v334.6C488.2,392,479.1,401.1,467.9,401.1z"/>
	<path fill="#F66290" d="M199.5,174.3c4.6,0,8.4-3.8,8.4-8.4c0-23.2-18.8-41.9-41.9-41.9c-23.2,0-41.9,18.8-41.9,41.9
		c0,4.6,3.8,8.4,8.4,8.4s8.4-3.8,8.4-8.4c0-13.9,11.3-25.2,25.2-25.2c13.9,0,25.2,11.3,25.2,25.2
		C191.1,170.6,194.9,174.3,199.5,174.3z"/>
	<path fill="#F66290" d="M357.6,124c-23.2,0-41.9,18.8-41.9,41.9c0,4.6,3.8,8.4,8.4,8.4s8.4-3.8,8.4-8.4c0-13.9,11.3-25.2,25.2-25.2
		s25.2,11.3,25.2,25.2c0,4.6,3.8,8.4,8.4,8.4s8.4-3.8,8.4-8.4C399.6,142.8,380.8,124,357.6,124z"/>
	<path fill="#F66290" d="M328.4,249.4c-4.4-1.4-9.1,1.1-10.5,5.6c-7.3,24.1-29.7,41.6-56.2,41.6c-26.5,0-49-17.6-56.2-41.8
		c-1.3-4.4-6-7-10.4-5.6c-4.4,1.3-7,6-5.6,10.4c9.3,31.1,38.2,53.7,72.3,53.7c34,0,62.8-22.5,72.2-53.4
		C335.4,255.4,332.9,250.7,328.4,249.4z"/>
</g>
</svg>
