<svg width="44" height="44" viewBox="0 0 44 44" version="1.1" xmlns="http://www.w3.org/2000/svg" xmlns:xlink="http://www.w3.org/1999/xlink" xmlns:figma="http://www.figma.com/figma/ns">
<title>26-sports-targer-aim</title>
<desc>Created using Figma</desc>
<g id="Canvas" transform="translate(-2534 -6784)" figma:type="canvas">
<g id="26-sports-targer-aim" figma:type="frame">
<g id="Layer 1" figma:type="vector">
<use xlink:href="#path0_fill" transform="translate(2535 6785)" fill="#FEEEF3"/>
<use xlink:href="#path1_stroke" transform="translate(2535 6785)" fill="#F66290"/>
</g>
<g id="Layer 2" figma:type="vector">
<use xlink:href="#path2_fill" transform="translate(2542.62 6792.62)" fill="#FEEEF3"/>
<use xlink:href="#path3_stroke" transform="translate(2542.62 6792.62)" fill="#F66290"/>
</g>
<g id="Layer 3" figma:type="vector">
<use xlink:href="#path4_fill" transform="translate(2550.25 6800.25)" fill="#FEEEF3"/>
<use xlink:href="#path5_stroke" transform="translate(2550.25 6800.25)" fill="#F66290"/>
</g>
</g>
</g>
<defs>
<path id="path0_fill" fill-rule="evenodd" d="M 20.9687 41.9374C 32.5494 41.9374 41.9374 32.5494 41.9374 20.9687C 41.9374 9.388 32.5494 0 20.9687 0C 9.388 0 0 9.388 0 20.9687C 0 32.5494 9.388 41.9374 20.9687 41.9374Z"/>
<path id="path1_stroke" d="M 20.9687 41.2097C 20.5668 41.2097 20.241 41.5355 20.241 41.9374C 20.241 42.3393 20.5668 42.6651 20.9687 42.6651L 20.9687 41.2097ZM 20.9687 42.6651C 32.9513 42.6651 42.6651 32.9513 42.6651 20.9687L 41.2097 20.9687C 41.2097 32.1475 32.1475 41.2097 20.9687 41.2097L 20.9687 42.6651ZM 42.6651 20.9687C 42.6651 8.98609 32.9513 -0.727723 20.9687 -0.727723L 20.9687 0.727723C 32.1475 0.727723 41.2097 9.78991 41.2097 20.9687L 42.6651 20.9687ZM 20.9687 -0.727723C 8.98609 -0.727723 -0.727723 8.98609 -0.727723 20.9687L 0.727723 20.9687C 0.727723 9.78991 9.78991 0.727723 20.9687 0.727723L 20.9687 -0.727723ZM -0.727723 20.9687C -0.727723 32.9513 8.98609 42.6651 20.9687 42.6651L 20.9687 41.2097C 9.78991 41.2097 0.727723 32.1475 0.727723 20.9687L -0.727723 20.9687Z"/>
<path id="path2_fill" fill-rule="evenodd" d="M 13.3437 26.6874C 20.7132 26.6874 26.6874 20.7132 26.6874 13.3437C 26.6874 5.97418 20.7132 0 13.3437 0C 5.97418 0 0 5.97418 0 13.3437C 0 20.7132 5.97418 26.6874 13.3437 26.6874Z"/>
<path id="path3_stroke" d="M 13.3437 25.9597C 12.9418 25.9597 12.616 26.2855 12.616 26.6874C 12.616 27.0893 12.9418 27.4151 13.3437 27.4151L 13.3437 25.9597ZM 13.3437 27.4151C 21.1152 27.4151 27.4151 21.1152 27.4151 13.3437L 25.9597 13.3437C 25.9597 20.3113 20.3113 25.9597 13.3437 25.9597L 13.3437 27.4151ZM 27.4151 13.3437C 27.4151 5.57227 21.1152 -0.727723 13.3437 -0.727723L 13.3437 0.727723C 20.3113 0.727723 25.9597 6.37609 25.9597 13.3437L 27.4151 13.3437ZM 13.3437 -0.727723C 5.57227 -0.727723 -0.727723 5.57227 -0.727723 13.3437L 0.727723 13.3437C 0.727723 6.37609 6.37609 0.727723 13.3437 0.727723L 13.3437 -0.727723ZM -0.727723 13.3437C -0.727723 21.1152 5.57227 27.4151 13.3437 27.4151L 13.3437 25.9597C 6.37609 25.9597 0.727723 20.3113 0.727723 13.3437L -0.727723 13.3437Z"/>
<path id="path4_fill" fill-rule="evenodd" d="M 5.71873 11.4375C 8.8771 11.4375 11.4375 8.8771 11.4375 5.71873C 11.4375 2.56036 8.8771 0 5.71873 0C 2.56036 0 0 2.56036 0 5.71873C 0 8.8771 2.56036 11.4375 5.71873 11.4375Z"/>
<path id="path5_stroke" d="M 5.71873 10.7097C 5.31682 10.7097 4.99101 11.0356 4.99101 11.4375C 4.99101 11.8394 5.31682 12.1652 5.71873 12.1652L 5.71873 10.7097ZM 5.71873 12.1652C 9.27901 12.1652 12.1652 9.27901 12.1652 5.71873L 10.7097 5.71873C 10.7097 8.47519 8.47519 10.7097 5.71873 10.7097L 5.71873 12.1652ZM 12.1652 5.71873C 12.1652 2.15845 9.27901 -0.727723 5.71873 -0.727723L 5.71873 0.727723C 8.47519 0.727723 10.7097 2.96227 10.7097 5.71873L 12.1652 5.71873ZM 5.71873 -0.727723C 2.15845 -0.727723 -0.727723 2.15845 -0.727723 5.71873L 0.727723 5.71873C 0.727723 2.96227 2.96227 0.727723 5.71873 0.727723L 5.71873 -0.727723ZM -0.727723 5.71873C -0.727723 9.27901 2.15845 12.1652 5.71873 12.1652L 5.71873 10.7097C 2.96227 10.7097 0.727723 8.47519 0.727723 5.71873L -0.727723 5.71873Z"/>
</defs>
</svg>
