<?xml version="1.0" encoding="utf-8"?>
<!-- Generator: Adobe Illustrator 21.0.0, SVG Export Plug-In . SVG Version: 6.00 Build 0)  -->
<svg version="1.1" id="Layer_1" xmlns:figma="http://www.figma.com/figma/ns"
	 xmlns="http://www.w3.org/2000/svg" xmlns:xlink="http://www.w3.org/1999/xlink" x="0px" y="0px" width="512px" height="512px"
	 viewBox="0 0 512 512" enable-background="new 0 0 512 512" xml:space="preserve">
<title>26-sports-targer-aim</title>
<desc>Created using Figma</desc>
<g>
	<path fill="#F66290" d="M256,6C117.9,6,6,117.9,6,256s111.9,250,250,250s250-111.9,250-250S394.1,6,256,6z M256,489.2
		C127.2,489.2,22.8,384.8,22.8,256S127.2,22.8,256,22.8S489.2,127.2,489.2,256S384.8,489.2,256,489.2z"/>
	<path fill="#F66290" d="M255.9,93.8c-89.5,0-162.1,72.6-162.1,162.1c0,89.5,72.6,162.1,162.1,162.1c89.5,0,162.1-72.6,162.1-162.1
		C418.1,166.4,345.5,93.8,255.9,93.8z M255.9,401.3c-80.3,0-145.4-65.1-145.4-145.4c0-80.3,65.1-145.4,145.4-145.4
		s145.4,65.1,145.4,145.4C401.3,336.2,336.2,401.3,255.9,401.3z"/>
	<path fill="#F66290" d="M256,181.7c-41,0-74.3,33.3-74.3,74.3c0,41,33.3,74.3,74.3,74.3s74.3-33.3,74.3-74.3
		C330.3,215,297,181.7,256,181.7z M256,313.5c-31.8,0-57.5-25.7-57.5-57.5c0-31.8,25.7-57.5,57.5-57.5s57.5,25.7,57.5,57.5
		C313.5,287.8,287.8,313.5,256,313.5z"/>
</g>
</svg>
