<?xml version="1.0" encoding="utf-8"?>
<!-- Generator: Adobe Illustrator 16.0.0, SVG Export Plug-In . SVG Version: 6.00 Build 0)  -->
<!DOCTYPE svg PUBLIC "-//W3C//DTD SVG 1.1//EN" "http://www.w3.org/Graphics/SVG/1.1/DTD/svg11.dtd">
<svg version="1.1" id="Layer_1" xmlns="http://www.w3.org/2000/svg" xmlns:xlink="http://www.w3.org/1999/xlink" x="0px" y="0px"
	 width="512px" height="512px" viewBox="-216.5 -230.5 512 512" enable-background="new -216.5 -230.5 512 512"
	 xml:space="preserve">
<g>
	<path fill="#FEFEFE" d="M-176.574,151.247h471.443V-136.5h-471.443V151.247z"/>
	<path fill="none" stroke="#333333" d="M-176.567,151.247h471.443V-136.5h-471.443V151.247z"/>
	<path fill="#FEFEFE" d="M-196.402,169.154h471.441v-287.744h-471.441V169.154z"/>
	<path fill="none" stroke="#333333" d="M-196.402,169.154h471.441v-287.744h-471.441V169.154z"/>
	<path fill="#FEFEFE" d="M-214.942,187.694H254.67v-287.751h-469.612V187.694z"/>
	<path fill="none" stroke="#333333" d="M-214.942,187.681h469.625v-287.73h-469.625V187.681z"/>
	<path fill="#FEFEFE" d="M-9.238-20.293L39.606,8.099l48.856,28.379L39.613,64.869l-48.851,28.38V36.478V-20.293z"/>
	<path fill="none" stroke="#333333" d="M-9.238-20.293L39.606,8.099l48.856,28.379L39.613,64.869l-48.851,28.38V36.478V-20.293z"/>
</g>
</svg>
