<?xml version="1.0" encoding="utf-8"?>
<!-- Generator: Adobe Illustrator 16.0.0, SVG Export Plug-In . SVG Version: 6.00 Build 0)  -->
<!DOCTYPE svg PUBLIC "-//W3C//DTD SVG 1.1//EN" "http://www.w3.org/Graphics/SVG/1.1/DTD/svg11.dtd">
<svg version="1.1" id="Layer_1" xmlns="http://www.w3.org/2000/svg" xmlns:xlink="http://www.w3.org/1999/xlink" x="0px" y="0px"
	 width="512px" height="512px" viewBox="-217 -225.5 512 512" enable-background="new -217 -225.5 512 512" xml:space="preserve">
<g>
	<path fill="none" stroke="#333333" d="M33.867,233.93v-402.782 M165.959,233.644L34.173-171.843l-134.206,405.486"/>
	<path fill="#FEFEFE" d="M-182.023,183.416h476.337V-86.06h-476.337V183.416z"/>
	<path fill="none" stroke="#333333" d="M-182.023,183.416h476.337V-86.06h-476.337V183.416z"/>
	<path fill="#FEFEFE" d="M-201.869,167.122h479.482v-272.443h-479.482V167.122z"/>
	<path fill="none" stroke="#333333" d="M-201.869,167.122h479.482v-272.443h-479.482V167.122z"/>
	<path fill="#FEFEFE" d="M-215.676-123.95V148.5h432.501l43.829-106.728V-123.95H-215.676z"/>
	<path fill="none" stroke="#333333" d="M-215.676-123.95h476.323V41.772L216.825,148.5h-432.501V-123.95z"/>
	<path fill="none" stroke="#333333" d="M259.871,40.749l-74.944,75.207l30.802,30.651"/>
	<path fill="#FEFEFE" d="M-18.279,46.832h-17.134v-63.199h17.134"/>
	<path fill="none" stroke="#333333" d="M-18.279,46.832h-17.134v-63.199h17.134"/>
	<path fill="#FEFEFE" d="M42.139-51.499L-18.547-17.14v63.933l60.692,34.356L42.139-51.499z"/>
	<path fill="none" stroke="#333333" d="M42.139-51.499L-18.547-17.14v63.933l60.692,34.356L42.139-51.499z"/>
	<path fill="none" stroke="#333333" d="M42.834-51.499L-18.54-17.126V46.82l61.374,34.375v-132.7V-51.499z M74.28-23.817
		C85.071-13.504,91.169,0.782,91.137,15.71c0,14.857-5.985,29.048-16.549,39.228"/>
</g>
</svg>
